<svg width="30" height="32" viewBox="0 0 30 32" fill="none" xmlns="http://www.w3.org/2000/svg">
<g clip-path="url(#clip0)">
<path d="M26.3431 32.0001H8.46497V6.42773H30V28.1988L26.3431 32.0001ZM9.14217 31.3089H26.0722L29.3228 27.9915V7.11888H9.14217V31.3089Z" fill="#349C54"/>
<path d="M9.1422 29.8575H5.68848V4.28516H27.2235V7.04974H9.1422V29.8575ZM6.36568 29.1664H8.465V6.35859H26.5463V4.9763H6.36568V29.1664Z" fill="#349C54"/>
<path d="M6.36559 27.6461H2.91187V2.07373H24.4469V5.04565H6.36559V27.6461ZM3.58907 26.9549H5.68839V4.35451H23.7697V2.76488H3.58907V26.9549Z" fill="#349C54"/>
<path d="M3.58917 25.5724H0V0H21.535V2.76458H3.58917V25.5724ZM0.677201 24.8812H2.91196V2.07343H20.8578V0.691145H0.677201V24.8812Z" fill="#349C54"/>
<path d="M26.4109 31.8617L25.8014 31.5853V28.0604L26.14 27.7148H29.5937L29.8646 28.3369L26.4109 31.8617ZM26.5463 28.406V30.7559L28.8488 28.406H26.5463Z" fill="#349C54"/>
<path d="M13.6795 13.4082H10.7676L10.429 13.0626V10.0907L10.7676 9.74512H13.6795L14.0181 10.0907V13.0626L13.6795 13.4082ZM11.1062 12.717H13.3409V10.4363H11.1062V12.717Z" fill="#349C54"/>
<path d="M13.6795 19.5595H10.7676L10.429 19.214V16.2421L10.7676 15.8965H13.6795L14.0181 16.2421V19.214L13.6795 19.5595ZM11.1062 18.8684H13.3409V16.5876H11.1062V18.8684Z" fill="#349C54"/>
<path d="M13.6795 24.7427H10.7676L10.429 24.3971V21.4252L10.7676 21.0796H13.6795L14.0181 21.4252V24.3971L13.6795 24.7427ZM11.1062 24.0515H13.3409V21.7707H11.1062V24.0515Z" fill="#349C54"/>
<path d="M13.6795 29.9267H10.7676L10.429 29.5812V26.6092L10.7676 26.2637H13.6795L14.0181 26.6092V29.5812L13.6795 29.9267ZM11.1062 29.2356H13.3409V26.9548H11.1062V29.2356Z" fill="#349C54"/>
<path d="M27.9683 9.95264H15.3047V10.6438H27.9683V9.95264Z" fill="#349C54"/>
<path d="M24.3792 11.8184H15.3047V12.5095H24.3792V11.8184Z" fill="#349C54"/>
<path d="M27.5621 15.9653H14.8984V16.6565H27.5621V15.9653Z" fill="#349C54"/>
<path d="M21.9413 17.6934H14.8984V18.3845H21.9413V17.6934Z" fill="#349C54"/>
<path d="M27.9683 21.3564H15.3047V22.0476H27.9683V21.3564Z" fill="#349C54"/>
<path d="M21.6027 23.1533H15.3047V23.8445H21.6027V23.1533Z" fill="#349C54"/>
<path d="M23.0248 27.7148H15.3047V28.406H23.0248V27.7148Z" fill="#349C54"/>
</g>
<defs>
<clipPath id="clip0">
<rect width="30" height="32" fill="white"/>
</clipPath>
</defs>
</svg>
