<svg width="68" height="75" viewBox="0 0 68 75" fill="none" xmlns="http://www.w3.org/2000/svg">
<g clip-path="url(#clip0)">
<path d="M58.124 44.0331C49.4829 48.5993 41.8647 52.8517 34.1053 56.6511L34.2817 56.8951V56.9648C42.1468 53.5837 50.4352 49.889 59.0058 45.6365C58.8294 45.1485 58.4767 44.4514 58.124 44.0331Z" fill="#6E7992"/>
<path d="M31.6372 58.0105L31.5666 57.8362C29.8031 58.7076 27.9691 59.4744 26.2409 60.2413C27.9691 59.579 29.8031 58.8819 31.6372 58.0105Z" fill="#6E7992"/>
<path d="M41.4415 10.3269V10.5361L41.7237 10.4663L41.7942 10.2572L41.4415 10.3269Z" fill="#6E7992"/>
<path d="M30.8611 8.54927C30.9317 8.54927 31.108 8.37499 31.108 8.30527C31.108 8.13099 31.0375 8.06128 30.8611 8.06128C30.6848 8.06128 30.6142 8.13099 30.6142 8.30527C30.579 8.4447 30.6848 8.54927 30.8611 8.54927Z" fill="#6E7992"/>
<path d="M29.7322 6.91101V6.49274V6.24874L29.5558 6.17903L29.1326 6.00475L28.5683 5.69104V6.21388V6.63216V6.87616L28.7446 6.94587L29.1679 7.12015L29.6969 7.36414V6.91101H29.7322ZM29.3795 6.91101L28.921 6.73673V6.21388L29.3442 6.45788V6.91101H29.3795Z" fill="#6E7992"/>
<path d="M39.1492 6.98078L39.3256 6.91107V6.66707V6.2488V5.72595L38.7965 5.96995L38.3733 6.14423L38.197 6.21394V6.45793V6.87621V7.39906L38.726 7.15506L39.1492 6.98078ZM38.6202 6.45793L38.9729 6.21394V6.73679L38.5497 6.91107L38.6202 6.45793Z" fill="#6E7992"/>
<path d="M35.7635 8.20076C35.834 8.20076 36.0104 8.13104 36.0104 7.95676C36.0104 7.78248 35.9398 7.71277 35.7635 7.71277C35.5871 7.71277 35.5166 7.78248 35.5166 7.95676C35.5166 8.13104 35.5871 8.20076 35.7635 8.20076Z" fill="#6E7992"/>
<path d="M37.0682 8.54927C37.2445 8.54927 37.3151 8.37499 37.3151 8.30527C37.3151 8.13099 37.2445 8.06128 37.0682 8.06128C36.8918 8.06128 36.8213 8.13099 36.8213 8.30527C36.786 8.4447 36.8918 8.54927 37.0682 8.54927Z" fill="#6E7992"/>
<path d="M32.1659 8.20076C32.3422 8.20076 32.4128 8.13104 32.4128 7.95676C32.4128 7.78248 32.3422 7.71277 32.1659 7.71277C31.9895 7.71277 31.919 7.78248 31.919 7.95676C31.919 8.13104 31.9895 8.20076 32.1659 8.20076Z" fill="#6E7992"/>
<path d="M24.1248 17.0193C24.8301 18.065 25.4297 17.6119 25.7119 17.3679C24.9007 16.9148 24.4069 17.0193 24.1248 17.0193Z" fill="#6E7992"/>
<path d="M40.6304 32.9138L40.4541 32.7396V31.6242H39.5018L39.3254 31.3802C38.2673 29.4631 36.3628 28.278 34.176 28.278H33.7528C31.5661 28.278 29.6615 29.4979 28.6034 31.3802L28.4271 31.6242H27.4748V32.8441L27.2985 33.0184C24.8648 34.9355 23.3835 37.7589 23.3835 40.7914C23.3835 43.8239 24.7943 46.6472 27.2985 48.5643L27.4748 48.7386V49.854H28.4271L28.5682 50.098C29.6263 52.0151 31.5308 53.2002 33.7175 53.2002H34.1408C36.3275 53.2002 38.2321 51.9803 39.2902 49.9935L39.4665 49.7495H40.4188V48.6341L40.5951 48.4598C43.0287 46.5427 44.5101 43.7193 44.5101 40.6868C44.5101 37.6543 43.1698 34.7961 40.6304 32.9138Z" fill="#6E7992"/>
<path d="M38.3733 9.0721C38.5497 9.0721 38.6202 8.89781 38.6202 8.8281C38.6202 8.65382 38.5497 8.58411 38.3733 8.58411C38.197 8.58411 38.0912 8.61896 38.0912 8.79324C38.0912 8.96753 38.197 9.0721 38.3733 9.0721Z" fill="#6E7992"/>
<path d="M29.8033 8.79331C29.8033 8.61903 29.7328 8.54932 29.5564 8.54932C29.3801 8.54932 29.3095 8.61903 29.3095 8.79331C29.3095 8.96759 29.3801 9.0373 29.5564 9.0373C29.7328 9.07216 29.8033 8.89788 29.8033 8.79331Z" fill="#6E7992"/>
<path d="M43.8048 17.0194C43.4521 17.0891 43.0289 17.0194 42.2177 17.368C42.5704 17.5423 43.0994 17.9605 43.8048 17.0194Z" fill="#6E7992"/>
<path d="M67.4708 14.5097L67.0476 15.1023C67.2945 13.3595 66.9771 10.9544 66.5186 9.56013C65.919 11.7909 64.7551 13.7777 63.2032 15.6948L63.1327 14.5794C61.2986 17.4377 59.0414 19.773 56.502 20.8884C56.502 20.4702 56.4314 19.9473 56.2551 19.5988C52.9397 23.9209 44.8982 22.8752 45.78 31.5893C47.614 31.3453 48.4957 33.1579 46.9086 34.8658C46.2032 34.8658 45.4978 34.6218 44.8982 34.2733L45.2509 33.7504L43.8401 33.0533C44.1928 32.9836 44.5455 32.8093 44.8982 32.635C42.8173 31.5893 43.4874 29.6025 41.0538 28.5917C40.6306 28.1734 40.2779 27.546 39.9957 26.9534C39.9252 26.5352 39.8194 26.0123 39.7488 25.4895C39.7488 24.4438 39.7488 23.8512 39.9957 23.4329L40.1721 23.6769C40.7717 22.2827 41.5829 21.2719 42.6057 20.6444C45.4978 20.7142 47.1555 20.5747 47.6845 18.8319C47.5082 18.9016 47.4376 18.9016 47.3318 18.9016C47.2613 18.7273 47.1555 18.6576 47.0849 18.5531C47.7903 18.3091 48.8484 18.7273 49.0953 18.7273C49.0248 17.8559 48.6721 17.6119 48.4957 17.2634L49.448 16.5663C51.8816 17.3331 53.9978 15.5206 55.4791 16.3223L56.0082 14.5097C53.8215 13.464 52.5165 14.8583 50.6825 14.8583C51.2115 13.7429 51.282 12.6972 50.8588 11.6515L48.919 11.059C46.5559 11.7561 46.6617 13.9172 47.5082 15.3811C46.9791 15.904 46.4501 16.148 46.0974 16.3223L45.4978 16.392C45.4978 16.392 45.4273 15.6251 44.3692 15.3463V14.8234C45.6742 13.7777 45.78 12.7669 45.4978 12.1395C45.2509 11.5469 44.5455 11.1984 43.9107 11.3727L43.0289 11.6167L42.9584 11.4424C43.0289 11.3727 43.0289 11.2681 43.0289 11.1984C43.0289 11.0241 42.9584 10.8498 42.8526 10.7801H42.9231L42.8526 10.4315L43.2053 10.5012V9.31613L42.8526 9.38585L42.9231 9.03728H41.6887L41.7592 9.38585L41.4065 9.31613V9.76927L41.7592 9.83898L41.6887 9.49042H42.2883L42.1119 9.83898L42.5352 9.76927V10.3618L42.1119 10.2921L42.2883 10.6407H41.6887L41.724 10.5361L41.4418 10.8847H41.6181C41.5476 10.9544 41.4418 11.1287 41.4418 11.3029C41.4418 11.3727 41.4418 11.5469 41.5123 11.6515L41.4418 11.8258L40.5601 11.5818C39.9605 11.4075 39.2551 11.6515 38.9729 12.3486C38.726 12.9412 38.7966 13.9172 40.1015 15.0326V15.7297C39.7488 15.7297 39.3962 15.7297 39.1493 15.7297C38.0912 15.1371 37.2447 14.0915 36.9625 12.8018C37.6679 12.7321 38.197 12.4532 38.6202 12.0349V10.2224C41.4065 8.16588 42.2177 5.37737 39.7488 4.19225C38.3381 3.49513 36.6098 4.12254 35.7281 4.78481C35.5518 4.54082 35.3049 4.26197 35.0227 4.19225C35.0227 3.94826 34.9522 3.66941 34.67 3.42541H34.8464L34.67 2.83286L35.2696 3.00714V1.02033L34.67 1.19461L34.8816 0.602051H32.9418L33.1181 1.19461L32.5186 1.02033V2.93743L33.1181 2.76314L32.9418 3.3557H33.1181C32.9418 3.52998 32.7654 3.77398 32.7654 4.12254V4.19225C32.5891 4.26197 32.3422 4.54082 32.1659 4.7151C31.2841 4.01797 29.5559 3.42541 28.2509 4.12254C25.8173 5.34251 26.5933 8.09616 29.3796 10.1527V11.9652C29.8028 12.3835 30.4376 12.6623 31.0372 12.7321C30.7903 13.952 29.9086 14.9629 28.8505 15.66C28.6036 15.66 28.2509 15.66 27.8982 15.66V14.8931C29.2032 13.8475 29.309 12.8366 29.0269 12.2092C28.7447 11.5818 28.0746 11.2681 27.4397 11.4424L26.558 11.7561L26.4874 11.5818C26.558 11.5121 26.558 11.4075 26.558 11.3378C26.558 11.1635 26.4874 10.9892 26.3816 10.9195H26.4522L26.3816 10.571L26.7343 10.6407V9.4207L26.3816 9.49042L26.4522 9.14185H25.2177L25.2883 9.49042L24.9356 9.4207V10.6407L25.2883 10.571V10.9195H25.4646C25.3941 10.9892 25.2883 11.1635 25.2883 11.3378C25.2883 11.4075 25.2883 11.5818 25.3588 11.6864L25.2883 11.8606L24.4065 11.6167C23.8069 11.4424 23.1015 11.6864 22.8194 12.3835C22.5725 12.976 22.643 13.952 23.948 15.0674V15.5903C22.8899 15.8343 22.8194 16.7057 22.8194 16.7057H22.3962C22.0435 16.5314 21.2675 16.0086 20.7385 15.4857C21.6202 13.9172 21.6202 12.0349 19.3277 11.3378L17.3879 11.7561C16.9646 12.8018 17.0352 13.7429 17.5642 14.8583C15.7302 14.8583 14.4252 13.464 12.2385 14.5097L12.7675 16.3223C14.2489 15.5554 16.365 17.3679 18.7986 16.5663L19.7509 17.2634C19.3982 17.6817 19.0455 18.1348 18.975 18.9016C19.5746 18.5531 20.2094 18.4834 21.1617 18.6576C20.809 18.6576 20.7385 18.8319 20.7385 18.9016C20.809 18.9713 20.8443 18.9713 20.8796 18.9713C20.7738 18.9713 20.5269 18.9016 20.28 18.9016C20.809 20.5399 22.5372 20.7142 25.4293 20.6444C26.4874 21.1673 27.1928 22.213 27.863 23.6769L28.0393 23.4329C28.2157 23.9558 28.2862 24.4786 28.2862 25.4895C28.2862 26.082 28.2157 26.5352 28.0393 26.9534C27.6866 27.546 27.3339 28.1734 26.9812 28.5917C24.5476 29.6374 25.2177 31.6242 23.1368 32.5653C23.4895 32.8093 23.7364 32.9836 24.1949 32.9836L22.7841 33.6807L23.1368 34.2036C22.5372 34.5521 21.9024 34.7961 21.1264 34.7961C19.4688 33.0533 20.3505 31.3453 22.2551 31.5196C23.1368 22.8055 15.0953 23.9209 11.78 19.529C11.7094 19.8776 11.6036 20.4004 11.5331 20.8187C8.99367 19.7033 6.73641 17.3679 4.90239 14.5097L4.83185 15.6251C3.35052 13.708 2.22189 11.6515 1.5165 9.49042C1.05799 10.8847 0.705293 13.2898 0.987451 15.0326L0.564214 14.44C-0.317528 17.7165 -0.211719 19.8776 1.62231 22.7358C1.86919 24.5484 2.6804 26.3609 3.56214 27.7551C3.03309 27.6854 2.6804 27.5809 2.15135 27.5809C3.10363 29.3934 4.23226 31.1362 5.29035 32.2516L3.80903 32.6699C5.11401 34.6567 6.59533 35.9464 8.35882 37.0618C7.58288 37.2361 7.23019 37.4801 6.59533 37.9332C7.72396 39.1532 8.67625 39.7457 10.2634 40.164C9.02894 40.5823 8.4999 41.1051 8.18247 42.0811C9.76961 42.6039 11.4978 42.9525 13.2613 42.8479C12.2032 43.4405 11.2509 44.1376 10.7219 45.0787L10.3692 44.9044C10.1928 44.8347 10.1223 44.8347 9.94595 44.8347C9.59326 44.8347 9.17002 45.0787 9.06421 45.4273C9.06421 45.497 8.99367 45.6016 8.99367 45.6016V45.7759C8.92313 45.8456 8.74678 45.9501 8.64097 46.0199L8.21774 45.8456C8.04139 45.7759 7.86504 45.7759 7.68869 45.7759C7.26546 45.7759 6.80695 46.0199 6.6306 46.473C6.38371 47.0655 6.6306 47.693 7.15965 48.0415L7.51234 48.2158H7.58288C7.58288 48.3901 7.58288 48.4598 7.58288 48.6341L7.51234 48.8084C7.51234 48.8781 7.44181 48.8781 7.44181 48.9826C7.37127 49.2266 7.37127 49.5055 7.44181 49.7495C7.51235 49.9935 7.68869 50.1678 7.97085 50.342L8.57044 50.6209L8.67625 50.6906L8.85259 50.7603L10.087 51.3529L10.1576 51.4226C9.27583 52.4683 8.21774 53.0608 7.01857 53.0608C6.84222 53.0608 6.66587 53.0608 6.41898 53.0608L6.1721 52.8866H6.10156C5.57251 52.8168 5.04347 52.6426 4.51442 52.3637L3.91484 52.0151L4.09118 52.7123C4.44388 54.3505 5.92521 55.9888 8.18247 57.4527C10.3692 58.7424 12.7323 59.5093 14.7426 59.5093C15.8007 59.5093 16.6825 59.2653 17.2821 58.8121L17.8816 58.3939L17.1762 58.2196C16.6472 58.0453 16.1182 57.8013 15.7655 57.5224L15.4128 57.4527L15.1659 57.2087C13.9314 56.0933 13.9314 54.4551 14.2841 53.2351H14.3547L15.5891 53.8277L15.9418 54.002L16.0123 53.8277L18.5518 55.0476C18.4812 58.9167 17.2468 61.3566 14.9543 63.8663H14.8837C14.531 63.936 14.2841 64.2846 14.1783 64.6331C14.1078 64.7029 14.002 64.8074 13.9314 64.8771C13.9314 64.8771 13.9314 64.8771 13.8609 64.8771C13.6845 64.6331 13.4377 64.4589 13.085 64.4589C13.0144 64.4589 12.9086 64.4589 12.8381 64.5286L12.4148 64.7029C12.1679 64.7726 11.9916 64.9468 11.8858 65.1211C11.8152 65.2954 11.8152 65.4697 11.8152 65.7137C11.7447 65.7137 11.5684 65.7834 11.4626 65.7834C11.2862 65.4348 10.9335 65.1908 10.5808 65.1908C10.5103 65.1908 10.4045 65.1908 10.2281 65.2606L9.98122 65.3303C9.45218 65.5045 9.20529 65.9228 9.38164 66.4457C8.25301 66.7942 7.12438 67.2125 6.06629 67.4914C6.24264 70.1753 7.12438 72.4061 8.85259 74.4975C11.5684 73.2078 14.1783 71.9181 16.7177 70.6981C16.7883 70.7679 16.9646 70.8724 17.141 70.8724C17.2115 70.8724 17.3173 70.8724 17.3879 70.8027L17.7406 70.733C18.1638 70.5587 18.6928 70.1404 18.975 69.6873C22.643 67.9445 26.0642 66.4108 29.0269 65.1211C29.0974 66.1668 29.2032 67.1079 29.5559 67.8051C30.2613 67.5611 30.8609 67.3868 31.4605 66.8639C31.4605 67.2125 31.6368 67.5611 31.7074 67.9793L30.4024 69.3736L31.2841 70.245L32.5891 69.025C32.7654 69.9662 33.8235 71.3604 34.4231 71.709C34.8464 71.3604 36.0103 69.8964 36.2571 69.025L37.5621 70.245L38.4439 69.3736L37.1389 67.9793C37.3152 67.6308 37.3858 67.2822 37.3858 66.8639C37.9854 67.2822 38.6202 67.5611 39.2903 67.8051C39.5372 67.1079 39.7136 66.2365 39.8194 65.1211L40.1721 65.2954L40.3484 65.1211L46.6264 68.1536L47.1555 68.3976L47.3318 68.6416L47.4024 68.7113H47.4729L48.3547 69.1296L48.6015 69.1993C48.8484 69.6176 49.5538 70.7679 50.7883 70.6633C51.0352 70.6633 51.2115 70.5936 51.3878 70.489L52.2696 70.9073L52.6223 71.0816L52.6928 70.9073L55.9376 72.3712L55.8671 72.5455L56.2198 72.7198L57.4542 73.3124L57.8069 73.4866L57.8775 73.3124L58.8298 73.7306C58.7592 73.7306 58.7239 73.7306 58.7239 73.7306C58.7592 73.7306 58.7945 73.7306 58.8298 73.7306C59.1825 73.7306 59.6057 73.4866 59.7115 73.1381C59.7115 73.0684 59.782 72.9638 59.782 72.9638V72.7895C59.8526 72.7198 60.0289 72.7198 60.1347 72.5455H60.2053L60.7343 72.7895C60.9107 72.8592 61.087 72.8592 61.2634 72.8592C61.6866 72.8592 62.1451 72.6152 62.3215 72.1621C62.5683 71.5695 62.3215 70.9421 61.7924 70.5936L61.3692 70.3496C61.3692 70.1753 61.3692 70.1056 61.3692 69.9313L61.4397 69.8616C61.5103 69.7919 61.5103 69.7919 61.5103 69.6873C61.5808 69.4433 61.5808 69.1645 61.5103 68.9205C61.4397 68.6765 61.1576 68.6765 60.9812 68.5719L59.9231 68.0491L59.9937 67.8748L59.641 67.7005L58.4065 67.1079L58.0538 66.9337L58.1244 66.7594C58.3007 66.3411 57.948 65.8183 57.7011 65.7137L57.2779 65.5394C56.8546 65.3651 56.3256 65.5394 56.1493 65.9577L56.0787 66.132L55.726 65.9577L55.7966 65.7137C55.9729 65.2954 55.7966 64.7726 55.2675 64.4937L54.8443 64.3194C54.5974 64.2497 54.2447 64.3194 54.0683 64.3891C51.4584 61.6355 50.0476 59.3001 49.8713 56.2676C53.9625 54.6991 58.6181 53.0608 63.4854 51.5272C62.9563 49.0175 62.004 46.6821 60.6991 44.521L59.4646 45.2182L58.4065 43.2313C57.8775 43.5799 57.3484 43.8239 56.7488 44.1725C56.2198 43.6496 55.5144 43.1268 54.809 42.7782C56.5725 42.8479 58.4065 42.5342 59.8878 42.0114C59.4646 41.14 58.9356 40.5474 57.8069 40.0943C59.3941 39.676 60.4169 39.0486 61.475 37.8635C60.8754 37.4452 60.5227 37.1663 59.7115 36.9921C61.475 35.8767 62.8505 34.587 64.2613 32.6002L62.78 32.1819C63.8381 31.0665 64.9667 29.3237 65.919 27.5111C65.3899 27.5111 65.0372 27.5111 64.5082 27.6854C65.4605 26.3957 66.1658 24.4786 66.448 22.6661C68.2468 19.8427 68.3526 17.7862 67.4708 14.5097ZM10.5103 68.1188C10.4397 67.8748 9.98122 67.9445 9.91068 67.7702L9.48745 66.376C9.41691 66.0274 9.55799 65.6788 9.91068 65.6091L10.1576 65.5394C10.5103 65.4697 10.863 65.6091 10.9335 65.9577L11.6389 68.0142L10.863 68.0839L11.8152 68.3279L12.0621 69.1993C12.0621 69.2342 11.1099 69.2342 10.5103 68.1188ZM14.0725 69.3387C13.5435 68.9902 13.1202 68.6416 12.9439 67.8748H13.7198L12.4854 67.2822L11.9563 65.7137C11.8858 65.4697 12.0269 65.1211 12.309 65.0166L12.7323 64.8423C12.9791 64.7726 13.3318 64.912 13.4377 65.1908L14.2136 67.5262C14.531 68.2931 14.0725 69.3387 14.0725 69.3387ZM67.365 15.2766C68.3173 19.8427 66.6596 22.0038 64.7551 24.3392C65.4605 23.1192 65.8132 21.7598 65.8837 20.3656V19.3199L65.1783 20.0867C64.5787 20.7839 63.9439 21.3764 63.3443 21.8993L64.4729 20.7839C65.6015 19.3896 66.4127 17.9256 66.836 16.2874C67.0123 15.9737 67.1887 15.6251 67.365 15.2766ZM57.6659 29.254C56.7136 29.6025 55.8318 29.7768 54.8796 29.9511C56.3609 29.3585 57.419 28.3825 58.0186 27.2671C59.782 26.2215 61.9335 24.7575 63.2737 22.5267C64.0497 21.9341 64.8609 21.237 65.531 20.3656C65.3547 24.6878 61.6866 28.034 57.9127 29.9511C57.9833 29.8814 57.9833 29.7071 58.0891 29.7071L58.4418 28.9403L57.6659 29.254ZM58.1244 25.4546C56.9605 26.3609 55.6555 26.7792 54.421 27.1277C54.3858 27.1626 54.3505 27.1626 54.28 27.1974H54.2094C54.28 27.1626 54.3505 27.1626 54.421 27.1277C56.0082 26.4306 57.1015 25.594 57.5953 24.4089C59.253 23.3632 60.8401 22.0736 61.8629 20.3656C62.6389 19.5988 63.4501 18.7971 64.226 17.7862C64.226 22.1084 61.3339 24.9666 58.3007 26.6746C58.3713 26.326 58.5476 26.082 58.6534 25.9077L58.9003 24.8621L58.1244 25.4546ZM66.4127 10.5361C67.365 15.0326 66.1658 18.0651 64.1555 20.4702C64.4024 19.5988 64.5787 18.7273 64.5787 17.7165V16.7754L63.9791 17.5422C63.4501 18.1348 62.921 18.7622 62.392 19.3548C62.7447 18.4834 62.9916 17.6119 63.0974 16.6011C64.6845 14.3354 65.9895 12.1744 66.4127 10.5361ZM56.3609 21.4113C59.4999 19.9473 60.9107 18.1348 62.7447 15.8691C62.5683 19.7382 60.3816 22.0736 57.6659 23.8164C57.7364 23.5724 57.8422 23.2935 57.8422 23.0495L57.9127 22.2827L57.3132 22.701C56.6078 23.2238 55.9024 23.5724 55.2323 23.9209C55.8318 23.3981 56.3609 22.5267 56.3609 21.4113ZM45.8858 31.3453C45.6389 23.3981 53.0455 23.8164 55.9376 20.4702C56.114 22.5267 55.1617 23.6769 54.1742 24.2695C50.753 25.7335 47.3671 26.6049 46.9086 30.2996C48.3899 25.4546 52.7634 26.2563 57.3837 23.1192C57.2073 24.9318 55.9024 26.1517 53.892 26.9186C51.3526 27.6854 48.919 28.4871 47.8609 31.0665C50.5766 27.1974 54.7737 28.3128 58.0891 25.8032C57.6659 27.3717 56.2551 29.5328 53.1161 30.0208C50.9293 30.5436 49.8007 30.8922 48.6721 32.5305C51.0352 30.1254 54.5269 30.7876 57.6659 29.498C55.8318 33.7156 51.282 32.3562 48.6721 34.1687C51.0352 33.123 54.1036 33.6459 56.0082 33.0533C55.0559 34.5173 53.4688 35.2841 51.7405 35.6327C50.7883 35.0401 49.7302 35.0401 48.6015 34.9355C48.1783 34.9355 47.7198 34.9355 47.1908 34.8658C48.6015 33.5064 48.3194 31.1013 45.8858 31.3453ZM53.0455 37.4801C49.9065 38.0726 46.2385 38.4212 45.004 35.9115C45.3567 37.3755 46.4854 37.8983 47.8961 38.3166C49.1306 38.5606 50.1534 39.0137 50.9646 40.3034C48.7074 40.7217 46.3443 40.4777 45.1804 38.7349C44.9335 37.2709 44.2986 35.8069 43.3464 34.5173C43.7696 34.4476 44.1223 34.4476 44.4044 34.2733C47.8961 36.4344 50.7883 34.0293 53.0455 37.4801ZM45.3567 39.4669C45.7094 39.9897 46.1327 40.3383 46.8381 40.5823C47.3671 40.9308 48.0725 42.1508 48.0725 42.9874C47.1908 43.0571 46.2385 42.8131 45.2862 42.2902C45.3567 41.7674 45.4625 41.1748 45.4625 40.652C45.4625 40.3383 45.4625 39.8851 45.3567 39.4669ZM46.2385 48.4249C46.5912 48.7735 46.9439 49.1221 47.2966 49.4706C46.9439 49.6449 46.5912 49.8192 46.2385 49.9935C46.309 49.5752 46.309 49.0524 46.2385 48.4249ZM44.5808 45.0787C44.7571 44.5559 44.9335 44.033 45.1098 43.5102C46.2385 44.9044 47.5435 46.0896 49.0248 46.961C49.2011 47.4838 49.2717 47.9021 49.2717 48.3552C48.7426 48.7038 48.143 48.9478 47.614 49.2963C46.2385 48.1112 45.2862 46.717 44.5808 45.0787ZM43.3464 49.4009C43.6991 49.9238 44.1223 50.342 44.5808 50.8649C43.9812 51.1089 43.4522 51.4574 42.9231 51.7363C43.17 51.1089 43.2758 50.342 43.3464 49.4009ZM42.3941 51.9106C42.0414 51.4923 41.6887 51.0392 41.336 50.6209V50.3769V49.0524C41.7592 48.8084 42.1119 48.4598 42.4646 48.1112C42.5352 48.3552 42.7115 48.6341 42.8879 48.8781C42.9937 50.1678 42.8173 51.2134 42.3941 51.9106ZM42.7468 47.7627C43.4522 47.0655 43.9812 46.2987 44.4044 45.4273C44.7571 46.2987 45.1804 47.1701 45.8152 47.937C45.8858 48.8084 45.9916 49.5752 45.8858 50.1678C45.5331 50.342 45.1804 50.5163 44.8277 50.6906C43.9459 49.7495 43.2758 48.7735 42.7468 47.7627ZM40.9833 48.8781V50.342H39.7488C38.6908 52.3288 36.6098 53.7231 34.141 53.7231H33.7177C31.2841 53.7231 29.1679 52.3288 28.1098 50.342H26.9812V48.8781C24.4418 46.961 22.7841 43.9633 22.7841 40.6868C22.7841 37.3058 24.4418 34.3778 26.9812 32.4956V31.0316H28.1098C29.1679 29.0448 31.2489 27.6506 33.7177 27.6506H34.141C36.5746 27.6506 38.6908 29.0448 39.7488 31.0316H40.9833V32.4956C43.5227 34.4127 45.1804 37.4103 45.1804 40.6868C45.1804 44.033 43.5227 46.961 40.9833 48.8781ZM34.2468 56.1282C34.1762 55.7796 34.0704 55.5356 33.9999 55.1871C33.9999 55.3614 33.9293 55.6053 33.8235 55.7796L32.8713 55.3614C33.0476 54.9431 33.4003 54.4899 33.5766 54.0717C33.5766 54.0717 33.6472 54.0717 33.753 54.0717H34.1762C34.1762 54.0717 34.2468 54.0717 34.3526 54.0717C34.5995 54.5945 34.9522 55.1174 35.3049 55.6402C34.9522 55.7796 34.5995 55.9539 34.2468 56.1282ZM35.058 64.0754C34.7053 64.0057 34.3526 63.9012 33.9999 63.9012C33.6472 63.9012 33.2945 63.9709 32.9418 64.0754C33.0123 63.8314 33.1181 63.4829 33.1887 63.204L33.7883 62.96L33.9646 63.3783L34.7406 63.0297C34.8816 63.3783 34.9522 63.7269 35.058 64.0754ZM32.4128 55.1871L31.002 54.4899L30.8256 54.5597L30.226 54.3157C30.4729 54.1414 30.8256 53.7231 31.002 53.5488C31.7074 53.7928 32.4128 53.9671 33.0829 54.0717C32.9418 54.3854 32.6949 54.8385 32.4128 55.1871ZM34.7053 54.0368C35.4812 53.9671 36.1866 53.7928 36.7862 53.514C37.0331 53.758 37.3858 54.0368 37.6679 54.2111C37.6679 54.2111 37.6679 54.2808 37.6679 54.3854C36.9625 54.7339 36.2571 55.0825 35.587 55.4311C35.2343 55.0128 34.9522 54.5597 34.7053 54.0368ZM25.5352 52.05L25.3588 51.9803C25.0061 51.2832 24.9356 50.0632 25.0061 48.8781C25.1825 48.6341 25.3588 48.2855 25.5352 48.0067C25.8879 48.3552 26.2406 48.7038 26.6638 49.0524V50.342H26.5933V50.5163C26.3111 50.9346 25.8879 51.6317 25.5352 52.05ZM26.3111 52.3986L25.9584 52.3288L26.2053 51.9106L26.3111 52.3986ZM23.1721 50.6906L22.0435 50.1678C21.9729 49.5752 22.0435 48.7735 22.114 47.937C22.7136 47.0655 23.1721 46.1941 23.5953 45.3576C24.0186 46.229 24.5476 46.9958 25.253 47.7627C24.724 48.7735 24.0538 49.7495 23.1721 50.6906ZM24.9003 51.7363L24.1949 51.3877L23.948 50.9695L23.5248 50.7952C23.948 50.3769 24.3007 49.9238 24.6534 49.4009C24.6534 50.1678 24.724 51.0392 24.9003 51.7363ZM20.2094 49.5752L18.446 48.8084C18.446 48.2855 18.6223 47.5884 18.7986 46.9958C20.28 46.1244 21.585 44.8347 22.8194 43.4405C22.9957 43.9633 23.1721 44.4862 23.419 44.9044C22.7136 46.5427 21.6908 48.3552 20.2094 49.5752ZM21.6908 48.3552C21.6908 48.8781 21.6908 49.4706 21.6908 49.9238L21.0912 49.6798L20.8443 49.8541L20.4916 49.6798C20.8796 49.2964 21.3381 48.7735 21.6908 48.3552ZM28.9211 28.5917C29.3443 28.4174 29.8028 28.0688 30.226 27.546C30.226 27.79 30.226 28.0688 30.2966 28.2431C29.8733 28.4871 29.5206 28.766 29.1679 29.1145C29.0974 28.9403 29.0269 28.766 28.9211 28.5917ZM32.7654 27.3717C32.836 27.302 32.9418 27.1277 33.0123 27.0232C33.0123 27.0929 33.0829 27.2671 33.0829 27.3717C33.0476 27.3717 32.8713 27.3717 32.7654 27.3717ZM34.7758 27.2671C34.7758 27.1974 34.8464 27.0929 34.8464 26.9186C34.9169 27.0929 35.0227 27.2671 35.0933 27.3369C35.058 27.3717 34.8816 27.3717 34.7758 27.2671ZM37.6679 28.3128C37.6679 28.1386 37.7385 27.8946 37.7385 27.6157C38.0912 28.034 38.5144 28.3825 39.0435 28.6614C38.9729 28.8357 38.8671 29.01 38.7966 29.1842C38.4439 28.8357 38.0912 28.5917 37.6679 28.3128ZM44.5808 33.7504C44.1576 33.9944 43.6991 34.099 43.17 34.099C42.641 33.5064 42.0414 32.8093 41.336 32.2865V30.9968V30.6482H40.9833H39.9252C39.6783 30.1254 39.3256 29.7071 38.9729 29.3585L39.0435 29.2888C42.641 29.9511 42.2177 33.3321 44.5808 33.7504ZM40.9128 28.8357C43.0995 29.9511 42.9937 32.1122 44.2281 32.635C43.9812 32.7047 43.8049 32.8093 43.5227 32.8093C43.3464 32.5653 43.0995 32.2167 42.9231 31.8682C42.2177 30.7528 41.4418 29.4631 39.3256 29.01C39.3256 28.9403 39.3962 28.8357 39.3962 28.766C39.643 28.8357 39.9957 28.9403 40.2779 28.9403C40.3484 28.9403 40.4542 28.9403 40.5248 28.9403L40.9128 28.8357ZM39.7841 22.8752C39.4314 23.5724 39.3609 24.2695 39.3609 25.0363C38.8318 24.3392 38.6555 23.4678 38.6555 22.6313C38.4086 23.2238 38.2323 23.8512 38.1264 24.5484C37.5974 23.7815 37.3505 22.9798 37.2447 22.1433C36.9978 22.6661 36.7157 23.3632 36.5393 23.9558C36.1161 23.3632 36.2924 22.213 36.363 21.2719C35.7634 21.969 34.8816 22.7358 34.1057 23.0147C34.5289 22.0736 35.1638 21.2021 35.8692 20.505C36.0455 20.505 37.28 20.5747 38.0559 20.1565C37.8796 20.6793 37.809 21.2021 37.8796 21.725L38.0559 22.6661L38.5849 21.8993C38.9376 21.481 39.3609 20.9582 39.8899 20.6096C39.502 21.5856 39.6078 22.3524 39.7841 22.8752ZM39.502 26.8489C38.726 26.6746 37.7385 25.5592 37.421 24.7923C37.2447 25.3152 36.8215 26.0123 36.5393 26.2563C35.9397 25.5592 35.6576 24.6878 35.587 23.6769C35.2343 24.0952 34.8111 24.3741 33.9999 24.4438C33.9646 24.4438 33.9646 24.4438 33.9293 24.4438C33.1887 24.3392 32.8007 24.1649 32.448 23.6769C32.2717 24.7226 32.0953 25.594 31.4957 26.2563C31.143 26.0123 30.7903 25.3152 30.614 24.7923C30.2613 25.6638 29.309 26.7094 28.5331 26.8489C28.6036 26.5003 28.7094 25.9078 28.78 25.2803L28.8505 25.1061C29.0974 24.7575 29.2738 24.4089 29.3796 24.0604C29.4501 24.2346 29.4501 24.3044 29.4501 24.4786L29.5206 25.4198L30.0497 24.6529C30.4024 24.2346 30.5787 23.7118 30.7551 23.189C30.8256 23.433 30.9314 23.7118 31.002 23.9558L31.1783 24.7226L31.6015 24.0255C31.9542 23.5027 31.9542 22.8055 31.9542 22.1084C32.3775 22.5267 32.9065 22.8752 33.2592 23.1541C33.4356 23.5027 33.6119 23.9907 33.8588 24.3392C34.1057 23.9907 34.3879 23.5724 34.4584 23.1541C34.8816 22.9101 35.4107 22.5615 35.8692 22.1084C35.8692 22.8055 35.8692 23.5027 36.2219 24.0255L36.6451 24.7226L36.8215 23.9558C36.892 23.7118 36.9978 23.433 37.0684 23.189C37.2447 23.7118 37.421 24.2346 37.7737 24.6529L38.3028 25.4198L38.4791 24.5484C38.5497 24.3741 38.5497 24.1998 38.5497 24.1301C38.6202 24.4786 38.7966 24.8272 39.0787 25.1758L39.1493 25.2455C39.3256 25.9077 39.4314 26.5003 39.502 26.8489ZM42.4646 20.3656C41.9356 20.6096 40.7011 21.4113 40.2074 22.8752C39.9605 22.3524 39.6783 20.8884 41.0891 19.1456C40.7364 19.2153 40.3132 19.8427 40.3132 19.8427C39.3609 20.3656 38.726 20.9582 38.3028 21.6553C38.1264 20.6096 38.6555 19.6685 39.5372 18.6228C38.1264 20.1913 36.5746 20.261 35.6223 20.0867C36.7509 19.9125 38.0559 18.6228 38.6908 17.6817C40.1721 18.4485 41.4065 17.8559 42.1119 17.3331C42.8879 16.7405 43.7696 16.7405 44.7219 16.9148C42.9937 17.8559 43.6285 19.8427 42.4646 20.3656ZM47.0144 17.0194C47.7198 17.1937 48.2488 17.5422 48.4957 18.4136C46.309 17.8211 46.1327 19.0062 44.1223 19.4593C44.7219 19.7033 46.309 19.7033 47.1908 19.2153C46.5912 20.1565 45.78 20.4353 42.9231 20.3307C43.8754 19.5639 43.4522 17.8211 44.863 16.9497C45.6389 16.8451 46.4854 16.8451 47.0144 17.0194ZM46.8381 18.9016C46.309 18.9713 46.4148 19.3199 45.5331 19.3199C45.7094 19.1805 46.4854 18.5531 46.8381 18.9016ZM43.9459 11.7561C44.1928 11.8258 44.475 11.9304 44.6513 12.1744C45.4273 13.22 44.4044 14.2309 43.8754 14.684H43.6991C43.4522 14.684 43.0995 14.6143 42.8173 14.6143C42.8879 13.5686 42.9937 12.6275 43.5932 12.1046L43.9459 11.7561ZM43.8049 14.928V15.4508C42.4999 15.3811 41.4418 15.6251 40.3132 15.6251V14.928C40.4895 14.8583 40.6659 14.8583 40.8422 14.8583H40.9128C41.6887 14.7886 42.3941 14.7886 43.0995 14.8583H43.17C43.3464 14.8583 43.5227 14.8583 43.8049 14.928ZM41.9356 10.9544C42.1119 10.9544 42.2883 11.0938 42.2883 11.3029C42.2883 11.5121 42.1472 11.6515 41.9356 11.6515C41.7592 11.6515 41.5829 11.5121 41.5829 11.3029C41.5829 11.0938 41.7592 10.9544 41.9356 10.9544ZM41.4418 12.1744L41.7945 11.9304C41.865 11.9304 41.9708 12.0001 42.1472 12.0001C42.2177 12.0001 42.3941 12.0001 42.4999 11.9304L42.6762 12.1744L43.558 11.9304C42.8526 12.4532 42.6762 13.4989 42.6762 14.6143C42.4293 14.6143 42.253 14.6143 42.0766 14.6143C41.8298 14.6143 41.6534 14.6143 41.4771 14.6143C41.4771 13.4989 41.3007 12.4532 40.5953 11.9304L41.4418 12.1744ZM40.031 14.684C39.502 14.2657 38.4439 13.22 39.2551 12.2789C39.502 11.9304 39.7841 11.8606 40.031 11.8606L40.3837 12.1046C40.9833 12.6275 41.0891 13.5686 41.0891 14.6143C40.8422 14.6143 40.4895 14.684 40.2074 14.684H40.031ZM40.031 15.9737C41.2654 15.904 42.4646 15.6251 43.8049 15.7297C44.2281 15.7297 44.7571 16.0783 44.863 16.4965C42.6057 16.0783 41.9708 16.8451 41.0891 17.2634C40.2074 17.6119 38.3733 17.7862 37.3152 15.6251C38.0912 16.0434 39.1493 16.0434 40.031 15.9737ZM36.7862 12.5229C36.7157 12.1046 36.6098 11.6515 36.6098 11.1287C37.3152 11.3029 37.8443 11.5469 38.0912 11.8258C37.8443 12.0698 37.4211 12.3486 36.7862 12.5229ZM35.587 5.44708C36.1161 4.57567 37.5974 3.98312 38.9024 4.22711C37.6679 4.4711 36.4688 5.2728 36.1161 6.73677C35.7634 6.66705 35.3401 6.66705 34.9874 6.80648C35.1285 6.3882 35.3049 5.86536 35.587 5.44708ZM32.8713 2.51915V1.54317L33.753 1.78717L33.4003 1.02033H34.3526L34.1057 1.78717L34.8816 1.54317V2.48429L34.1057 2.2403L34.3526 3.00714H33.4003L33.753 2.2403L32.8713 2.51915ZM33.9293 3.3557C34.3526 3.3557 34.7053 3.70426 34.7053 4.12254C34.7053 4.54082 34.3526 4.88938 33.9293 4.88938C33.5061 4.88938 33.1534 4.54082 33.1534 4.12254C33.1534 3.70426 33.4708 3.3557 33.9293 3.3557ZM32.7654 4.4711C32.9418 4.88938 33.365 5.16823 33.8235 5.16823C34.3526 5.16823 34.7053 4.81967 34.8816 4.4711C35.1285 4.64539 35.3049 4.81967 35.3049 5.06366C35.2343 5.06366 35.2343 5.13337 35.2343 5.13337C34.8111 5.8305 34.5289 6.59734 34.4584 7.12019C34.3879 7.05047 34.1057 6.9459 33.9293 6.9459C33.753 6.9459 33.5766 6.9459 33.4003 7.12019C33.3298 6.59734 33.0476 5.90021 32.5186 5.13337C32.5186 5.06366 32.448 5.06366 32.448 4.95909C32.4128 4.74995 32.5891 4.57567 32.7654 4.4711ZM34.3526 7.78246C34.3526 8.02645 34.141 8.20073 33.9293 8.20073C33.7177 8.20073 33.5061 7.99159 33.5061 7.78246C33.5061 7.57332 33.7177 7.36418 33.9293 7.36418C34.141 7.36418 34.3526 7.53846 34.3526 7.78246ZM32.2717 5.34251C32.5186 5.76079 32.6949 6.28363 32.8713 6.80648C32.5186 6.6322 32.1659 6.6322 31.7426 6.73677C31.3899 5.2728 30.1555 4.50596 28.9563 4.1574C30.2613 3.87855 31.7426 4.57567 32.2717 5.34251ZM27.6161 5.2728C27.863 5.02881 28.1451 4.74995 28.392 4.57567C29.8028 4.64539 31.1783 5.34251 31.531 7.08533V7.25961L31.7074 7.1899C32.2364 7.12019 32.7654 7.12019 33.1181 7.36418C33.1887 7.71274 33.2945 7.95674 33.2945 8.06131C33.365 8.3053 33.7177 8.58415 33.9999 8.58415C34.282 8.58415 34.5995 8.40987 34.7053 8.06131C34.7053 7.88702 34.7758 7.64303 34.8816 7.29447C35.3049 7.05047 35.7634 6.9459 36.2924 7.12019L36.4688 7.1899V7.01562C36.8215 5.2728 38.3028 4.61053 39.6078 4.50596C39.9605 4.68024 40.2074 4.85452 40.3837 5.20309C41.5123 7.01562 39.1493 9.17671 38.3733 9.94355C37.8443 9.24642 35.9397 8.82815 33.9999 8.82815C32.1659 8.82815 30.226 9.17671 29.6264 9.94355C28.7447 9.24642 26.4169 7.08533 27.6161 5.2728ZM29.6264 10.3618C29.6264 9.6647 31.5663 9.07214 33.8941 9.07214C36.2571 9.07214 38.1617 9.6647 38.1617 10.3618V11.4772C37.3858 10.8847 35.6223 10.5361 33.8941 10.5361C32.1659 10.5361 30.3318 10.7801 29.6264 11.4772V10.3618ZM34.4231 12.7669C34.2468 12.7669 34.0704 12.7669 33.8941 12.7669C33.7177 12.7669 33.5414 12.7669 33.365 12.7669C33.5414 12.1744 33.6119 11.4772 33.6119 10.7801C33.6825 10.7801 33.7883 10.7801 33.8588 10.7801C33.9293 10.7801 34.0352 10.7801 34.1057 10.7801C34.2468 11.5818 34.3526 12.1744 34.4231 12.7669ZM29.8028 11.8258C30.0497 11.5818 30.5787 11.3029 31.2841 11.1287C31.2136 11.6515 31.2136 12.0698 31.1078 12.5229C30.5082 12.3486 30.085 12.0698 29.8028 11.8258ZM33.4003 13.1155H33.9999H34.5995C35.1285 15.1023 36.363 16.4965 38.0912 17.6119C38.0912 17.6119 36.9625 19.2502 34.9522 19.9473C35.1285 20.1913 35.1991 20.1913 35.4812 20.3656C34.7758 20.9582 33.9999 22.4221 33.9999 22.4221C33.9999 22.4221 33.224 20.9582 32.5186 20.3656C32.6949 20.1913 32.8713 20.1913 33.0476 19.9473C31.0372 19.2502 29.9086 17.6119 29.9086 17.6119C31.6368 16.4965 32.9418 15.1023 33.4003 13.1155ZM27.5455 12.0698L27.8982 11.8258C28.1451 11.8258 28.4273 11.8955 28.6036 12.2441C29.3796 13.1852 28.3567 14.2309 27.8277 14.6492H27.6513C27.4045 14.6492 27.0518 14.5794 26.7696 14.5794C26.8401 13.5686 26.9107 12.5926 27.5455 12.0698ZM27.7219 14.928V15.6251C26.4874 15.5554 25.4646 15.3811 24.1244 15.4508V14.928C25.3588 14.7537 26.558 14.7537 27.7219 14.928ZM25.3588 10.3618V9.76927L25.782 9.83898L25.6057 9.49042H26.2053L26.1347 9.83898L26.558 9.76927V10.3618L26.1347 10.2921L26.2053 10.6407H25.6057L25.782 10.2921L25.3588 10.3618ZM26.3111 11.3029C26.3111 11.4772 26.17 11.6515 25.9584 11.6515C25.782 11.6515 25.6057 11.5121 25.6057 11.3029C25.6057 11.0938 25.7468 10.9544 25.9584 10.9544C26.17 10.9544 26.3111 11.1287 26.3111 11.3029ZM25.5352 12.0698L25.7115 11.8258C25.782 11.8258 25.8879 11.8955 26.0642 11.8955C26.1347 11.8955 26.3111 11.8955 26.4169 11.8258L26.5933 12.0698L27.475 11.8258C26.7696 12.3486 26.5933 13.3943 26.5933 14.5097C26.3464 14.5097 26.17 14.5097 25.9937 14.5097C25.7468 14.5097 25.5704 14.5097 25.3941 14.5097C25.3941 13.464 25.2177 12.4532 24.6887 11.8258L25.5352 12.0698ZM23.2426 12.2441C23.419 12.0001 23.6659 11.8258 23.948 11.8258L24.3007 12.0698C24.9003 12.5926 25.0767 13.5338 25.0767 14.5794C24.8298 14.5794 24.4771 14.6492 24.1949 14.6492H24.0186C23.5248 14.2309 22.4667 13.22 23.2426 12.2441ZM24.1244 15.7297C25.4294 15.66 26.6638 15.904 27.8982 15.9737C28.78 16.0434 29.8381 16.0434 30.614 15.6251C29.5559 17.7862 27.7219 17.6119 26.8401 17.2634C25.9584 16.9148 25.3588 16.0434 23.0663 16.4965C23.1721 16.0434 23.7717 15.7297 24.1244 15.7297ZM22.3962 19.3548C21.5144 19.3548 21.6202 19.0062 21.0912 18.9365C21.4086 18.5531 22.2198 19.1805 22.3962 19.3548ZM20.6327 19.1805C21.5144 19.7033 23.0663 19.7033 23.7011 19.4245C21.6908 19.0062 21.5144 17.7862 19.3277 18.3788C19.5746 17.5074 20.1036 17.1588 20.809 16.9845C21.3381 16.8102 22.2198 16.8102 22.9957 16.9148C24.4771 17.7862 23.948 19.4942 24.9356 20.2959C22.0435 20.3656 21.2323 20.1216 20.6327 19.1805ZM27.7924 22.701C27.2634 21.3067 26.0289 20.5399 25.5352 20.1913C24.4065 19.6685 25.0061 17.7862 23.3484 16.7405C24.2302 16.5663 25.1119 16.5663 25.9584 17.1588C26.6638 17.6817 27.863 18.2742 29.3796 17.5074C29.9791 18.5531 31.2841 19.7382 32.5186 19.8427C31.4605 20.1913 29.9086 20.0867 28.4978 18.4485C29.3796 19.4942 29.9086 20.4353 29.7323 21.481C29.309 20.7839 28.6036 20.1913 27.7219 19.6685C27.7219 19.6685 27.2986 19.1456 26.9459 18.9713C28.3215 20.7142 28.0746 22.2827 27.7924 22.701ZM28.0746 22.8752C28.2509 22.3524 28.3215 21.5856 28.004 20.5399C28.5331 20.8884 28.9563 21.3067 29.309 21.8296L29.8381 22.5964L30.0144 21.6553C30.085 21.0627 30.0144 20.5399 29.8381 20.0867C30.614 20.6096 31.8484 20.4353 31.919 20.505C32.6244 21.2021 33.3298 22.0736 33.6825 23.0147C33.0829 22.7707 32.0953 21.8993 31.4957 21.2021C31.5663 22.1433 31.7426 23.2587 31.3194 23.8861C31.2489 23.2935 30.9667 22.6661 30.614 22.0736C30.5435 22.945 30.2613 23.7118 29.7323 24.4786C29.6617 23.7815 29.4854 23.189 29.2032 22.5615C29.2032 23.4329 29.0269 24.1998 28.4978 24.9666C28.4978 24.3392 28.3215 23.5724 28.0746 22.8752ZM28.2509 27.2671L28.4978 27.1974C29.0974 27.1277 29.9086 26.326 30.4376 25.6289C30.6845 26.0472 30.8609 26.3957 31.143 26.57L31.3899 26.814L31.6368 26.57C32.2364 25.8729 32.5186 25.1061 32.5891 24.4089C32.836 25.1061 34.8464 25.1061 35.1991 24.4089C35.3754 25.1758 35.6223 25.9775 36.1513 26.57L36.3982 26.814L36.6451 26.57C36.892 26.326 37.1742 25.9775 37.3505 25.6289C37.7737 26.326 38.5849 27.0232 39.2903 27.1974L39.5372 27.2671C39.7136 27.6854 39.9605 28.1386 40.3132 28.5568C39.3609 28.7311 38.0559 27.8597 37.2447 26.57C37.2447 27.3369 37.2447 27.79 37.1742 28.1386C36.6451 27.8946 36.1161 27.7203 35.5165 27.546C35.1638 27.1277 34.8111 26.5003 34.7406 25.7335C34.5642 26.5003 34.4937 27.0232 34.3173 27.3717C34.2468 27.3717 33.5414 27.3717 33.4356 27.3717C33.2592 27.0232 33.1887 26.6049 33.0123 25.7335C32.9418 26.5003 32.5891 27.1277 32.2364 27.546C31.6368 27.6157 31.1078 27.8946 30.5787 28.1386C30.5082 27.7203 30.5082 27.2671 30.5082 26.57C29.8028 27.8597 28.4273 28.7311 27.4397 28.5568C27.7924 28.1386 28.0746 27.7203 28.2509 27.2671ZM23.7717 32.5653C24.9003 32.147 24.8298 29.9859 27.0165 28.8357H27.4397C27.5103 28.8357 27.6161 28.8357 27.6866 28.8357C27.9335 28.8357 28.2157 28.766 28.5684 28.6614C28.5684 28.7311 28.6389 28.8357 28.6389 28.9054C26.558 29.4282 25.7468 30.7179 25.0414 31.7636C24.865 32.1122 24.6887 32.4607 24.4418 32.7047C24.2302 32.7396 24.0538 32.635 23.7717 32.5653ZM28.7447 29.3585L28.8152 29.4282C28.4625 29.7768 28.1098 30.1951 27.863 30.7179H26.9812H26.6285V31.0665V32.3562C25.9231 32.879 25.3235 33.4716 24.7945 34.1687C24.1949 34.1687 23.7364 34.099 23.2074 33.8201C25.6057 33.4019 25.1825 30.1254 28.7447 29.3585ZM23.5248 34.2733C23.7717 34.4476 24.1244 34.5173 24.5829 34.5173C23.7011 35.7372 22.9957 37.0966 22.7489 38.5606C21.6202 40.4777 19.1513 40.7217 16.8235 40.3034C17.5995 39.0834 18.6576 38.5606 19.892 38.3166C21.3028 37.8983 22.4314 37.3755 22.8547 35.9115C21.726 38.4909 18.058 38.1423 14.919 37.4801C17.141 34.0293 20.1036 36.4344 23.5248 34.2733ZM22.5725 42.2205C21.6202 42.8131 20.7385 43.0919 19.7862 42.9874C19.8567 42.1159 20.4916 41.0005 21.0206 40.5823C21.7966 40.2337 22.2551 39.8851 22.6078 39.2926C22.5372 39.7109 22.5372 40.2337 22.5372 40.6868C22.4667 41.1748 22.4667 41.6977 22.5725 42.2205ZM11.8152 20.2959C14.7074 23.7467 22.114 23.2238 21.8671 31.1711C19.6099 31.1013 19.3277 33.5064 20.6327 34.9007C20.2094 34.9007 19.6804 34.9704 19.2219 34.9704C18.0933 35.0401 17.0352 35.0401 16.0829 35.6675C14.3194 35.319 12.7675 34.5521 11.8152 33.0882C13.7551 33.6807 16.8941 33.1579 19.1513 34.2036C16.5414 32.391 11.9916 33.7853 10.0518 29.3585C13.1908 30.6482 16.6825 29.9511 19.0455 32.391C17.9169 30.7528 16.7883 30.4042 14.6016 29.8814C11.5331 29.4631 10.0518 27.1974 9.62853 25.6638C12.9439 28.1734 17.141 27.058 19.8567 30.9271C18.9045 28.4174 16.365 27.6506 13.8256 26.7792C11.8152 26.0123 10.5103 24.7923 10.3339 22.9798C14.9543 26.082 19.3277 25.3152 20.809 30.1602C20.3858 26.4306 17.0352 25.6638 13.5435 24.1301C12.5912 23.5724 11.5331 22.457 11.8152 20.2959ZM9.80488 29.5328C9.87541 29.7071 9.87541 29.7768 9.98122 29.8814C6.20737 28.0688 2.53932 24.6878 2.36297 20.2959C3.1389 21.1673 3.8443 21.8644 4.62023 22.457C5.92521 24.6878 8.04139 26.2563 9.87541 27.1974C10.475 28.2431 11.5331 29.254 13.0144 29.8814C12.1327 29.7071 11.1804 29.5328 10.2281 29.1145L9.45218 28.766L9.80488 29.5328ZM9.27583 25.8032C9.34637 26.0472 9.52272 26.3957 9.62853 26.6746C6.56006 25.0363 3.70322 22.1781 3.70322 17.7862C4.47915 18.7273 5.18455 19.5988 6.06629 20.3656C7.19492 22.0038 8.67625 23.2935 10.4397 24.3392C10.9688 25.5592 12.0974 26.5003 13.8609 27.1974C12.4501 26.7792 11.1451 26.326 9.84015 25.3849L9.06421 24.7923L9.27583 25.8032ZM11.3567 21.3416C11.4273 22.5615 11.9563 23.3981 12.5912 23.9209C11.8858 23.5724 11.1804 23.2238 10.5103 22.701L9.87541 22.2827L9.94595 23.0495C10.0165 23.2935 10.0165 23.5724 10.1223 23.8164C7.51235 22.0038 5.21981 19.773 4.97293 15.7994C6.91276 18.0302 8.32355 19.8427 11.3567 21.3416ZM1.48123 10.5361C1.90446 12.1744 3.24471 14.3354 4.79658 16.5663C4.86712 17.6119 5.14928 18.5531 5.50197 19.3199C4.97293 18.7971 4.44388 18.2045 3.91484 17.5074L3.31525 16.7405V17.6817C3.31525 18.7273 3.4916 19.5988 3.73849 20.4353C1.76338 18.0302 0.528945 15.0326 1.48123 10.5361ZM0.634754 15.1023C0.811102 15.4508 0.987451 15.7994 1.1638 16.148C1.58704 17.7165 2.39824 19.2502 3.52687 20.6444L4.58496 21.9341C3.98538 21.4113 3.35052 20.8884 2.75094 20.1216L2.04554 19.3548V20.4004C2.11608 21.7947 2.57459 23.0844 3.27998 24.1998C1.34015 21.9341 -0.352798 19.6685 0.634754 15.1023ZM2.01027 23.8164C2.53932 24.4089 3.1389 24.8621 3.77376 25.2803C5.32562 27.4414 7.7945 29.254 10.2281 30.4042C11.1804 31.9728 12.5912 32.635 14.002 32.9836C13.226 32.9836 12.5206 32.9139 11.9211 32.7396L11.0393 32.4956L11.5684 33.2624C11.6389 33.3321 11.6389 33.4367 11.7447 33.5064C7.51235 32.2167 3.06836 28.3128 2.01027 23.8164ZM2.64513 27.8946C2.89201 27.8946 3.35052 27.9643 3.77376 28.0688C4.6555 29.1842 5.60778 30.2299 6.84222 31.1711C8.4999 32.5653 10.4397 33.5064 12.1679 33.9247C12.9439 34.8658 14.1783 35.563 15.7655 35.9115C15.5891 35.9812 15.4128 36.1555 15.2364 36.3298C9.27583 36.1904 5.25508 33.1579 2.64513 27.8946ZM4.37334 32.8093C4.62023 32.8093 4.97293 32.635 5.43143 32.5653C7.86504 35.1447 11.0393 36.5389 14.8837 36.7132C14.8132 36.8875 14.6368 37.0618 14.531 37.2361L14.2841 37.6543L14.8132 37.724C16.4003 38.0726 17.7053 38.2469 18.7281 38.2469H18.7986C13.1202 39.0137 7.68869 38.0029 4.37334 32.8093ZM7.19492 38.0726C7.72396 37.724 8.25301 37.5498 8.85259 37.3755C10.7924 38.3166 13.0497 38.8394 15.5891 38.8394C16.365 38.8394 17.1762 38.8395 17.9522 38.7697C17.4231 39.0137 16.9999 39.4669 16.6472 39.9897C12.5206 40.7565 8.92313 39.9897 7.19492 38.0726ZM8.57044 41.9765C8.92313 41.2097 9.80488 40.7565 11.004 40.408C11.78 40.4777 12.5912 40.5823 13.4377 40.5823C14.3899 40.5823 15.3775 40.5126 16.3298 40.3383L16.1534 40.5823L16.6825 40.652C17.3879 40.7217 17.9874 40.8263 18.6223 40.8263C18.8692 40.8263 19.1513 40.8263 19.3277 40.8263C15.836 42.4994 12.5206 43.0919 8.57044 41.9765ZM11.1099 45.0787C11.5331 44.2073 12.697 43.5102 14.0725 42.8479C16.0829 42.6039 18.0933 41.9068 20.3505 40.6868C19.9273 41.2794 19.3982 42.2554 19.3982 43.0222V43.0919C17.2115 44.4862 15.0248 45.6016 12.309 45.6713L11.1099 45.0787ZM14.0725 46.717L12.8381 46.1941L12.9086 46.0199C13.614 45.9501 14.3194 45.8456 14.919 45.6713C14.6016 45.9501 14.2489 46.3684 14.0725 46.717ZM14.3547 46.961C14.7074 46.5427 15.3069 45.9153 15.7655 45.3924C17.1762 44.8696 18.4812 44.1725 19.6804 43.4056H19.7509C19.9273 43.4056 19.9978 43.4056 20.1742 43.4056C21.0559 43.4056 21.8318 43.0571 22.6078 42.6388C22.6078 42.7085 22.6783 42.8828 22.6783 42.9874C20.9148 45.0439 18.8339 46.8564 16.0476 47.8324L14.3547 46.961ZM18.1991 48.2507L17.0704 47.7278C17.5995 47.5535 18.0227 47.3792 18.4812 47.1353C18.3754 47.5884 18.1991 48.0067 18.1991 48.2507ZM16.2592 66.4108C16.4356 67.2822 15.6596 68.3279 15.6596 68.3279L15.4128 67.4565L15.3422 67.2822L16.0476 66.0622L15.1659 66.8291L14.5663 64.912C14.4957 64.5634 14.6368 64.2149 14.9895 64.1451L15.2364 64.0754C15.5891 64.0057 15.9418 64.1451 16.0123 64.4937L16.365 65.6091C16.4356 65.9577 16.0829 66.132 16.2592 66.4108ZM18.5518 69.1645L18.3754 69.4085C18.1991 69.8267 17.67 70.2799 17.3173 70.3496L16.9646 70.4193C16.6119 70.5936 16.4356 70.3496 16.7177 70.001L17.5995 68.537L18.0227 69.1296L17.67 67.4914C17.67 67.5262 19.3277 67.8748 18.5518 69.1645ZM18.6223 63.1343L16.1887 64.0754C16.0123 63.9012 15.7655 63.7269 15.4833 63.7269C17.5642 61.2172 18.7281 58.5333 18.7281 55.2568L22.3256 56.895C22.2551 57.7664 21.9024 58.7076 21.3733 59.7533L20.3152 58.5333L20.0684 58.7773L21.197 60.1715C21.0206 60.4155 20.8443 60.6944 20.6679 60.9384L19.7862 59.823L19.5393 60.067L20.6679 61.1824C20.4211 61.4264 20.2447 61.6006 20.0684 61.8795L19.1866 60.8338L18.9397 61.0778L19.8215 62.1235C19.3982 62.5069 19.0455 62.8555 18.6223 63.1343ZM24.2302 60.9732C22.7489 61.4961 21.0912 62.1932 19.6804 62.7857C20.9148 61.3915 22.0435 59.9275 22.7489 57.1739L25.9937 58.6378L26.5227 58.8818L26.6991 59.1258L26.7696 59.1955H26.8401L27.2634 59.4395L24.2302 60.9732ZM26.7343 52.5728C26.6638 52.3289 26.558 51.7014 26.558 51.2832C26.7343 51.1089 26.8049 50.8649 26.9812 50.6906H27.863C28.1098 51.0392 28.392 51.3877 28.7447 51.7363C28.5684 52.0849 28.1451 52.782 27.863 53.1305L26.7343 52.5728ZM28.3215 53.27C28.3215 53.2003 28.4978 52.8517 28.4978 52.6774C28.6742 52.5031 28.7447 52.2591 28.9211 51.9803C29.4501 52.5728 30.0497 53.026 30.7551 53.3745C30.5082 53.5488 30.1555 53.9671 29.9791 54.0717L28.3215 53.27ZM31.1078 66.4108C30.5787 66.8291 29.9791 67.1079 29.3443 67.3519C29.1679 66.5851 29.0974 65.7834 29.0974 65.0166L32.7654 63.448C32.6949 63.692 32.5891 64.0406 32.5186 64.3194C31.7426 64.7726 31.2136 65.5394 31.1078 66.4108ZM33.9999 71.221C33.4708 70.8027 33.0476 69.9313 32.7654 69.3039C33.2945 69.7222 34.8464 69.7222 35.3049 69.3039C35.058 69.9313 34.5289 70.8027 33.9999 71.221ZM38.726 67.2822C38.1264 67.1079 37.4916 66.7594 36.9625 66.3411C36.892 65.4697 36.363 64.7029 35.5518 64.2846C35.3754 63.936 35.3049 63.5874 35.1991 63.1692L38.9729 64.9817C39.0787 65.6091 38.9024 66.4108 38.726 67.2822ZM38.197 54.1414C37.8443 53.8974 37.4916 53.6185 37.1389 53.3745C37.8443 53.026 38.4439 52.5031 38.9729 51.9803C39.1493 52.2243 39.2198 52.5031 39.3962 52.7471C39.4667 52.9911 39.5725 53.1654 39.5725 53.4443C39.1493 53.7231 38.6202 53.8974 38.197 54.1414ZM40.9833 52.6774C40.7364 52.8517 40.4542 52.9214 40.2074 53.0957C39.8547 52.6774 39.502 52.1546 39.2551 51.7014C39.6078 51.4574 39.7841 51.0043 40.031 50.6558V50.586H40.9833C41.0538 50.7603 41.2302 51.0043 41.4065 51.1786C41.336 51.806 41.1596 52.2243 40.9833 52.6774ZM41.7945 51.9106L42.0414 52.3288C41.9708 52.3986 41.7945 52.3986 41.6887 52.5031L41.7945 51.9106ZM44.6513 61.1475L44.1223 60.9035L43.9459 60.6595L43.8754 60.5898H43.8049L41.9708 59.7184C43.0289 59.3001 44.2281 58.847 45.4625 58.3241C46.1679 60.067 47.1202 61.6006 48.4252 62.8903L44.6513 61.1475ZM49.7302 70.2102L49.4833 70.0359C49.1306 69.8616 48.7074 69.4433 48.531 68.9902L48.4605 68.7462C47.7551 67.2822 49.5186 67.1079 49.5186 67.1079L48.9895 68.7462L49.5186 68.2233L50.1181 69.7919C50.2592 70.2102 50.0829 70.3844 49.7302 70.2102ZM56.2903 66.4108C56.4667 66.0622 56.8194 65.888 57.1721 66.0622L57.419 66.132C57.7717 66.3062 57.8422 66.6548 57.6659 67.0034L57.0663 68.3976C56.9957 68.5719 56.643 68.3976 56.4667 68.6416C55.7613 69.757 54.809 69.5827 54.809 69.5827L55.1617 68.7113L56.114 68.537L55.3381 68.3628L56.2903 66.4108ZM54.6327 65.0166L55.0559 65.1908C55.3028 65.2606 55.4086 65.6091 55.3028 65.888L54.7032 67.4565L53.4688 67.8748L54.1742 67.9445C53.9273 68.6416 53.4688 68.9902 52.9397 69.3387C52.9397 69.3387 52.587 68.2233 52.9397 67.4216L53.892 65.2606C53.9978 65.0166 54.3505 64.9468 54.6327 65.0166ZM53.2219 64.4937C53.3982 64.668 53.4688 64.7377 53.5746 65.0166L53.2219 64.8423C53.3277 64.7726 53.2219 64.5983 53.2219 64.4937ZM52.975 65.0166L52.0932 66.6548L51.3173 65.888L51.8464 67.1079L51.7758 67.2822L51.4231 68.1536C51.4231 68.1536 50.7177 67.1079 50.9999 66.2365C51.1762 65.888 50.8235 65.7137 50.9999 65.3651L51.5289 64.3194C51.7053 63.9709 52.058 63.7966 52.4107 63.9709L52.6576 64.1451C52.975 64.3194 53.1513 64.668 52.975 65.0166ZM52.7986 63.7966C52.7281 63.7966 52.7281 63.7966 52.7281 63.7966L52.4812 63.7269C51.8816 63.5526 51.4231 63.9012 51.2468 64.1451L50.1887 63.6223C49.4127 63.204 48.7779 62.6812 48.3547 62.0538L49.1306 61.1126L48.8837 60.8687L48.1078 61.7401C47.8609 61.5658 47.6845 61.3218 47.5082 61.0429L48.3899 59.9972L48.143 59.7533L47.3671 60.6944C47.1908 60.4504 47.0144 60.1715 46.8381 59.9275L47.8961 58.7076L47.6493 58.4636L46.697 59.579C46.4501 59.0561 46.1679 58.5333 45.9916 58.0104L49.4833 56.6162C49.6244 59.4047 50.8588 61.5658 52.7986 63.7966ZM49.6244 48.1112C49.5538 47.8672 49.5538 47.5187 49.448 47.1701C49.8007 47.3444 50.1534 47.5187 50.5061 47.693C50.2592 47.8324 49.9771 48.0067 49.6244 48.1112ZM50.9646 47.4838C48.6015 46.6124 46.8733 44.9742 45.1804 43.0919C45.1804 42.9176 45.2509 42.8479 45.2509 42.6736C45.9563 43.0919 46.8381 43.3708 47.614 43.3708C47.7903 43.3708 47.8609 43.3708 48.0372 43.3708H48.1078C49.4127 44.1376 50.6472 44.9393 52.0227 45.3576C52.3754 45.7061 52.6223 46.0547 52.9044 46.4033C52.3401 46.717 51.6347 47.0655 50.9646 47.4838ZM53.4688 46.1244C53.2924 45.9501 53.1161 45.7759 52.9397 45.6016C53.1866 45.6713 53.5393 45.7759 53.892 45.8456C53.7509 45.9501 53.6451 46.0199 53.4688 46.1244ZM56.3609 44.5559C55.7613 44.7999 55.1264 45.1484 54.5974 45.497C52.3401 45.253 50.4003 44.277 48.4957 43.0919V43.0222C48.4957 42.2554 48.0725 41.2794 47.5435 40.6868C49.8007 41.9068 51.8111 42.6039 53.8215 42.8479C54.8796 43.4405 55.8318 43.9633 56.3609 44.5559ZM59.253 41.9765C55.4086 43.0919 51.9874 42.4994 48.6015 40.8611C48.8484 40.8611 49.0248 40.8611 49.3069 40.8611C49.9065 40.8611 50.5414 40.8611 51.2115 40.6868L51.7405 40.6171L51.5642 40.3731C52.5165 40.5474 53.504 40.6171 54.4563 40.6171C55.3381 40.6171 56.114 40.6171 56.8899 40.4428C58.1244 40.7565 59.0061 41.1748 59.253 41.9765ZM60.7343 38.1772C58.9708 40.0943 55.4086 40.7565 51.282 39.9897C50.8588 39.4669 50.4003 39.0486 49.9771 38.7697C50.8588 38.8395 51.6347 38.8394 52.3401 38.8394C54.8795 38.8394 57.1368 38.3166 59.0766 37.4452C59.6762 37.5498 60.2053 37.8286 60.7343 38.1772ZM63.5206 32.9139C60.2053 38.0029 54.7032 39.0486 49.0953 38.2817H49.1659C50.2239 38.2817 51.5289 38.1075 53.0808 37.7589L53.6098 37.6892L53.363 37.2709C53.2924 37.0966 53.1161 36.9224 53.0103 36.7481C56.7841 36.5738 59.9231 35.1795 62.4625 32.7047C62.8505 32.7396 63.2737 32.8093 63.5206 32.9139ZM65.4605 28.0688C62.7447 33.1579 58.7239 36.1904 52.7986 36.4344C52.6223 36.2601 52.4459 36.1904 52.2696 36.0161C53.7509 35.6675 54.9854 34.9704 55.8671 34.0293C57.6306 33.5064 59.5351 32.5653 61.1928 31.2756C62.4273 30.3345 63.3795 29.2888 64.3318 28.2431C64.7551 28.1386 65.1783 28.0688 65.4605 28.0688ZM56.114 33.5761C56.1845 33.5064 56.1845 33.4019 56.2903 33.3321L56.8194 32.5653L55.9376 32.8093C55.4086 32.9836 54.6327 32.9836 53.8567 33.0533C55.2675 32.635 56.643 32.0076 57.6306 30.4739C60.0642 29.3585 62.5331 27.6157 64.0144 25.4546C64.5434 25.0363 65.143 24.5135 65.7779 23.9907C64.7551 28.4174 60.3111 32.2865 56.114 33.5761Z" fill="#6E7992"/>
</g>
<defs>
<clipPath id="clip0">
<rect width="68" height="74" fill="white" transform="translate(0 0.602051)"/>
</clipPath>
</defs>
</svg>
