<svg width="37" height="27" viewBox="0 0 37 27" fill="none" xmlns="http://www.w3.org/2000/svg">
<g clip-path="url(#clip0)">
<path d="M21.3748 24.8648H0.879342C0.40585 24.8648 0 24.4515 0 23.9694V0.895408C0 0.413265 0.40585 0 0.879342 0H33.3474C33.8208 0 34.2267 0.413265 34.2267 0.895408V21.0765L29.9653 13.5689C29.7623 13.2245 29.4241 13.0179 29.0183 13.0179C28.6124 13.0179 28.2742 13.2245 28.0713 13.5689L21.7806 24.6582V24.9337L21.3748 24.8648ZM0.879342 0.688775C0.744059 0.688775 0.676417 0.757653 0.676417 0.895408V23.9694C0.676417 24.0383 0.744059 24.176 0.879342 24.176H21.2395L27.4625 13.2245C27.8007 12.6735 28.3419 12.3291 28.9506 12.3291C29.5594 12.3291 30.1682 12.6735 30.4388 13.2245L33.415 18.5281V0.895408C33.415 0.757653 33.3474 0.688775 33.2121 0.688775H0.879342Z" fill="#349C54"/>
<path d="M33.8209 5.85449H0.338257V6.54327H33.8209V5.85449Z" fill="#349C54"/>
<path d="M7.7111 21.9718C7.10233 21.9718 6.56119 21.7652 6.0877 21.352C5.54657 20.8698 5.276 20.2499 5.276 19.5611C5.276 18.8724 5.54657 18.1836 6.0877 17.7014C6.49355 17.2882 7.10233 17.0815 7.64346 17.0815C8.99629 17.0815 10.0109 18.1836 10.0109 19.4923C10.0786 20.8698 8.99629 21.9718 7.7111 21.9718ZM7.7111 17.7703C7.30525 17.7703 6.8994 17.9081 6.56119 18.1836C6.15534 18.528 5.95242 19.0101 5.95242 19.4923C5.95242 19.9744 6.15534 20.4565 6.56119 20.8009C6.8994 21.0764 7.30525 21.2142 7.7111 21.2142C8.65808 21.2142 9.40214 20.4565 9.40214 19.4923C9.40214 18.528 8.65808 17.7703 7.7111 17.7703Z" fill="#349C54"/>
<path d="M4.93789 21.9718C3.58506 21.9718 2.57043 20.8698 2.57043 19.5611C2.57043 18.1836 3.6527 17.1504 4.93789 17.1504C5.54667 17.1504 6.0878 17.357 6.56129 17.7703L6.83186 18.0458L6.56129 18.3213C6.15544 18.6657 5.95252 19.1478 5.95252 19.63C5.95252 20.1121 6.15544 20.5943 6.56129 20.9387L6.83186 21.2142L6.56129 21.3519C6.0878 21.7652 5.54667 21.9718 4.93789 21.9718ZM4.93789 17.7703C3.99091 17.7703 3.24685 18.5279 3.24685 19.4922C3.24685 20.4565 3.99091 21.2142 4.93789 21.2142C5.2761 21.2142 5.54667 21.1453 5.81724 21.0075C5.47903 20.5943 5.2761 20.0432 5.2761 19.4922C5.2761 18.9412 5.47903 18.3902 5.81724 17.9769C5.54667 17.8392 5.2761 17.7703 4.93789 17.7703Z" fill="#349C54"/>
<path d="M4.93787 7.71436H2.09692V8.40313H4.93787V7.71436Z" fill="#349C54"/>
<path d="M8.52284 7.71436H5.68188V8.40313H8.52284V7.71436Z" fill="#349C54"/>
<path d="M11.9725 7.71436H9.13159V8.40313H11.9725V7.71436Z" fill="#349C54"/>
<path d="M31.1828 7.71436H13.0548V8.40313H31.1828V7.71436Z" fill="#349C54"/>
<path d="M35.2414 27H22.66C22.0512 27 21.4425 26.6556 21.1719 26.1046C20.9013 25.5536 20.8337 24.9337 21.1042 24.4516V24.3827L21.1719 24.3138L27.4626 13.2245C27.8008 12.6735 28.3419 12.3291 28.9507 12.3291C29.5595 12.3291 30.1682 12.6735 30.4388 13.2245L36.7295 24.3138C37.0677 24.8648 37.0677 25.5536 36.7295 26.1046C36.4589 26.6556 35.9178 27 35.2414 27ZM21.713 24.5893L21.6454 24.6582C21.4425 25.0026 21.4425 25.4158 21.6454 25.7602C21.8483 26.1046 22.1865 26.3112 22.5924 26.3112H35.2414C35.6472 26.3112 35.9854 26.1046 36.1883 25.7602C36.3913 25.4158 36.3913 25.0026 36.1883 24.6582L29.8977 13.5689C29.6947 13.2245 29.3565 13.0179 28.9507 13.0179C28.5448 13.0179 28.2066 13.2245 28.0037 13.5689L21.713 24.5893Z" fill="#349C54"/>
<path d="M28.9506 22.8675C28.7477 22.8675 28.6124 22.7298 28.6124 22.5231V15.7043C28.6124 15.4976 28.7477 15.3599 28.9506 15.3599C29.1536 15.3599 29.2888 15.4976 29.2888 15.7043V22.5231C29.2888 22.7298 29.1536 22.8675 28.9506 22.8675Z" fill="#349C54"/>
<path d="M28.9507 24.5204C29.2122 24.5204 29.4242 24.3046 29.4242 24.0383C29.4242 23.772 29.2122 23.5562 28.9507 23.5562C28.6892 23.5562 28.4772 23.772 28.4772 24.0383C28.4772 24.3046 28.6892 24.5204 28.9507 24.5204Z" fill="#349C54"/>
</g>
<defs>
<clipPath id="clip0">
<rect width="37" height="27" fill="white"/>
</clipPath>
</defs>
</svg>
