<svg width="75" height="75" viewBox="0 0 75 75" fill="none" xmlns="http://www.w3.org/2000/svg">
<g clip-path="url(#clip0)">
<path d="M23.6629 39.2969C23.2253 39.7657 22.8972 40.3788 22.3867 40.6673C21.22 41.3164 20.8554 41.2082 20.6001 39.91C20.4908 39.2969 20.7095 38.6478 20.7825 37.9987C20.746 38.0348 20.6001 38.1429 20.4543 38.2511C19.7251 38.7921 18.9594 38.9724 18.1208 38.6478C17.8291 38.5396 17.7197 38.3593 17.6833 38.0708C17.6468 37.2414 17.9385 36.5923 18.5583 36.0874C18.7406 35.9431 18.9594 35.7989 19.2876 35.5825C18.85 35.6186 18.5583 35.6546 18.2667 35.6546C17.3916 35.6546 16.1884 34.9334 16.1155 34.3564C16.079 33.8515 17.027 32.95 17.8656 32.7696C18.1937 32.6975 18.5219 32.6975 18.85 32.5533C18.7042 32.4811 18.5219 32.409 18.376 32.3369C17.5374 31.9763 16.9541 31.3632 16.7353 30.4617C16.6624 30.1732 16.7353 29.9568 16.9905 29.7765C17.7562 29.2355 18.5583 29.0913 19.4699 29.3437C19.6522 29.3798 19.8345 29.4158 20.0532 29.3798C19.9074 29.2716 19.7251 29.1995 19.5792 29.0913C18.449 28.4422 17.4281 27.6127 16.7353 26.4587C16.2613 25.6293 16.0425 24.7277 16.3707 23.7901C16.553 23.3213 16.9176 22.8886 17.2457 22.4558C17.9385 24.2229 19.324 25.2326 20.7095 26.2784C21.1471 26.603 21.5481 26.9275 21.9492 27.2882C22.9336 28.2619 23.043 29.1995 22.4961 30.4617C22.095 31.3632 21.7304 32.2648 21.5117 33.2024C21.2564 34.2843 21.694 35.2219 22.6055 35.9071C23.9181 36.8808 26.2516 37.025 27.6371 36.1595C28.0017 35.9431 28.2569 35.5464 28.5851 35.2579C28.6945 35.1498 28.8403 35.0776 28.9861 35.0776C29.0591 35.0776 29.1684 35.258 29.1684 35.3661C29.1684 37.2774 29.1684 39.1887 29.1684 41.1001C29.1684 41.1361 29.132 41.1722 29.0955 41.2443C27.8559 41.1001 27.0173 40.4149 26.5433 39.2609C26.5068 39.5494 26.4703 39.8379 26.4339 40.1264C26.288 40.8476 25.4859 41.7852 25.0484 41.7852C24.6108 41.7852 23.9181 40.9197 23.7722 40.1624C23.6993 39.8739 23.6993 39.5494 23.6629 39.2969Z" stroke="#6E7992" stroke-width="0.5" stroke-miterlimit="10"/>
<path d="M54.0712 37.8906C54.217 38.4676 54.3993 38.9004 54.4358 39.3692C54.5087 39.9822 54.3629 40.7035 53.816 40.9559C53.2326 41.2084 52.6127 40.8117 52.1752 40.3789C51.8471 40.0544 51.6283 39.6216 51.3001 39.1889C51.2637 39.4774 51.2637 39.7298 51.2272 39.9822C51.1908 40.6674 50.8626 41.2084 50.3157 41.6411C50.024 41.8935 49.7688 41.8575 49.4771 41.6411C48.8573 41.1723 48.5291 40.5592 48.4562 39.838C48.4562 39.6577 48.4197 39.5134 48.3468 39.2971C47.9093 40.5232 47.1071 41.1723 45.7946 41.3526C45.7946 39.2971 45.7946 37.2776 45.7946 35.0778C46.0133 35.1859 46.2685 35.222 46.3415 35.3663C47.4718 37.2415 51.3366 37.3136 52.8315 35.5105C53.6336 34.5729 53.5607 33.491 53.269 32.4091C53.0867 31.76 52.7586 31.147 52.4669 30.5339C51.8471 29.2356 51.9929 28.262 53.0503 27.3243C53.7795 26.6392 54.6181 26.0982 55.3838 25.4491C55.8578 25.0524 56.2953 24.6197 56.6964 24.1509C57.061 23.682 57.3162 23.1411 57.6443 22.6362C58.3736 23.0329 58.8476 24.0427 58.7017 25.0524C58.5559 26.3146 57.8631 27.2883 56.9151 28.0817C56.2953 28.6226 55.6025 29.0553 54.8004 29.6323C55.0556 29.5602 55.2015 29.5241 55.3473 29.4881C56.2588 29.2356 57.1339 29.3078 57.936 29.8848C58.1913 30.0651 58.3006 30.2815 58.1913 30.606C57.936 31.4715 57.4256 32.0485 56.6234 32.4091C56.4411 32.4813 56.2224 32.5534 56.0401 32.7698C56.2588 32.7698 56.4776 32.8058 56.6599 32.8058C57.535 32.8779 58.1913 33.3107 58.6288 34.068C58.8111 34.3565 58.7746 34.5729 58.5559 34.8253C57.936 35.5826 57.1704 35.8711 56.2224 35.7269C56.1494 35.7269 56.0765 35.6908 56.0036 35.6908C55.9307 35.6908 55.8578 35.6908 55.7484 35.7629C55.8942 35.8351 56.0036 35.9433 56.1494 36.0154C56.8787 36.5202 57.2797 37.2054 57.2797 38.107C57.2797 38.4676 57.0974 38.6479 56.7693 38.7561C55.9307 39.0446 55.2015 38.8643 54.5087 38.3594C54.4358 38.1791 54.2899 38.0349 54.0712 37.8906Z" stroke="#6E7992" stroke-width="0.5" stroke-miterlimit="10"/>
<path d="M41.1278 47.7717C41.5288 47.375 41.7841 47.1226 42.0393 46.8701C42.0758 46.9062 42.1122 46.9423 42.1487 46.9783C42.0393 47.2668 41.9664 47.5193 41.857 47.8078C41.8934 47.8438 41.9664 47.8438 42.0028 47.8799C42.2216 47.5193 42.4039 47.1586 42.6227 46.8341C42.6591 46.8341 42.6956 46.8341 42.6956 46.8701C42.6956 47.0865 42.6956 47.339 42.6956 47.5553C42.732 47.5553 42.7685 47.5553 42.805 47.5553C42.8779 47.375 42.9144 47.2308 42.9873 47.0144C43.3883 47.1226 43.5706 47.339 43.3519 47.6996C43.0967 48.1684 42.805 48.6372 42.5497 49.106C42.5497 49.1421 42.5133 49.1781 42.4768 49.1781C41.8205 49.1781 41.6747 49.7191 41.3465 50.1158C41.3465 50.0076 41.383 49.8633 41.383 49.7551C40.6902 49.5748 40.6538 50.1879 40.3256 50.5124C39.3047 51.5943 37.9921 51.6664 36.6431 51.5943C37.0442 51.1616 37.4452 50.7649 37.8098 50.3682C38.1015 50.0436 37.9557 49.3224 37.4817 48.9257C37.0077 48.493 36.3879 48.529 35.8045 48.6372C35.4399 48.7093 35.4399 49.2863 35.768 49.5027C35.8409 49.2863 35.9139 48.8536 35.9503 48.8536C36.3879 48.8536 36.8618 48.8896 37.2629 49.0699C37.6275 49.2142 37.6275 49.6469 37.4817 50.0076C37.4452 50.1158 37.3723 50.2239 37.2994 50.3321C36.6431 50.9091 35.8409 50.9813 35.0388 50.7649C34.346 50.5846 33.9085 50.0797 33.7627 49.3584C33.6533 48.8175 33.945 48.3126 34.5648 47.952C35.4399 47.4471 36.3514 47.4832 37.2994 47.6996C37.4817 47.7356 37.664 47.8078 37.8828 47.8438C38.2109 47.339 37.7369 47.1947 37.4088 46.8701C37.6275 46.8701 37.7734 46.8701 37.8828 46.8701C37.8463 46.762 37.8463 46.6898 37.8098 46.5816C38.612 46.7259 38.4297 47.375 38.539 47.952C38.6484 47.8799 38.7943 47.8078 38.8672 47.6996C38.9401 47.5914 38.9401 47.4111 39.013 47.1947C38.9401 47.1226 38.7943 47.0144 38.6849 46.9062C38.8672 46.5816 38.612 45.644 38.2838 45.3555C38.2109 45.2834 38.1015 45.1752 38.1015 45.1031C37.7734 44.0933 37.5181 43.0475 37.1171 42.0739C36.9348 41.605 36.4972 41.1723 36.1326 40.8117C35.8409 40.5232 35.768 40.1986 35.8774 39.838C36.1691 39.1167 35.8774 38.4316 35.8045 37.7103C35.8045 37.6382 35.6951 37.53 35.6222 37.4579C34.9659 37.0612 34.9294 36.4842 34.9294 35.799C34.9294 35.222 34.7836 34.645 34.7107 33.8877C34.82 34.1041 34.8565 34.2483 34.9294 34.3565C35.4399 35.0056 35.367 35.8351 35.6586 36.5563C35.9503 37.3136 36.1691 38.0709 36.4243 38.8282C37.2265 41.2084 37.9921 43.5885 38.8307 45.9325C38.9401 46.185 39.2318 46.4013 39.3412 46.6538C39.487 47.0144 39.6329 47.4471 39.6329 47.8078C39.6329 48.0602 39.6329 48.2045 39.9246 48.2405C40.1798 48.2766 40.4715 48.2766 40.5079 47.8799C40.5079 47.8438 40.5444 47.7717 40.5444 47.7356C40.2892 46.8341 40.0339 45.9325 39.7423 45.031C39.6693 44.8146 39.487 44.6343 39.4141 44.454C39.3047 44.2015 39.2683 43.877 38.8307 44.0933C38.7578 43.8048 38.7214 43.5885 38.6849 43.3721C38.7214 43.336 38.7214 43.3 38.7578 43.2639C39.487 43.0115 39.487 43.0115 39.3047 42.2181C39.1224 41.3526 38.7943 40.5592 38.2109 39.9101C37.8463 39.5495 38.0286 39.1528 38.138 38.8282C38.4661 37.7464 39.2683 37.0251 40.5809 36.953C41.0913 36.9169 41.5288 36.8448 41.9664 37.1694C42.5133 37.6021 42.6956 38.3955 42.4404 39.0446C42.2945 39.4413 42.1487 39.874 41.9299 40.2347C41.857 40.3789 41.6382 40.5592 41.4924 40.5592C41.2372 40.5592 41.0913 40.3789 41.0913 40.0544C41.1278 39.6937 41.0184 39.297 40.909 38.9364C40.5079 39.261 40.435 39.6577 40.5444 40.1265C40.7267 40.7756 40.8725 41.3887 41.0548 42.0739C41.0548 42.0739 41.1642 42.0739 41.2736 42.0739C41.7476 42.0739 42.1851 41.605 42.6591 42.0739C43.3519 42.759 43.8259 43.4442 43.5342 44.454C42.9508 44.2737 42.8779 44.1294 43.0237 43.5885C43.1331 43.1918 42.8414 42.5427 42.4768 42.3984C42.331 42.3624 42.1122 42.3984 42.0028 42.4705C41.5653 42.6869 41.1642 42.9393 40.7632 43.2278C40.6173 43.336 40.435 43.5885 40.435 43.7327C40.6173 45.1392 40.8725 46.4013 41.1278 47.7717Z" fill="#6E7992"/>
<path d="M36.9351 60.682C37.3361 60.682 37.7007 60.682 38.1383 60.682C38.3206 61.4033 38.5393 62.3048 38.7581 63.2064C39.1956 64.9013 39.6696 66.5602 40.0342 68.2551C40.253 69.2288 40.3259 70.2385 40.0707 71.2843C39.5602 71.2483 39.0498 71.2122 38.4664 71.1762C38.4664 71.9335 38.8675 72.5105 39.3779 73.0514C38.9769 73.7005 38.43 74.2415 37.7372 74.566C37.5914 74.6381 37.3361 74.6021 37.2268 74.4939C36.6798 74.0611 36.1694 73.5923 35.6954 73.2317C36.06 72.4744 36.3882 71.8613 36.7528 71.104C36.1694 71.1401 35.7683 71.1762 35.3672 71.2122C35.0391 71.2483 34.9297 71.104 34.8933 70.7795C34.7474 69.1206 35.112 67.4978 35.5496 65.911C35.9871 64.144 36.4611 62.3769 36.9351 60.682ZM37.4455 72.6547C38.1018 71.5368 38.0654 66.7765 37.4455 65.5144C37.2268 67.8945 36.7528 70.2025 37.4455 72.6547Z" fill="#6E7992"/>
<path d="M27.9295 63.7834C27.0909 62.5933 27.018 61.9442 27.6014 61.1508C29.2786 62.413 30.9558 62.1245 32.5965 61.1508C33.7633 60.4656 34.8571 59.6362 35.9874 58.8789C36.1697 59.1313 36.1332 59.3477 35.8415 59.6362C34.5654 60.8984 33.2893 62.1606 32.0131 63.4228C30.9193 64.4686 29.789 65.4422 29.0233 66.7405C28.1483 68.3272 28.5858 70.0222 30.0807 70.9598C30.1901 71.0319 30.263 71.104 30.3724 71.1762C29.5338 72.0777 27.966 72.3302 26.7263 71.8614C25.4502 71.3925 24.6845 70.3107 24.6116 69.0485C24.5751 67.6421 25.122 66.452 26.1065 65.4783C26.6898 64.8653 27.3097 64.3604 27.9295 63.7834ZM27.3097 70.2385C26.5805 68.0748 27.492 66.3438 28.7681 64.721C27.6743 65.5865 26.7992 66.5962 26.5075 67.9666C26.2888 68.8321 26.5075 69.6255 27.3097 70.2385ZM27.7472 61.9803C27.7472 62.7736 28.5494 63.1703 29.4609 62.8458C28.914 62.5933 28.2941 62.2688 27.7472 61.9803Z" fill="#6E7992"/>
<path d="M44.5548 71.1761C44.7007 71.104 44.81 71.0318 44.9194 70.9237C46.2685 70.0582 46.8154 68.4354 46.0497 67.0289C45.5393 66.1274 44.883 65.2979 44.1537 64.5767C42.8776 63.2784 41.5286 62.0884 40.216 60.8262C39.8149 60.4656 39.4868 59.9968 39.1221 59.6361C38.8669 59.3837 38.8305 59.1313 39.0492 58.8428C39.4868 59.2034 39.8878 59.564 40.3618 59.8886C41.1275 60.3935 41.8932 60.9344 42.6953 61.3671C44.2631 62.1966 45.8674 62.3769 47.3623 61.1868C47.9821 61.9081 47.9092 62.5933 47.0706 63.8194C47.5081 64.18 47.9457 64.5406 48.3467 64.9012C49.3676 65.8389 50.1333 66.9207 50.3156 68.3272C50.5708 70.527 48.7843 72.3301 46.5602 72.0416C45.8309 71.9695 45.1382 71.7531 44.5548 71.1761ZM47.654 70.2385C47.7269 70.2745 47.7634 70.2745 47.8363 70.3106C48.055 69.9139 48.3832 69.5172 48.4926 69.0845C48.8937 67.7862 47.7634 65.5864 46.4872 64.9012C46.8883 65.6586 47.3623 66.488 47.7269 67.3535C48.128 68.2911 48.0186 69.2648 47.654 70.2385ZM45.5393 62.8818C46.4143 63.2424 47.5081 62.6293 47.3258 61.9802C46.706 62.2687 46.1226 62.5572 45.5393 62.8818Z" fill="#6E7992"/>
<path d="M63.7703 19.607C63.5515 19.03 63.3692 18.6333 63.2233 18.2366C63.1869 18.1284 63.2234 17.9481 63.2963 17.876C65.3381 15.0631 67.0882 12.142 68.4737 8.96856C68.4737 8.96856 68.5102 8.9325 68.5466 8.9325C69.7498 9.65374 70.2968 10.8077 70.4061 12.142C70.552 14.2697 69.8228 16.145 68.4737 17.7678C66.9788 19.607 65.3016 21.1937 63.4421 22.6362C63.3692 22.6723 63.2963 22.7083 63.2598 22.7444C63.4057 22.0953 63.5515 21.4101 63.7338 20.761C63.7703 20.5806 63.989 20.4364 64.1349 20.2921C65.5568 19.03 66.7601 17.6235 67.2705 15.7843C67.3434 15.5319 67.3799 15.3155 67.4528 15.0631C67.4893 14.8828 67.4893 14.7025 67.5257 14.45C66.2496 16.181 65.0099 17.8399 63.7703 19.607Z" stroke="#6E7992" stroke-width="0.5" stroke-miterlimit="10"/>
<path d="M6.45341 8.89636C7.32847 10.5552 8.13061 12.178 9.04213 13.7648C9.84427 15.0991 10.7193 16.3973 11.5944 17.6956C11.7767 17.948 11.8132 18.1644 11.6673 18.4529C11.485 18.7775 11.4121 19.1381 11.2662 19.5708C10.6099 18.7053 9.95365 17.8759 9.33382 17.0465C8.71399 16.217 8.16707 15.3515 7.5837 14.486C7.54724 14.486 7.51078 14.5221 7.43786 14.5221C7.5837 15.0991 7.65662 15.6761 7.87539 16.2531C8.45876 17.8759 9.55259 19.1741 10.8287 20.2921C11.1204 20.5445 11.3027 20.7969 11.3392 21.1936C11.4121 21.6985 11.5944 22.2034 11.7767 22.8525C11.1204 22.3116 10.5006 21.8428 9.99012 21.3379C8.85983 20.256 7.72954 19.1741 6.70864 17.9841C5.17728 16.217 4.33868 14.1254 4.63037 11.7453C4.81267 10.5192 5.39605 9.50942 6.45341 8.89636Z" stroke="#6E7992" stroke-width="0.5" stroke-miterlimit="10"/>
<path d="M30.2989 71.7892C30.5541 71.5368 30.8094 71.3204 31.1011 71.0319C30.8094 70.8876 30.5541 70.7795 30.2989 70.6713C29.8249 70.4188 29.6426 70.0582 29.6791 69.5173C29.8249 68.183 30.2989 66.9568 31.1011 65.875C32.1949 64.4325 33.3981 63.0621 34.5648 61.6917C35.1118 61.0426 35.7316 60.4296 36.4243 59.6722C36.4243 59.9968 36.4973 60.2492 36.4243 60.4295C35.841 61.9081 35.1847 63.3506 34.6013 64.8652C34.1638 66.0553 33.7992 67.2453 33.4345 68.4354C33.3252 68.76 33.3616 69.0845 33.3981 69.4451C33.5075 70.8876 34.1638 71.7892 35.8045 71.5728C35.8774 71.5728 35.9868 71.5728 36.0597 71.5728C35.9139 72.4744 35.1482 73.1596 34.0908 73.3759C32.5959 73.6644 31.1011 73.0874 30.2989 71.7892ZM32.5595 65.9471C30.8094 67.7502 30.8458 70.8155 32.5959 71.5007C31.174 69.6976 32.0126 67.8584 32.5595 65.9471Z" fill="#6E7992"/>
<path d="M43.8989 71.0319C44.1906 71.3204 44.4458 71.5368 44.701 71.7532C43.9718 72.9793 42.4405 73.6284 40.9456 73.376C39.8153 73.1596 39.0496 72.4744 38.9038 71.5729C39.0861 71.5729 39.2684 71.5729 39.4142 71.6089C40.6539 71.645 41.4196 70.9959 41.529 69.7698C41.6748 68.4715 41.3467 67.2454 40.8362 66.0553C40.0705 64.1801 39.2684 62.3409 38.5392 60.4657C38.4662 60.2853 38.5027 60.069 38.4662 59.8526C38.5027 59.8526 38.5756 59.8165 38.6121 59.8165C39.4872 60.7542 40.3622 61.6918 41.2008 62.6294C42.4769 63.9998 43.7531 65.3701 44.5187 67.1011C44.8834 67.8945 45.0292 68.76 45.248 69.5894C45.3938 70.1664 45.0657 70.491 44.5552 70.7434C44.4094 70.8156 44.1906 70.8877 43.8989 71.0319ZM42.4769 65.9471C42.6957 66.8848 42.9874 67.8224 43.1332 68.7961C43.2791 69.7698 43.0603 70.7074 42.3311 71.6089C44.5552 70.5271 43.826 67.5339 42.4769 65.9471Z" fill="#6E7992"/>
<path d="M73.8328 17.3711C73.6869 18.3808 73.3588 19.2103 72.8483 19.9315C72.4108 20.5446 71.9368 21.1576 71.3899 21.6625C69.4939 23.3214 67.3063 24.5114 65.0092 25.5933C64.9728 25.5212 64.9728 25.4851 64.9728 25.4491C64.9728 25.3048 65.0092 25.1606 65.0092 24.9803C64.8634 24.9081 64.6811 24.8721 64.4623 24.7639C66.2125 23.6099 68.1084 22.6362 69.3481 20.6888C69.0199 20.8331 68.8012 20.9052 68.5824 20.9773C66.9417 21.6986 65.5926 22.7804 64.28 23.9344C63.6602 24.4393 63.1133 24.9442 62.2382 24.7639C62.2747 24.6918 62.3476 24.5836 62.4205 24.5114C64.2436 22.492 66.2125 20.6888 68.473 19.1742C69.7856 18.2727 71.1711 17.6596 72.7754 17.4432C73.0671 17.3711 73.4317 17.3711 73.8328 17.3711Z" stroke="#6E7992" stroke-width="0.5" stroke-miterlimit="10"/>
<path d="M1.1665 17.2628C2.07803 17.4431 2.91663 17.5513 3.71876 17.7677C5.21366 18.2004 6.48979 19.0659 7.72946 20.0036C9.58896 21.41 11.2662 22.9967 12.834 24.7638C11.6672 24.7277 11.7037 24.7277 10.8651 24.0425C9.5525 22.9607 8.27637 21.8788 6.70856 21.1215C6.41687 20.9772 6.08872 20.8691 5.76057 20.7969C6.8544 22.6722 8.75036 23.6098 10.5369 24.7638C10.3911 24.7999 10.3182 24.8359 10.2453 24.8359C10.1723 24.872 10.0994 24.908 9.99003 24.9441C10.0265 25.1244 10.0265 25.3047 10.063 25.5572C8.27637 24.7998 6.59917 23.8983 5.06782 22.7443C4.15629 22.0591 3.28123 21.2657 2.51556 20.4002C1.78634 19.6069 1.34881 18.5611 1.1665 17.2628Z" stroke="#6E7992" stroke-width="0.5" stroke-miterlimit="10"/>
<path d="M0 24.259C0.729217 24.1147 1.34905 23.9344 2.00535 23.8984C3.28148 23.7902 4.52115 23.9705 5.72436 24.3672C6.85464 24.7639 7.94847 25.2327 9.11522 25.6293C10.0632 25.9539 10.7195 26.5309 11.0476 27.3603C9.47983 26.8915 7.83909 26.3867 6.23481 25.9178C5.83374 25.8097 5.43267 25.8457 4.95868 25.8818C5.10452 25.99 5.2139 26.0982 5.35975 26.2063C6.67234 27.144 8.2037 27.4685 9.73505 27.8652C10.282 28.0095 10.8289 28.0455 11.3393 28.2258C11.9956 28.4422 12.6155 28.7307 13.2353 29.0192C13.2353 29.0913 13.1988 29.1635 13.1988 29.2356C12.6884 29.2356 12.2144 29.2716 11.7039 29.2356C9.29752 29.0913 6.96403 28.6225 4.70345 27.9013C3.20856 27.4325 1.89597 26.6752 0.875061 25.449" stroke="#6E7992" stroke-width="0.5" stroke-miterlimit="10"/>
<path d="M63.9525 27.4685C64.3171 26.5669 64.9734 26.026 65.8849 25.6653C67.635 24.9802 69.3851 24.2228 71.2811 23.9704C72.5208 23.7901 74.0886 23.9704 74.8907 24.4032C74.3073 25.5211 73.4688 26.3145 72.4114 26.9996C71.1717 27.793 69.7497 28.1536 68.3642 28.5143C66.3953 29.0191 64.4265 29.3076 62.3846 29.3076C62.2023 29.3076 62.0565 29.3076 61.8742 29.3076C61.8377 29.2355 61.8377 29.1995 61.8013 29.1273C62.3846 28.8749 62.9316 28.5503 63.5149 28.37C65.0098 27.9373 66.5776 27.6127 68.0725 27.1078C68.8018 26.8554 69.4581 26.4227 70.1143 25.9538C69.0205 25.8817 67.9632 26.0981 66.9423 26.4587C65.9214 26.7472 64.9369 27.1078 63.9525 27.4685Z" stroke="#6E7992" stroke-width="0.5" stroke-miterlimit="10"/>
<path d="M31.4289 18.8136C31.5383 19.2103 31.6112 19.5348 31.7206 20.0037C31.1008 19.607 30.6268 19.2824 30.0799 18.9218C30.2986 19.4267 30.4809 19.8233 30.6632 20.2561C30.6268 20.2922 30.5903 20.3282 30.5538 20.3643C29.9705 20.0037 29.3871 19.643 28.7673 19.2464C28.9496 19.6791 29.0954 20.1118 29.2777 20.5446C29.2413 20.5807 29.2048 20.6167 29.2048 20.6528C28.585 20.2922 28.0016 19.9676 27.2724 19.5348C27.5641 20.0758 27.8193 20.5085 28.111 21.0855C25.9598 19.9676 24.5743 18.3809 23.918 16.0368C27.3818 16.5056 30.7362 16.5777 34.127 16.0007C33.9082 16.5056 33.9082 16.5056 32.0852 17.4432C32.6686 17.4432 33.252 17.4432 33.7989 17.4432C33.8353 17.4793 33.8353 17.5154 33.8718 17.5514C33.4343 17.876 32.9603 18.2005 32.4863 18.5251C33.5436 19.2824 34.7104 19.7873 36.0594 19.8594C34.7468 20.761 33.2155 20.4003 31.4289 18.8136ZM28.2568 17.6235C28.2568 17.5875 28.2568 17.5514 28.2933 17.5514C27.4182 17.4793 26.5432 17.4432 25.5587 17.3711C25.741 17.8039 25.9233 18.1284 26.0327 18.4169C26.8348 18.1284 27.5641 17.876 28.2568 17.6235Z" stroke="#6E7992" stroke-width="0.5" stroke-miterlimit="10"/>
<path d="M47.0347 20.9773C47.2899 20.5085 47.5451 20.0397 47.8368 19.4988C47.1441 19.9315 46.5242 20.2922 45.9044 20.6888C45.8679 20.6528 45.8315 20.6167 45.7586 20.5807C45.9044 20.1479 46.0867 19.7152 46.269 19.2463C45.6492 19.643 45.1023 20.0037 44.5553 20.3643C44.5189 20.3282 44.446 20.2922 44.4095 20.2561C44.5918 19.8233 44.7741 19.3906 44.9564 18.9218C44.446 19.2824 43.972 19.607 43.498 19.9315C43.4615 19.8955 43.4251 19.8955 43.3886 19.8594C43.4615 19.5348 43.5344 19.1742 43.6438 18.7415C42.3677 20.22 40.9093 20.6888 39.1227 19.9676C40.4353 19.8233 41.602 19.3185 42.6594 18.5612C42.1854 18.2366 41.7114 17.912 41.2739 17.5875C41.2739 17.5514 41.3103 17.5154 41.3103 17.4793C41.8937 17.4793 42.4771 17.4793 43.0605 17.4793C42.2948 17.0465 41.4562 16.7941 40.9457 16.0007C44.373 16.5777 47.7639 16.5417 51.1548 16.0368C50.8266 18.1284 48.5296 20.5807 47.0347 20.9773ZM46.7065 17.5514C46.7065 17.5875 46.7065 17.6235 46.7065 17.6235C47.4358 17.876 48.1285 18.1284 48.9671 18.3808C49.0765 18.1284 49.2223 17.7678 49.4411 17.335C48.4567 17.4432 47.5816 17.4793 46.7065 17.5514Z" stroke="#6E7992" stroke-width="0.5" stroke-miterlimit="10"/>
<path d="M0.874901 29.4519C2.44272 28.7307 4.08346 28.6225 5.76066 28.8389C7.25555 29.0552 8.71399 29.3437 10.2453 29.6322C9.88073 29.9568 9.62551 30.2092 9.29736 30.4256C9.22444 30.4977 9.07859 30.4256 8.93275 30.4256C8.05769 30.3535 7.18263 30.2453 6.30757 30.2092C5.94296 30.1732 5.54189 30.2813 5.10436 30.4256C5.28666 30.5338 5.46897 30.642 5.68773 30.7141C6.96386 31.255 8.34938 31.2911 9.69843 31.4714C9.99012 31.5075 10.3183 31.6517 10.61 31.796C11.011 32.0123 11.4121 32.3008 11.8496 32.5893C10.9016 32.5893 9.99012 32.6254 9.11505 32.5893C7.40139 32.4451 5.65127 32.373 3.93761 32.0845C2.47918 31.832 1.23951 31.0387 0.255066 29.8486" stroke="#6E7992" stroke-width="0.5" stroke-miterlimit="10"/>
<path d="M63.0772 32.6615C63.697 32.2287 64.1346 31.9041 64.6086 31.6156C64.7909 31.5075 65.0096 31.4714 65.1919 31.4353C66.541 31.2911 67.9265 31.255 69.2026 30.7141C69.4214 30.6059 69.6402 30.5338 70.0048 30.3535C68.4734 29.9928 67.1244 30.2453 65.8118 30.4256C65.4472 30.1731 65.119 29.9207 64.7179 29.6322C67.1608 29.1273 69.4943 28.4782 71.9372 28.7667C72.9216 28.8749 73.8696 29.1634 74.7447 29.7404C73.8696 30.8583 72.7393 31.5796 71.4267 31.9041C70.4423 32.1566 69.4579 32.3008 68.437 32.373C66.7233 32.5893 64.9732 32.5893 63.0772 32.6615Z" stroke="#6E7992" stroke-width="0.5" stroke-miterlimit="10"/>
<path d="M1.27594 34.7171C2.47915 33.6713 3.8282 33.1664 5.28664 33.0943C7.40137 32.9861 9.5161 33.0582 11.6673 33.1664C10.9381 33.6713 10.3547 34.3204 9.29733 34.1762C7.8389 33.9958 6.74507 34.2843 5.97939 34.645C6.89091 35.0417 7.87536 35.1498 8.78688 35.0056C9.6984 34.8253 10.1724 35.3662 10.9016 35.8711C8.45873 36.2317 6.1617 36.7366 3.79174 36.1235C2.84376 35.835 2.00516 35.4383 1.27594 34.7171Z" stroke="#6E7992" stroke-width="0.5" stroke-miterlimit="10"/>
<path d="M68.984 34.5007C68.3277 34.3925 67.6714 34.2843 67.0516 34.1761C66.6505 34.1401 66.213 34.0679 65.8484 34.1401C64.791 34.3925 64.1347 33.7073 63.2232 33.1664C65.9942 33.0943 68.6559 32.6615 71.2811 33.3828C72.1926 33.6352 73.0312 34.0319 73.7604 34.7171C72.9218 35.5465 71.9374 35.9792 70.8071 36.1956C69.2028 36.5562 67.635 36.3399 66.0672 36.1595C65.4473 36.0874 64.8639 35.9792 64.1712 35.8711C64.8639 35.3662 65.3744 34.8252 66.2859 35.0416C67.1974 35.2219 68.109 35.0777 68.984 34.7171C68.984 34.6449 68.984 34.5728 68.984 34.5007Z" stroke="#6E7992" stroke-width="0.5" stroke-miterlimit="10"/>
<path d="M3.28143 39.5494C3.90127 39.0085 4.44818 38.4676 5.10448 38.0348C6.41707 37.1333 7.98489 36.8448 9.5527 36.5563C10.209 36.4481 10.8653 36.3399 11.5581 36.2678C11.7039 36.2317 11.8497 36.2317 11.9956 36.2678C12.7613 36.376 13.5634 36.4841 14.402 36.5923C14.1468 36.6645 13.928 36.7366 13.7092 36.7726C12.1414 37.1333 10.5371 37.4578 8.96933 37.8184C8.5318 37.9266 8.16719 38.2151 7.76612 38.4676C8.67764 38.6479 9.5527 38.5036 10.4278 38.2873C11.2664 38.0709 12.1414 37.8185 13.0165 37.566C12.506 38.3233 12.032 39.0446 11.0841 39.3331C9.66209 39.7298 8.27657 40.3428 6.78168 40.4149C5.54201 40.4149 4.44818 40.2346 3.28143 39.5494Z" stroke="#6E7992" stroke-width="0.5" stroke-miterlimit="10"/>
<path d="M60.5613 36.5562C61.5093 36.412 62.2749 36.2317 63.0771 36.2317C63.8792 36.2317 64.6814 36.3399 65.447 36.5202C66.7232 36.8087 67.9993 37.1332 69.2025 37.6021C70.1869 37.9627 71.0255 38.6479 71.6454 39.5855C70.3328 40.3428 68.9108 40.5231 67.4888 40.1986C66.0669 39.874 64.6449 39.3331 63.2594 38.8642C63.1135 38.8282 62.9677 38.6839 62.8583 38.5397C62.6031 38.1791 62.3479 37.8184 62.0562 37.4217C63.8063 37.9266 65.4835 38.5757 67.343 38.3594C67.1607 38.2512 67.0149 38.143 66.8325 38.0709C65.3377 37.3136 63.7334 37.0251 62.0926 36.8087C61.6551 36.7726 61.1811 36.6644 60.5613 36.5562Z" stroke="#6E7992" stroke-width="0.5" stroke-miterlimit="10"/>
<path d="M35.4761 5.50659C35.8771 7.52609 36.3147 9.50952 36.7157 11.5651C35.8771 11.7093 35.075 11.8175 34.1999 11.9618C33.5436 10.6635 32.8144 9.32921 32.705 7.77852C32.6686 7.23759 32.8874 6.76878 33.2884 6.37209C33.7624 5.90328 34.7469 5.50659 35.4761 5.50659Z" stroke="#6E7992" stroke-width="0.5" stroke-miterlimit="10"/>
<path d="M39.5599 5.32629C40.2527 5.61479 40.8725 5.83117 41.4194 6.15573C42.258 6.6606 42.5133 7.49004 42.258 8.35553C41.8934 9.61772 41.383 10.8078 40.9454 11.9978C39.961 11.8536 39.1589 11.7093 38.3203 11.5651C38.7213 9.54559 39.1224 7.5261 39.5599 5.32629Z" stroke="#6E7992" stroke-width="0.5" stroke-miterlimit="10"/>
<path d="M15.9696 39.874C14.7664 40.7035 13.5997 41.605 12.3964 42.3984C11.412 43.0475 10.3911 43.5885 9.22435 43.8048C8.34929 43.9491 7.51069 43.9852 6.52625 43.6606C6.85439 43.1557 7.10962 42.6148 7.47423 42.182C8.53159 40.8477 10.0265 40.1625 11.5214 39.4774C11.5943 39.4413 11.7402 39.4413 11.8131 39.4774C12.1048 39.6216 12.3964 39.7659 12.6881 39.9101C11.886 40.451 11.0474 41.028 10.1723 41.569C10.2088 41.6411 10.2453 41.7132 10.2817 41.7854C10.6463 41.6772 11.0474 41.6411 11.3755 41.4969C11.886 41.2805 12.36 41.028 12.834 40.7756C13.308 40.5232 13.782 40.1986 14.2924 40.0183C14.8029 39.838 15.3498 39.8019 15.8967 39.7298C15.8967 39.8019 15.9332 39.838 15.9696 39.874Z" stroke="#6E7992" stroke-width="0.5" stroke-miterlimit="10"/>
<path d="M64.8277 41.6771C64.4266 41.3526 64.0256 41.028 63.588 40.7395C63.1505 40.451 62.713 40.2346 62.2755 39.9822C62.6036 39.8019 62.8953 39.6576 63.187 39.5134C63.2599 39.4773 63.3693 39.4773 63.4422 39.5134C65.0829 40.2346 66.6872 40.9919 67.781 42.5426C68.0363 42.9032 68.2186 43.2999 68.4738 43.7327C67.38 44.0933 66.3591 44.0572 65.3382 43.7327C63.4787 43.1557 61.9108 42.0377 60.3795 40.8837C59.942 40.5592 59.5409 40.1986 59.0669 39.7658C60.2336 39.9822 61.291 40.1625 62.2025 40.8116C62.9317 41.3165 63.8068 41.7132 64.8277 41.6771Z" stroke="#6E7992" stroke-width="0.5" stroke-miterlimit="10"/>
<path d="M61.5462 21.3018C60.7076 22.1673 59.9419 22.9967 59.1033 23.8622C58.8845 23.4295 58.7022 23.1049 58.5199 22.7443C60.0513 21.3378 61.3639 19.7511 62.3483 17.8759C63.1869 18.7774 63.3327 19.7872 63.2234 20.9051C63.114 22.023 62.64 22.9967 61.9472 23.8622C60.9628 25.0523 59.8325 26.026 58.5199 26.8554C58.9939 26.0981 58.9574 25.1605 59.8325 24.5113C60.9263 23.6458 61.3639 22.6361 61.5462 21.3018Z" stroke="#6E7992" stroke-width="0.5" stroke-miterlimit="10"/>
<path d="M16.5166 26.8914C15.0946 25.8817 13.8549 24.872 12.8705 23.5376C11.886 22.2033 11.485 20.7248 11.9225 19.102C12.0319 18.6692 12.3236 18.2725 12.5788 17.8759C13.6726 19.715 14.9487 21.3018 16.4801 22.7082C16.2978 23.0688 16.1155 23.4295 15.8967 23.8622C15.0946 22.9967 14.2924 22.2033 13.3809 21.2657C13.4903 21.7345 13.5632 22.0952 13.6726 22.4197C14.0372 23.3934 14.6935 24.1507 15.4957 24.8359C15.7144 25.0162 15.8603 25.2686 15.9696 25.5211C16.1884 25.9178 16.3343 26.3505 16.5166 26.8914Z" stroke="#6E7992" stroke-width="0.5" stroke-miterlimit="10"/>
<path d="M16.2615 30.1011C13.928 29.0193 11.3757 28.1898 10.5007 25.3048C11.4851 25.0524 12.3966 25.1606 13.3082 25.4491C14.876 25.99 16.1156 27.0358 17.3918 28.0456C17.7199 28.298 18.0116 28.5865 18.3033 28.8389C17.4282 29.1996 17.4647 29.1635 16.7355 28.6947C15.8969 28.1177 14.9854 27.6128 14.1103 27.1079C13.8915 26.9998 13.5998 26.9637 13.2352 26.8555C13.7092 27.6128 14.2926 28.0095 14.9489 28.3701C15.5687 28.7308 16.225 29.0553 16.9178 29.3799C16.699 29.6323 16.4803 29.8487 16.2615 30.1011Z" stroke="#6E7992" stroke-width="0.5" stroke-miterlimit="10"/>
<path d="M58.8839 30.029C58.5557 29.7765 58.3005 29.6323 58.0453 29.452C59.3579 28.7307 60.7799 28.2619 61.6549 27.0358C61.6185 26.9998 61.6184 26.9276 61.582 26.8916C61.108 27.0719 60.5975 27.2161 60.16 27.4686C59.5037 27.8292 58.8839 28.2259 58.3005 28.6947C57.7901 29.1274 57.3161 29.3077 56.5869 28.8389C56.7327 28.7307 56.915 28.6226 57.0973 28.4783C58.2276 27.6489 59.3214 26.7473 60.5246 25.99C61.6914 25.2327 63.0404 25.0163 64.4989 25.3048C63.6238 28.1898 61.0715 29.0192 58.8839 30.029Z" stroke="#6E7992" stroke-width="0.5" stroke-miterlimit="10"/>
<path d="M11.0843 46.9783C11.3031 43.949 13.5272 42.3984 15.569 40.6674C15.4596 41.5689 15.2044 42.2902 14.5845 42.8672C14.1835 43.2278 13.9647 43.7327 13.6366 44.1654C13.673 44.2015 13.7459 44.2736 13.7824 44.3097C14.1835 44.0212 14.6575 43.8408 14.9127 43.4802C15.4596 42.795 16.1888 42.795 17.0639 42.7229C15.4596 44.6703 14.0376 46.798 11.0843 46.9783Z" stroke="#6E7992" stroke-width="0.5" stroke-miterlimit="10"/>
<path d="M63.9524 46.9783C60.9626 46.798 59.5771 44.6703 57.9728 42.6869C58.4833 42.723 58.8844 42.759 59.249 42.8312C59.3948 42.8672 59.5407 43.0115 59.6865 43.0836C60.197 43.4803 60.7074 43.913 61.2179 44.3097C61.2908 44.2736 61.3272 44.2015 61.4002 44.1655C61.072 43.6967 60.7803 43.1557 60.3793 42.759C59.7594 42.2181 59.5771 41.5329 59.4677 40.6313C61.5095 42.4345 63.6607 43.9852 63.9524 46.9783Z" stroke="#6E7992" stroke-width="0.5" stroke-miterlimit="10"/>
<path d="M19.2153 7.5982C19.9809 7.38183 20.6737 7.41789 21.33 7.70639C21.4758 7.77852 21.5852 8.10308 21.5852 8.28339C21.5123 8.86039 21.4029 9.40132 21.2206 9.94226C21.0018 10.5914 20.6737 11.2044 20.4185 11.8175C20.0174 12.7912 20.1997 13.6567 21.0018 14.3419C21.5852 14.8467 22.2415 15.2795 22.8249 15.8565C21.9863 15.568 21.1112 15.3156 20.3091 14.9189C18.8871 14.1976 18.4131 13.0076 18.8142 11.4929C18.96 11.0241 19.1059 10.5553 19.2882 10.0865C19.5434 9.29314 19.6528 8.4637 19.2153 7.5982Z" fill="#6E7992"/>
<path d="M52.2484 15.7483C52.9046 15.2434 53.488 14.8828 53.9985 14.45C54.91 13.6206 55.0923 12.8993 54.6183 11.7814C54.3631 11.1323 53.9985 10.5192 53.7797 9.87009C53.5974 9.32915 53.5609 8.71609 53.488 8.1391C53.488 7.99485 53.5974 7.77847 53.7432 7.74241C54.3995 7.48997 55.0558 7.41785 55.8215 7.63422C55.3111 8.60791 55.6028 9.50947 55.8944 10.4471C56.1132 11.1323 56.2955 11.8535 56.3684 12.5748C56.4414 13.2239 56.1861 13.8009 55.7486 14.2336C54.8371 15.1713 53.6339 15.4958 52.2484 15.7483Z" fill="#6E7992"/>
<path d="M59.3952 48.565C57.2804 47.988 56.1866 46.3652 55.3845 44.7785C55.6032 44.3096 55.7491 43.913 55.9314 43.5884C56.4418 44.2736 56.9887 44.9948 57.5357 45.7161C57.6086 45.68 57.718 45.6079 57.7909 45.5718C57.4627 44.8866 57.0981 44.2015 56.77 43.5163C56.4054 42.8671 55.7491 42.3623 55.7855 41.5328C57.6815 42.4705 58.593 44.1654 59.2858 46.0046C59.5775 46.7619 59.6868 47.6274 59.3952 48.565Z" stroke="#6E7992" stroke-width="0.5" stroke-miterlimit="10"/>
<path d="M17.4648 45.68C18.0117 44.9588 18.5586 44.2015 19.0691 43.5523C19.2149 43.8769 19.3608 44.2736 19.5795 44.7785C18.7774 46.4013 17.72 47.988 15.5688 48.565C15.2771 47.0504 15.6418 45.7161 16.371 44.49C17.0637 43.2999 17.7929 42.1098 19.2878 41.5328C19.142 41.8935 19.0691 42.218 18.9232 42.5065C18.4492 43.336 17.9753 44.1293 17.5013 44.9588C17.3919 45.1391 17.3919 45.3915 17.319 45.6079C17.3554 45.6079 17.4283 45.644 17.4648 45.68Z" stroke="#6E7992" stroke-width="0.5" stroke-miterlimit="10"/>
<path d="M57.1339 32.3731C57.5714 32.2288 57.8631 32.0485 58.1912 32.0124C59.2121 31.8321 60.2695 31.7239 61.2904 31.5076C61.6185 31.4354 61.9102 31.2551 62.1654 31.0387C60.7799 30.7142 59.5403 31.2191 58.2641 31.5436C58.5194 30.4978 58.5558 30.4978 59.5403 30.2093C60.7799 29.8848 62.0196 29.452 63.3322 29.7766C63.9156 29.9208 64.4989 30.1372 65.0823 30.3536C64.025 32.337 59.5038 33.527 57.1339 32.3731Z" stroke="#6E7992" stroke-width="0.5" stroke-miterlimit="10"/>
<path d="M17.8663 32.3008C16.9913 32.95 16.2256 32.8778 15.4599 32.7696C14.3661 32.5893 13.2723 32.4811 12.2514 32.1926C11.3034 31.9402 10.5377 31.2911 9.95435 30.4617C11.2305 29.7043 12.5431 29.524 13.9286 29.8125C14.439 29.9207 14.913 30.101 15.4235 30.1732C16.1891 30.3174 16.6996 30.678 16.809 31.5075C15.5329 31.219 14.2932 30.678 12.9077 30.9665C12.9077 31.0026 12.8712 31.0747 12.8712 31.1108C13.3817 31.2911 13.8921 31.5435 14.439 31.6517C15.2047 31.796 16.0068 31.832 16.809 31.9763C17.0642 32.0484 17.3924 32.1566 17.8663 32.3008Z" stroke="#6E7992" stroke-width="0.5" stroke-miterlimit="10"/>
<path d="M11.9956 14.8467C12.1414 14.45 12.2508 14.0533 12.4331 13.7648C13.1988 12.6108 13.1988 12.2502 12.3967 11.1683C11.5581 10.0143 11.7039 9.68976 13.0894 9.3652C13.3811 9.29307 13.7093 9.25701 13.8916 9.22095C14.2197 10.0143 14.4385 10.7356 14.7666 11.4208C15.2771 12.4666 15.35 13.4402 14.7666 14.4861C14.3656 15.1352 14.402 15.8564 14.6208 16.5777C13.454 15.7122 13.527 14.6303 13.8551 13.4042C13.3082 13.8369 12.6884 14.2697 11.9956 14.8467Z" fill="#6E7992"/>
<path d="M61.1081 13.3321C61.5092 14.5222 61.5457 15.604 60.4154 16.5777C60.4154 16.3974 60.4154 16.2532 60.4519 16.181C60.5977 15.568 60.5612 14.991 60.2331 14.45C59.6133 13.4403 59.6862 12.4666 60.1966 11.4569C60.5612 10.7717 60.78 10.0144 61.1446 9.18494C61.5821 9.29312 62.129 9.43737 62.7124 9.58162C63.1135 9.68981 63.2229 10.0144 63.077 10.375C62.9676 10.6635 62.7853 10.952 62.603 11.2044C61.8738 12.2502 61.8374 12.6469 62.603 13.7288C62.8218 14.0534 63.0406 14.3779 62.9312 14.7746C62.2749 14.2697 61.6915 13.8009 61.1081 13.3321Z" fill="#6E7992"/>
<path d="M16.6994 35.6186C13.6732 36.3038 11.7408 36.0514 10.3188 34.8253C11.996 33.0221 14.1836 33.0582 16.4078 33.1664C16.1525 33.8516 15.7515 34.2122 14.9493 34.2122C14.3659 34.2122 13.7826 34.3925 13.1992 34.5007C13.1992 34.5728 13.1992 34.681 13.1992 34.7531C13.7461 34.7892 14.3295 34.9335 14.8764 34.8253C15.6421 34.7531 16.2984 34.8253 16.6994 35.6186Z" stroke="#6E7992" stroke-width="0.5" stroke-miterlimit="10"/>
<path d="M64.7178 34.8613C62.7125 36.448 60.5248 36.0513 58.3007 35.6546C58.7018 34.9334 59.2487 34.717 60.0508 34.8613C60.6342 34.9695 61.2176 34.8252 61.8374 34.7891C61.8374 34.717 61.8739 34.6449 61.8739 34.5728C61.4364 34.4646 60.9988 34.3203 60.5248 34.2121C60.4519 34.2121 60.379 34.1761 60.3061 34.2121C59.5404 34.2843 58.8841 34.104 58.6653 33.2385C60.5248 32.6615 63.4417 33.4188 64.7178 34.8613Z" stroke="#6E7992" stroke-width="0.5" stroke-miterlimit="10"/>
<path d="M21.1107 21.1937C20.3815 20.7609 19.9804 19.8594 20.1263 19.066C20.2721 18.3448 20.819 17.8399 21.6576 17.6956C21.8764 17.6596 22.0951 17.6235 22.3504 17.6235C22.7514 17.5874 23.0067 17.7317 23.2254 18.1284C23.6994 19.0299 24.538 19.6069 25.4131 20.1479C25.8141 20.4003 26.2152 20.6167 26.6527 20.8691C26.0694 21.0134 25.5954 21.0855 25.0485 20.8331C23.663 20.22 22.3139 20.1479 21.1107 21.1937ZM21.8764 20.1118C22.0587 19.8594 22.2775 19.7151 22.2775 19.6069C22.241 19.4627 22.0587 19.3184 21.9128 19.1742C21.8035 19.2824 21.5847 19.4266 21.5847 19.5709C21.5482 19.7151 21.7305 19.8594 21.8764 20.1118Z" stroke="#6E7992" stroke-width="0.5" stroke-miterlimit="10"/>
<path d="M48.3837 20.833C48.9306 20.5085 49.441 20.22 49.915 19.9315C50.7536 19.3905 51.4828 18.7775 51.9204 17.912C51.9933 17.8038 52.2121 17.6595 52.3214 17.6595C52.9048 17.7317 53.4882 17.7317 53.9986 17.9841C55.3477 18.5972 54.9466 20.5445 54.0716 21.1215C53.9986 21.1937 53.7799 21.1937 53.7069 21.1215C52.5037 20.1839 51.1911 20.2921 49.915 20.833C49.441 21.0494 48.967 20.9412 48.3837 20.833ZM53.6705 19.5709C53.3788 19.3905 53.1965 19.2102 53.0507 19.2102C52.9413 19.2102 52.7225 19.4627 52.7225 19.5709C52.7225 19.679 52.9413 19.9315 53.0507 19.9315C53.233 19.9315 53.3788 19.7512 53.6705 19.5709Z" stroke="#6E7992" stroke-width="0.5" stroke-miterlimit="10"/>
<path d="M18.0845 36.0153C17.7928 36.5202 17.4647 36.8087 16.9542 36.989C16.2979 37.2054 15.7146 37.566 15.0947 37.8545C14.9489 37.9266 14.803 38.107 14.5843 38.2873C15.6781 38.3233 16.4438 37.7824 17.2459 37.4218C17.4647 38.3955 17.4647 38.3955 16.6261 38.8282C15.0218 39.6216 13.6363 39.7658 12.3602 39.2609C12.7248 38.3594 13.2717 37.6021 14.1103 37.1693C15.0947 36.6645 16.1156 36.2678 17.173 35.8711C17.3918 35.835 17.7564 35.9793 18.0845 36.0153Z" stroke="#6E7992" stroke-width="0.5" stroke-miterlimit="10"/>
<path d="M57.6445 37.4578C58.5196 37.7823 59.3946 38.1069 60.2332 38.4315C60.2697 38.3593 60.3062 38.2872 60.3426 38.2151C60.1603 38.0708 60.0145 37.8905 59.8322 37.7823C59.2853 37.4938 58.7383 37.2053 58.155 36.989C57.6445 36.8087 57.207 36.5562 56.9882 36.0513C58.5925 35.4383 61.8375 37.2775 62.6397 39.297C61.6552 39.6936 60.6708 39.6576 59.7228 39.3691C59.103 39.1888 58.4831 38.8642 57.8997 38.5757C57.7904 38.5036 57.681 38.3233 57.681 38.179C57.6081 37.9626 57.6445 37.7102 57.6445 37.4578Z" stroke="#6E7992" stroke-width="0.5" stroke-miterlimit="10"/>
<path d="M22.3506 43.2639C22.4965 43.6967 22.6423 44.1294 22.7882 44.5622C22.8246 44.6703 22.8611 44.7785 22.8611 44.8507C22.4236 46.4374 21.8767 47.916 20.3453 48.8175C20.2724 48.8536 20.163 48.8896 20.0172 48.9618C19.5432 48.0241 19.5432 47.0865 19.7255 46.0768C19.7619 45.9325 19.7984 45.7883 19.8348 45.6801C20.0172 44.6343 20.637 43.9852 21.5485 43.6245C21.3297 44.4179 21.111 45.2473 20.8922 46.1128C20.9651 46.1489 21.0016 46.1489 21.0745 46.185C21.8037 45.3555 21.986 44.2376 22.3506 43.2639Z" stroke="#6E7992" stroke-width="0.5" stroke-miterlimit="10"/>
<path d="M54.1439 46.0768C53.9251 45.2113 53.7064 44.3458 53.4876 43.5524C53.8157 43.7688 54.2168 43.9852 54.5814 44.2376C54.6543 44.2737 54.7273 44.3458 54.7637 44.4179C55.3836 45.7883 55.6752 47.1947 55.1648 48.7093C55.1283 48.7815 55.0919 48.8536 54.9825 49.0339C54.5085 48.6372 53.998 48.2766 53.597 47.8438C52.8313 47.0144 52.5031 45.9325 52.2115 44.8867C52.175 44.7785 52.2115 44.6703 52.2115 44.5982C52.3573 44.1655 52.5031 43.7327 52.6854 43.2639C53.0501 44.2737 53.2324 45.3555 53.9616 46.1489C54.0345 46.1128 54.1074 46.1128 54.1439 46.0768Z" stroke="#6E7992" stroke-width="0.5" stroke-miterlimit="10"/>
<path d="M37.4817 54.5514C37.9557 53.8301 38.3932 53.1449 39.2318 52.8564C39.5964 53.9383 38.612 56.643 37.4452 57.6527C36.3878 56.2102 35.5857 54.7317 35.6222 52.7843C36.5701 53.1449 37.0441 53.7941 37.4817 54.5514Z" fill="#6E7992"/>
<path d="M35.9137 36.3037C36.3148 36.3398 36.6429 36.3398 37.044 36.3759C36.7523 35.871 36.9711 35.4743 37.2992 35.1858C37.5909 34.8973 37.992 34.8612 38.3201 35.1497C38.6118 35.4022 38.5753 35.7267 38.3201 36.0513C38.2107 36.1595 38.1743 36.3398 38.0284 36.4119C37.7732 36.5922 37.8461 36.7726 38.0284 36.9889C38.393 37.3856 38.5024 37.7823 38.1743 38.3593C37.7367 39.1527 37.6274 40.0182 38.0284 40.9558C38.2837 41.6049 38.3566 42.3622 38.466 43.0835C38.5753 44.0211 38.6483 44.9587 39.7056 45.3915C39.0493 45.6078 38.9764 45.5718 38.7941 44.9587C37.8826 42.254 36.9711 39.5494 36.0595 36.8447C35.9866 36.7004 35.9502 36.5201 35.9137 36.3037Z" fill="#6E7992"/>
<path d="M8.20412 47.0504C8.53227 47.1586 8.78749 47.2307 9.04272 47.3028C8.86041 47.4471 8.64165 47.5913 8.45934 47.7356C8.49581 47.7716 8.4958 47.8077 8.53227 47.8438C8.60519 47.8438 8.67811 47.8438 8.71457 47.8438C8.93334 47.8798 9.18856 47.8798 9.40733 47.9159C9.3344 48.1323 9.33441 48.3847 9.18856 48.4929C8.9698 48.6732 8.67811 48.7814 8.42288 48.9256C8.38642 48.7814 8.27704 48.6371 8.27704 48.4568C8.24058 48.3126 8.27704 48.1323 8.27704 47.988C8.24058 47.988 8.16766 47.988 8.1312 47.9519C8.02181 48.1683 7.87597 48.4208 7.76659 48.6371C7.69367 48.3486 7.62074 48.0601 7.54782 47.8077C7.21967 48.1683 6.96445 48.4568 6.70922 48.7093C5.94354 48.4568 5.17786 48.1683 5.06848 47.1225C5.61539 47.4471 6.27169 47.0143 6.78214 47.5192C6.8186 47.5553 7.03737 47.4471 7.03737 47.411C7.00091 47.2307 7.00091 46.9061 6.85506 46.8701C6.6363 46.798 6.34461 46.834 6.08939 46.834C6.08939 46.5816 6.05293 46.257 6.01646 45.9325C5.98 45.6079 6.12585 45.4636 6.41753 45.4997C6.74568 45.5358 7.11029 45.5718 7.43844 45.5718C7.18321 46.257 7.2926 46.5095 7.80305 46.4734C7.87597 46.4734 7.94889 46.3291 8.02181 46.257C7.51136 45.8964 7.87597 45.3555 7.69367 44.9227C7.6572 44.8506 7.6572 44.7063 7.6572 44.5981C8.38642 44.7063 8.9698 45.2112 9.00626 45.8603C9.11564 46.4373 8.82395 46.8701 8.20412 47.0504Z" fill="#6E7992"/>
<path d="M48.7115 55.2366C49.2585 55.2366 49.7689 55.2366 50.2794 55.2366C50.4252 55.2366 50.571 55.2726 50.6804 55.3448C51.6649 56.066 52.6493 56.7873 53.5973 57.4724C53.5244 57.9052 53.4515 58.3379 53.3785 58.8067C53.1962 58.7346 52.941 58.6986 52.7222 58.5904C51.592 58.0494 50.4981 57.4724 49.3678 56.9315C49.0762 56.7873 48.9668 56.6069 48.9668 56.2824C48.8939 55.9578 48.7845 55.5972 48.7115 55.2366Z" fill="#6E7992"/>
<path d="M22.0952 58.8067C21.7306 58.3379 21.4754 58.0134 21.2202 57.6528C22.2411 56.8954 23.2984 56.1021 24.3922 55.3448C24.5016 55.2726 24.6839 55.2366 24.8298 55.2366C25.3038 55.2366 25.7777 55.2366 26.2882 55.2366C26.2153 55.6693 26.1424 56.1381 26.0694 56.5709C26.033 56.6791 25.9601 56.7873 25.8871 56.8594C24.5745 57.5085 23.2984 58.1937 22.0952 58.8067Z" fill="#6E7992"/>
<path d="M35.2937 40.8477C35.2937 41.5689 35.2937 42.2541 35.2937 42.9393C35.2937 43.372 35.5854 43.5163 35.95 43.5163C36.4605 43.5523 36.9345 43.5523 37.4814 43.5884C37.5543 43.7687 37.5908 43.949 37.7002 44.2375C37.1532 44.1293 36.7157 44.0572 36.2417 43.9851C35.8407 44.7785 35.1479 45.2112 34.3093 45.5718C33.7259 45.8243 33.4342 47.0865 33.6895 47.7716C33.7624 47.952 33.8353 48.0962 33.9447 48.3486C33.5801 48.3486 33.3249 48.3486 32.9967 48.3486C33.1061 47.4831 33.1425 46.6898 33.3249 45.8964C33.4707 45.3194 33.7988 44.7424 34.127 44.2375C34.3093 43.949 34.3093 43.7326 34.1999 43.4081C33.7624 42.182 34.1635 41.2804 35.2937 40.8477Z" fill="#6E7992"/>
<path d="M37.4092 11.3487C37.081 9.79797 36.7529 8.24729 36.4612 6.6966C36.4612 6.62448 36.4247 6.55235 36.4247 6.48023C36.3883 5.65079 36.8258 5.0738 37.4821 5.03773C38.1748 5.00167 38.7218 5.57867 38.5759 6.4081C38.3936 7.74241 38.0655 9.07672 37.8102 10.411C37.7373 10.7356 37.6644 11.0602 37.555 11.3487C37.4821 11.3847 37.4456 11.3487 37.4092 11.3487Z" stroke="#6E7992" stroke-width="0.5" stroke-miterlimit="10"/>
<path d="M59.176 61.3671C58.8114 60.718 58.8479 59.8885 58.0093 59.6722C57.7905 60.3573 57.5717 61.0065 57.3165 61.6917C57.0613 61.6556 56.8061 61.5835 56.4414 61.5474C56.5508 60.9704 56.6602 60.4655 56.7696 59.8885C56.0768 59.7082 55.6393 60.2852 54.983 60.6098C54.7278 60.141 54.4361 59.7082 54.1444 59.1312C56.5144 58.8788 58.7749 58.8788 61.0355 59.1312C60.999 59.2755 60.9626 59.4197 60.9261 59.5279C60.8532 59.6722 60.7803 59.8164 60.7074 59.9607C60.1969 59.8164 59.7594 59.3115 59.2489 59.5279C59.3218 60.1049 59.3948 60.6458 59.4677 61.1507C59.4312 61.2228 59.2854 61.295 59.176 61.3671Z" fill="#6E7992"/>
<path d="M9.62579 49.4665C9.73518 49.3583 9.84456 49.2141 9.9904 49.0698C10.1362 49.2141 10.2821 49.3223 10.4279 49.4665C12.6156 51.5221 14.8032 53.5776 16.9544 55.6332C17.0638 55.7414 17.2097 55.8135 17.2097 55.9577C17.2461 56.1741 17.2826 56.4626 17.1732 56.5708C17.0274 56.679 16.7357 56.6429 16.5169 56.6429C16.444 56.6429 16.3346 56.5347 16.2617 56.4626C14.1105 54.2267 11.9228 51.9909 9.77164 49.7189C9.73518 49.6468 9.69872 49.5747 9.62579 49.4665Z" fill="#6E7992"/>
<path d="M49.6962 43.1195C49.9514 44.2374 50.0243 45.2832 50.6806 46.1487C50.7171 46.1487 50.79 46.1487 50.8264 46.1127C50.79 45.5357 50.7171 44.9947 50.6806 44.4177C50.9723 44.5981 51.3369 44.7784 51.6286 44.9947C51.7015 45.0669 51.8109 45.1751 51.8109 45.2832C52.0661 46.4372 51.9567 47.5552 51.264 48.7452C50.8629 48.3125 50.4254 47.9879 50.0972 47.5912C49.4045 46.7618 49.1857 45.716 49.0034 44.6702C48.9669 44.5259 49.0763 44.3456 49.1492 44.2014C49.3315 43.8768 49.4774 43.5523 49.6962 43.1195Z" stroke="#6E7992" stroke-width="0.5" stroke-miterlimit="10"/>
<path d="M23.6271 48.6371C22.9708 47.5912 22.9343 46.4373 23.1895 45.2833C23.226 45.139 23.4448 45.0308 23.5906 44.9226C23.8094 44.7784 24.0281 44.6341 24.2834 44.4538C24.2469 45.0308 24.2104 45.5718 24.174 46.1127C24.2469 46.1487 24.3198 46.1488 24.3563 46.1848C24.5386 45.716 24.7574 45.2472 24.9032 44.7423C25.049 44.2374 25.122 43.6965 25.2678 43.1195C25.7418 43.985 26.0335 44.7784 25.7053 45.7521C25.3407 46.8339 24.9032 47.8076 23.9552 48.4928C23.8823 48.5289 23.8094 48.601 23.7365 48.6371C23.7365 48.6371 23.7 48.6371 23.6271 48.6371Z" stroke="#6E7992" stroke-width="0.5" stroke-miterlimit="10"/>
<path d="M15.7876 42.3623C15.8241 40.9559 16.4439 39.9101 17.3919 39.0085C17.5013 38.9003 17.72 38.9364 17.9023 38.9724C18.1211 39.0085 18.3034 39.0806 18.4857 39.1528C18.0482 39.6937 17.6471 40.2346 17.246 40.7395C18.5586 40.5952 18.9597 39.1528 20.1994 38.8643C20.2723 39.4052 20.1629 39.8019 19.7618 40.2346C18.7774 41.3165 17.6471 42.2181 16.1157 42.3623C16.0064 42.3623 15.9334 42.3623 15.7876 42.3623Z" stroke="#6E7992" stroke-width="0.5" stroke-miterlimit="10"/>
<path d="M54.9097 38.7561C55.2743 39.0446 55.6753 39.297 56.0399 39.6216C56.5504 40.0904 57.0244 40.5953 57.6807 40.8477C57.7171 40.8117 57.7536 40.7756 57.7901 40.7395C57.389 40.1986 56.9515 39.6937 56.5504 39.1528C57.2796 38.684 57.4619 38.72 58.0453 39.3331C58.8474 40.2347 59.3214 41.4608 59.1756 42.2902C58.3005 42.2902 57.4619 42.0378 56.7692 41.4968C56.1493 40.992 55.566 40.415 55.019 39.838C54.8003 39.6216 54.8367 39.1889 54.7274 38.8643C54.8003 38.8643 54.8367 38.8282 54.9097 38.7561Z" stroke="#6E7992" stroke-width="0.5" stroke-miterlimit="10"/>
<path d="M20.7103 7.05725C19.4706 6.87694 18.5226 7.27363 17.6111 7.81456C16.5537 8.46369 15.4235 8.75219 14.1838 8.75219C13.564 8.75219 12.9806 8.9325 12.3243 8.89643C12.8347 8.71612 13.3452 8.49975 13.8556 8.39156C14.6578 8.24731 15.2776 7.85063 15.8245 7.23757C16.1891 6.84088 16.5173 6.44419 16.9183 6.11963C17.5017 5.65082 17.9393 5.65082 18.5955 6.01144C19.2518 6.37207 19.9081 6.66057 20.7103 7.05725Z" fill="#6E7992"/>
<path d="M62.6036 8.96852C61.6921 8.8964 60.7441 8.8964 59.8326 8.68003C58.9211 8.46365 58.0825 8.10303 57.2439 7.70634C56.3688 7.27359 55.4938 6.87691 54.4364 6.94903C54.7281 6.80478 55.0562 6.66053 55.3479 6.55235C55.6396 6.4081 55.9678 6.29991 56.2594 6.1196C57.098 5.61472 57.5356 5.65079 58.2283 6.29991C58.6294 6.66053 58.994 7.09328 59.3586 7.48997C59.7962 7.95878 60.3431 8.24728 60.9994 8.39153C61.5463 8.49971 62.0932 8.71609 62.6401 8.8964C62.6401 8.8964 62.6401 8.93246 62.6036 8.96852Z" fill="#6E7992"/>
<path d="M28.986 14.7385C28.2932 14.6303 27.7828 14.5582 27.1994 14.45C27.4546 13.1157 27.7463 11.7814 28.038 10.411C28.4026 10.5553 28.7308 10.6274 29.0224 10.7716C29.7152 11.0962 30.0434 11.6371 29.8246 12.3584C29.6058 13.1878 29.2777 13.9451 28.986 14.7385Z" stroke="#6E7992" stroke-width="0.5" stroke-miterlimit="10"/>
<path d="M26.1057 14.45C25.5952 14.5582 25.1212 14.6303 24.6472 14.7024C24.5379 14.7024 24.3556 14.6303 24.3191 14.5582C24.0274 13.8369 23.6628 13.1157 23.4805 12.3584C23.2982 11.565 23.6263 11.0601 24.4285 10.6995C24.6837 10.5913 24.9754 10.5192 25.3035 10.411C25.5588 11.7814 25.8505 13.1157 26.1057 14.45Z" stroke="#6E7992" stroke-width="0.5" stroke-miterlimit="10"/>
<path d="M50.6807 14.7386C50.0244 14.6304 49.5139 14.5582 48.8941 14.4501C49.1493 13.1157 49.441 11.7814 49.7327 10.375C50.1338 10.5553 50.5348 10.6635 50.8995 10.8438C51.4828 11.1684 51.7381 11.7093 51.5557 12.3224C51.2641 13.1518 50.9359 13.9452 50.6807 14.7386Z" stroke="#6E7992" stroke-width="0.5" stroke-miterlimit="10"/>
<path d="M47.8001 14.4501C47.1802 14.5583 46.6698 14.6304 46.0499 14.7386C45.7583 14.0173 45.4301 13.3321 45.2113 12.5748C44.9197 11.6011 45.2843 11.0241 46.2687 10.6635C46.4875 10.5914 46.7062 10.5193 46.9615 10.4471C47.2531 11.7815 47.5084 13.1158 47.8001 14.4501Z" stroke="#6E7992" stroke-width="0.5" stroke-miterlimit="10"/>
<path d="M45.7588 51.1255C46.7433 51.4501 47.8006 53.2171 47.8006 54.4432C46.3787 54.5875 44.5192 53.758 44.0452 52.7122C44.9202 52.4959 45.5036 51.9549 45.7588 51.1255Z" fill="#6E7992"/>
<path d="M27.2364 54.4432C27.2 53.2892 28.2209 51.5221 29.2418 51.0894C29.5335 51.9188 30.0804 52.4958 30.9554 52.6761C30.5544 53.7219 28.6219 54.6235 27.2364 54.4432Z" fill="#6E7992"/>
<path d="M37.3729 13.6566C36.6436 13.5845 35.805 13.4763 34.93 13.3681C34.7841 13.3321 34.6018 13.296 34.4924 13.2239C34.1643 13.0436 34.1643 12.7911 34.4924 12.683C34.93 12.5387 35.404 12.3584 35.878 12.3584C37.1541 12.3584 38.4667 12.3584 39.7428 12.4666C40.071 12.5026 40.6908 12.7911 40.6908 12.9354C40.6908 13.4403 40.1074 13.4042 39.7428 13.4763C39.0136 13.5845 38.2479 13.5845 37.3729 13.6566Z" fill="#6E7992"/>
<path d="M37.482 27.2161C38.904 28.6586 38.904 29.9929 37.482 31.7599C36.1329 30.1011 35.9871 29.0552 37.482 27.2161Z" stroke="#6E7992" stroke-width="0.5" stroke-miterlimit="10"/>
<path d="M34.6016 36.4841C34.9662 36.9169 35.3673 37.2775 35.5496 37.7102C35.7684 38.2512 35.7319 38.9003 35.8048 39.4773C35.5496 39.4773 35.1485 39.6215 35.0391 39.5134C34.6016 39.1167 34.1276 39.0446 33.5807 39.0446C33.3984 39.0446 33.1796 38.8282 32.9973 38.6839C32.815 38.5036 32.7057 38.3233 32.5598 38.1069C33.1432 37.2775 33.9089 36.6644 34.6016 36.4841Z" fill="#6E7992"/>
<path d="M29.2055 34.6088C27.4554 34.6449 26.3616 33.4548 26.8356 31.9402C27.6013 32.5893 28.4399 32.9499 29.4243 32.8057C30.4087 32.6614 31.1015 32.1205 31.6484 31.255C31.9766 31.832 31.9401 32.3729 31.7578 32.8778C31.7213 32.986 31.4661 33.0581 31.3203 33.0581C30.664 33.0942 29.9712 33.0581 29.242 33.0581C29.2055 33.5991 29.2055 34.1039 29.2055 34.6088Z" stroke="#6E7992" stroke-width="0.5" stroke-miterlimit="10"/>
<path d="M45.8312 34.6089C45.8312 34.104 45.8312 33.6352 45.8312 33.0582C45.1384 33.0582 44.4821 33.0222 43.8623 33.0582C43.3519 33.0943 43.1696 32.8779 43.1696 32.4452C43.1696 32.0485 43.206 31.6879 43.2425 31.183C45.2478 33.1664 45.977 33.2746 48.1282 31.9764C48.7481 33.2746 47.5449 34.681 45.8312 34.6089Z" stroke="#6E7992" stroke-width="0.5" stroke-miterlimit="10"/>
<path d="M39.0863 23.7902C40.2166 25.8818 40.1801 26.6752 38.8675 28.0455C37.4091 27.0358 37.5185 25.3769 39.0863 23.7902Z" stroke="#6E7992" stroke-width="0.5" stroke-miterlimit="10"/>
<path d="M35.9135 23.8262C37.5178 25.1605 37.6272 26.8554 36.2052 28.0455C34.8561 26.8915 34.7832 25.8817 35.9135 23.8262Z" stroke="#6E7992" stroke-width="0.5" stroke-miterlimit="10"/>
<path d="M40.0336 27.3964C41.3097 28.911 41.3097 29.8847 40.1429 31.6878C38.5751 30.065 38.4657 29.2355 40.0336 27.3964Z" stroke="#6E7992" stroke-width="0.5" stroke-miterlimit="10"/>
<path d="M35.0024 27.4325C36.5338 29.2717 36.3515 29.9569 34.9295 31.7239C33.7627 30.2454 33.5804 28.875 35.0024 27.4325Z" stroke="#6E7992" stroke-width="0.5" stroke-miterlimit="10"/>
<path d="M22.6422 41.0641C22.0953 42.4345 21.2202 43.5163 19.7253 44.0573C19.3607 42.723 19.5795 41.5329 20.2358 40.3789C20.8556 40.9198 20.8556 41.569 20.6368 42.3263C21.1473 41.6411 21.7307 41.1002 22.6422 41.0641Z" stroke="#6E7992" stroke-width="0.5" stroke-miterlimit="10"/>
<path d="M52.4675 41.1001C53.379 41.1361 53.8894 41.7131 54.4364 42.3623C54.1811 41.605 54.1447 40.9198 54.801 40.3428C55.4573 41.4607 55.7125 42.6508 55.3479 43.9851C54.1447 43.8048 52.6862 42.2901 52.4675 41.1001Z" stroke="#6E7992" stroke-width="0.5" stroke-miterlimit="10"/>
<path d="M51.5558 54.4432C50.4984 54.8399 49.6233 54.912 48.6754 54.6956C48.5295 54.6595 48.3472 54.5153 48.3108 54.4071C48.1649 53.9383 48.092 53.4695 47.9826 53.0007C48.566 52.8564 49.1129 52.7122 49.6963 52.604C49.8421 52.5679 50.0609 52.6401 50.1338 52.7482C50.6078 53.2892 51.0453 53.8301 51.5558 54.4432Z" fill="#6E7992"/>
<path d="M28.6216 54.8038C28.6946 55.4169 28.731 55.9939 28.7675 56.5709C28.7675 56.6791 28.6581 56.8594 28.5487 56.9315C27.9654 57.3282 27.382 57.6528 26.6892 58.0855C26.434 56.9315 26.5069 55.9939 26.908 55.0563C26.9445 54.9841 27.0903 54.9481 27.1997 54.912C27.6737 54.876 28.1477 54.8399 28.6216 54.8038Z" fill="#6E7992"/>
<path d="M46.3785 54.8038C46.816 54.8399 47.3265 54.876 47.8005 54.9481C47.9463 54.9841 48.0921 55.1284 48.1651 55.2366C48.5297 56.1021 48.6026 57.0397 48.3109 58.1216C47.6546 57.7249 46.9983 57.3643 46.4149 56.9315C46.3056 56.8594 46.2691 56.607 46.2691 56.4266C46.2691 55.8857 46.342 55.3808 46.3785 54.8038Z" fill="#6E7992"/>
<path d="M23.5169 54.4432C23.7721 54.0826 23.9544 53.7219 24.2097 53.4334C24.6472 52.8564 25.0847 52.3155 25.9962 52.7843C26.2879 52.9286 26.7255 52.8925 27.0901 52.9646C26.9807 53.4695 26.8713 53.9383 26.7255 54.4071C26.689 54.5153 26.5432 54.6596 26.3973 54.6956C25.4493 54.912 24.5014 54.8399 23.5169 54.4432Z" fill="#6E7992"/>
<path d="M42.6589 31.7238C41.0911 30.2092 40.9817 29.1995 42.3307 27.5767C43.5704 28.5143 43.6433 29.5601 42.6589 31.7238Z" stroke="#6E7992" stroke-width="0.5" stroke-miterlimit="10"/>
<path d="M32.3407 31.7599C31.3198 29.5601 31.3927 28.6585 32.6324 27.5767C34.2002 29.488 33.7991 30.1371 32.3407 31.7599Z" stroke="#6E7992" stroke-width="0.5" stroke-miterlimit="10"/>
<path d="M56.8427 54.8398C56.8427 55.7053 56.8427 56.5348 56.8427 57.4363C55.9311 57.4724 55.0561 57.5445 54.181 57.5806C54.3269 56.2102 55.603 54.948 56.8427 54.8398Z" fill="#6E7992"/>
<path d="M61.1084 57.5446C60.9625 57.5446 60.8531 57.5446 60.7438 57.5446C59.9781 57.5085 59.2489 57.4364 58.4467 57.4003C58.4467 56.5348 58.4467 55.6693 58.4467 54.8038C59.6864 54.9481 60.8531 56.1381 61.1084 57.5446Z" fill="#6E7992"/>
<path d="M33.8724 52.7122C33.1431 53.8301 32.4504 54.8759 31.7576 55.9578C31.0284 55.3086 30.8461 53.6498 31.4659 52.8564C31.5024 52.7843 31.6118 52.7122 31.6483 52.7122C32.4139 52.7122 33.1796 52.7122 33.8724 52.7122Z" fill="#6E7992"/>
<path d="M43.2795 55.9938C42.5867 54.912 41.8575 53.8301 41.1647 52.7122C41.8575 52.7122 42.5867 52.7122 43.3159 52.7122C43.4253 52.7122 43.5347 52.8564 43.6076 52.9646C44.1181 53.794 44.0816 55.2005 43.2795 55.9938Z" fill="#6E7992"/>
<path d="M35.6948 13.9813C33.8717 15.3877 31.8299 15.8565 29.5693 15.9647C29.7152 15.8926 29.7516 15.8204 29.8246 15.7844C31.1372 15.0631 32.4497 14.378 33.7988 13.6567C33.9811 13.5846 34.1999 13.5485 34.3822 13.5846C34.7832 13.7288 35.1843 13.837 35.6948 13.9813Z" fill="#6E7992"/>
<path d="M40.3625 24.9441C38.977 23.6098 39.7426 21.8067 41.1646 20.9052C41.274 21.6625 41.3834 22.3837 41.4563 23.141C41.5292 24.0065 40.9458 24.4393 40.3625 24.9441Z" stroke="#6E7992" stroke-width="0.5" stroke-miterlimit="10"/>
<path d="M51.665 44.5261C50.7535 43.9851 50.1702 43.1918 49.8055 42.2542C50.0972 42.146 50.3525 42.0017 50.6077 41.8935C50.79 42.2181 50.9723 42.5066 51.1546 42.8311C51.1911 42.8311 51.2275 42.8311 51.3004 42.8311C51.3004 41.9657 51.0087 41.0641 51.665 40.3789C52.3578 41.4968 52.3943 43.4442 51.665 44.5261Z" stroke="#6E7992" stroke-width="0.5" stroke-miterlimit="10"/>
<path d="M39.3777 13.9812C39.8517 13.837 40.2892 13.6927 40.7632 13.5485C40.8726 13.5124 41.0184 13.5124 41.0913 13.5845C42.4769 14.3779 43.8988 15.2073 45.1385 15.9286C43.6072 16.1089 40.5444 15.1352 39.3777 13.9812Z" fill="#6E7992"/>
<path d="M34.6383 24.9081C33.7633 24.2589 33.3257 23.5016 33.6539 22.4198C33.7997 21.951 33.7633 21.41 33.7997 20.9052C35.1852 21.6625 36.0968 23.5738 34.6383 24.9081Z" stroke="#6E7992" stroke-width="0.5" stroke-miterlimit="10"/>
<path d="M25.2306 42.2902C24.866 43.2639 24.2827 44.0212 23.3347 44.5982C22.6055 43.1557 22.7878 41.7853 23.3711 40.3789C24.1004 41.1002 23.8451 42.0017 23.7722 42.8312C23.8087 42.8312 23.8816 42.8672 23.918 42.8672C24.1004 42.5787 24.2827 42.2542 24.465 41.9296C24.6473 42.0378 24.939 42.146 25.2306 42.2902Z" stroke="#6E7992" stroke-width="0.5" stroke-miterlimit="10"/>
<path d="M48.5662 44.3458C47.5818 43.6245 47.1443 42.6869 46.9255 41.6411C46.889 41.5329 47.0349 41.3526 47.1078 41.2805C47.2536 41.1362 47.4724 41.0641 47.6912 40.9559C47.8735 41.5689 48.0193 42.182 48.1652 42.7951C48.2381 42.7951 48.3475 42.759 48.4204 42.759C48.3475 42.0017 48.2381 41.2083 48.1652 40.5592C48.4568 40.9559 48.8215 41.3886 49.1861 41.8574C49.259 41.9296 49.259 42.0378 49.259 42.1459C49.259 42.9033 49.0767 43.6245 48.5662 44.3458Z" stroke="#6E7992" stroke-width="0.5" stroke-miterlimit="10"/>
<path d="M26.4342 44.3458C25.9238 43.6606 25.7415 42.9393 25.705 42.1459C25.705 42.0377 25.7415 41.8935 25.7779 41.8214C26.1061 41.3526 26.4707 40.9198 26.8353 40.4871C26.7624 40.8477 26.6895 41.2083 26.6165 41.605C26.5801 42.0017 26.5801 42.3984 26.5436 42.7951C26.6165 42.7951 26.6895 42.8311 26.7624 42.8311C26.9447 42.2181 27.0905 41.6411 27.2728 41.028C28.2937 41.4607 28.1479 41.3165 27.8927 42.3262C27.6739 43.0836 27.2364 43.8048 26.4342 44.3458Z" stroke="#6E7992" stroke-width="0.5" stroke-miterlimit="10"/>
<path d="M33.3983 24.4753C34.9661 25.8096 35.0755 26.7473 33.7994 28.1898C32.6691 27.2521 32.5233 25.8457 33.3983 24.4753Z" stroke="#6E7992" stroke-width="0.5" stroke-miterlimit="10"/>
<path d="M41.2011 28.1898C39.8885 26.7473 40.0343 25.6293 41.6386 24.4753C42.5137 25.9178 42.3678 27.144 41.2011 28.1898Z" stroke="#6E7992" stroke-width="0.5" stroke-miterlimit="10"/>
<path d="M36.4605 57.1118C36.8252 57.5446 37.1168 57.9052 37.4814 58.3379C37.8461 57.9052 38.2107 57.5085 38.5388 57.1118C38.9034 58.0134 38.4659 59.6362 37.7002 60.1771C37.5908 60.2493 37.3356 60.2132 37.2262 60.105C36.497 59.4919 36.1689 58.1576 36.4605 57.1118Z" fill="#6E7992"/>
<path d="M39.8883 52.7122C40.8363 52.7843 41.0915 53.7219 41.6384 54.1907C41.128 54.912 40.654 55.5611 40.1435 56.2102C39.7425 55.9217 39.4872 55.1644 39.5966 54.6235C39.7425 54.0104 39.8154 53.3973 39.8883 52.7122Z" fill="#6E7992"/>
<path d="M34.9657 56.3906C34.3823 55.5972 33.9083 54.9481 33.4343 54.2629C33.7625 53.4695 34.6375 52.7122 35.1115 52.7843C35.2209 53.4695 35.4397 54.1547 35.4397 54.8399C35.4032 55.3447 35.1115 55.8136 34.9657 56.3906Z" fill="#6E7992"/>
<path d="M51.1182 23.7541C49.8421 22.4919 48.3472 21.987 46.6335 22.0592C47.0346 21.3379 48.0191 21.0855 49.1858 21.3379C50.389 21.6625 51.0818 22.4558 51.1182 23.7541Z" stroke="#6E7992" stroke-width="0.5" stroke-miterlimit="10"/>
<path d="M28.4029 22.0592C26.6893 21.9871 25.1944 22.4559 23.9547 23.682C23.8088 22.6723 24.4287 21.8429 25.5225 21.4462C26.6163 21.0495 28.1112 21.3019 28.4029 22.0592Z" stroke="#6E7992" stroke-width="0.5" stroke-miterlimit="10"/>
<path d="M41.8566 58.0495C41.2367 58.7707 40.07 58.9511 39.3772 58.4462C39.2678 58.3741 39.1949 58.1577 39.1584 57.9774C39.0855 57.6889 39.1584 57.3283 39.0491 57.0398C38.8668 56.5349 38.9761 56.1382 39.3043 55.7054C39.8147 56.8234 40.6533 57.6168 41.8566 58.0495Z" fill="#6E7992"/>
<path d="M32.5232 25.0884C31.1741 24.1869 30.9553 23.5377 31.3929 21.7346C33.1794 22.7804 33.5076 23.7902 32.5232 25.0884Z" stroke="#6E7992" stroke-width="0.5" stroke-miterlimit="10"/>
<path d="M33.1427 58.0493C34.3459 57.6166 35.1845 56.8593 35.695 55.7413C36.1325 56.3183 36.1325 56.3544 35.9866 57.0035C35.9137 57.292 35.8408 57.6166 35.8773 57.9411C35.9137 58.3018 35.7314 58.446 35.4762 58.5542C34.6741 58.9148 33.7261 58.7345 33.1427 58.0493Z" fill="#6E7992"/>
<path d="M45.0658 57.6528C44.8106 56.9676 44.4459 56.2464 44.2636 55.5251C44.1543 55.0563 44.3366 54.5514 44.373 54.0105C44.8106 54.1908 45.2116 54.3711 45.6127 54.5514C45.6856 54.5875 45.7221 54.6596 45.7585 54.6957C46.1596 55.4169 45.7585 57.1119 45.0658 57.6528Z" fill="#6E7992"/>
<path d="M42.4771 25.0884C41.7114 24.1147 41.7479 23.3213 42.623 22.4919C42.9147 22.2034 43.2428 21.951 43.5709 21.6625C44.1179 23.3213 43.8626 24.1147 42.4771 25.0884Z" stroke="#6E7992" stroke-width="0.5" stroke-miterlimit="10"/>
<path d="M26.252 49.7551C27.2365 49.3584 28.1844 48.9617 29.2053 48.5651C29.2053 49.1781 29.2053 49.7551 29.2053 50.3682C29.2053 50.4764 29.023 50.6206 28.9137 50.6567C28.0386 50.9091 26.9812 50.5485 26.252 49.7551Z" fill="#6E7992"/>
<path d="M46.852 51.1975C46.8885 51.1975 46.8884 51.1615 46.9249 51.1615C48.1646 50.5484 49.4043 51.1615 50.7168 51.2696C50.2429 51.9548 49.5866 52.2073 48.8573 52.3876C48.6386 52.4236 48.4198 52.4236 48.2375 52.4597C47.9094 52.4958 47.6177 52.3876 47.4718 52.063C47.2895 51.7745 47.0708 51.486 46.852 51.1975Z" fill="#6E7992"/>
<path d="M24.319 51.3419C25.1211 51.1616 25.8868 50.9812 26.6525 50.837C26.9077 50.8009 27.1994 50.9452 27.4546 51.0173C27.6734 51.0534 27.8921 51.1255 28.1474 51.1616C27.8921 51.5582 27.6734 51.9189 27.4181 52.2795C27.3452 52.3516 27.1994 52.4237 27.09 52.4237C26.0326 52.4959 25.0846 52.1713 24.319 51.3419Z" fill="#6E7992"/>
<path d="M30.518 54.0105C31.2107 55.3448 30.1898 56.4267 30.0075 57.7249C29.4242 57.22 29.2419 56.607 29.1325 55.9939C29.096 55.7776 29.1325 55.5612 29.1325 55.3809C29.1325 54.876 29.2419 54.5154 29.8252 54.3711C30.0805 54.299 30.2992 54.1187 30.518 54.0105Z" fill="#6E7992"/>
<path d="M19.5067 21.8429C20.5276 22.528 21.5849 22.3117 22.6423 21.951C23.1892 21.7707 23.7726 21.6265 24.3924 21.4462C23.809 22.9247 22.7152 23.2493 21.3662 23.1411C20.5276 23.069 19.8348 22.7084 19.5067 21.8429Z" stroke="#6E7992" stroke-width="0.5" stroke-miterlimit="10"/>
<path d="M50.608 21.4822C51.1184 21.6264 51.556 21.6986 51.9935 21.8067C52.4675 21.951 52.9779 22.1313 53.4519 22.2395C54.1447 22.4198 54.801 22.2034 55.4208 21.8428C55.3114 22.4559 54.6551 22.9607 53.8165 23.105C52.431 23.3935 51.483 22.9247 50.608 21.4822Z" stroke="#6E7992" stroke-width="0.5" stroke-miterlimit="10"/>
<path d="M45.8311 50.5485C45.8311 49.8994 45.8311 49.2502 45.8311 48.5651C46.8156 48.9617 47.7635 49.3584 48.748 49.7191C48.0552 50.5846 46.9614 50.9091 45.8311 50.5485Z" fill="#6E7992"/>
<path d="M26.5797 14.2336C26.3609 13.26 26.1421 12.2863 25.9598 11.3126C25.9234 11.0962 25.9234 10.7716 26.0692 10.6274C26.2151 10.4471 26.5067 10.2307 26.7255 10.2307C26.9078 10.2307 27.163 10.4831 27.3089 10.6635C27.3818 10.7716 27.4183 10.988 27.3818 11.1323C27.1995 12.1781 26.9807 13.1878 26.762 14.2336C26.689 14.2336 26.6526 14.2336 26.5797 14.2336Z" stroke="#6E7992" stroke-width="0.5" stroke-miterlimit="10"/>
<path d="M48.2743 14.3057C48.0555 13.3321 47.8367 12.3584 47.6544 11.4207C47.618 11.2765 47.618 11.0962 47.6544 10.9519C47.6909 10.4831 47.9826 10.1946 48.3836 10.2307C48.8576 10.2668 49.0764 10.5553 49.0399 10.9519C48.967 11.7092 48.8212 12.4305 48.6753 13.1517C48.6024 13.5484 48.493 13.9091 48.3836 14.3057C48.3472 14.3057 48.3107 14.3057 48.2743 14.3057Z" stroke="#6E7992" stroke-width="0.5" stroke-miterlimit="10"/>
<path d="M32.5233 44.0572C32.8879 43.5163 32.815 43.0114 32.4504 42.5426C31.94 41.8213 31.94 41.1722 32.3775 40.8116C32.8515 40.4149 33.6536 40.5592 34.3464 41.1722C34.1641 41.2443 34.0547 41.3165 33.9453 41.3165C33.3619 41.3165 33.1432 41.5689 33.289 42.1459C33.3619 42.3983 33.4713 42.6868 33.4713 42.9753C33.5078 43.5163 33.2161 43.8769 32.5233 44.0572Z" fill="#6E7992"/>
<path d="M31.065 24.4032C32.5963 25.5211 32.8151 26.8915 31.6848 28.0455C30.7368 26.9276 30.7368 25.7014 31.065 24.4032Z" stroke="#6E7992" stroke-width="0.5" stroke-miterlimit="10"/>
<path d="M43.9719 24.4032C44.2272 25.7014 44.3001 26.9636 43.3521 28.0455C42.1854 26.9636 42.4406 25.449 43.9719 24.4032Z" stroke="#6E7992" stroke-width="0.5" stroke-miterlimit="10"/>
<path d="M37.518 43.372C37.0805 43.372 36.7523 43.372 36.4607 43.372C35.5856 43.3359 35.4762 43.2638 35.4033 42.3983C35.3668 41.8213 35.3668 41.2443 35.7314 40.7755C36.7523 41.3164 37.0805 42.3262 37.518 43.372Z" fill="#6E7992"/>
<path d="M33.8721 30.7141C34.2367 31.5075 34.5649 32.2287 34.9295 33.0221C33.945 33.0221 33.1429 33.0221 32.2678 33.0221C32.4866 32.1205 33.07 31.4714 33.8721 30.7141Z" stroke="#6E7992" stroke-width="0.5" stroke-miterlimit="10"/>
<path d="M42.7683 33.0582C41.9297 33.0582 41.1276 33.0582 40.289 33.0582C40.2525 32.1566 40.7265 31.5436 41.2005 30.7863C41.9297 31.4354 42.5131 32.0845 42.7683 33.0582Z" stroke="#6E7992" stroke-width="0.5" stroke-miterlimit="10"/>
<path d="M36.2062 30.7141C36.7531 31.4354 37.2636 32.1205 37.3 33.0942C36.6437 33.0942 35.9874 33.1303 35.3676 33.0582C35.2582 33.0582 35.1124 32.7336 35.1124 32.5533C35.2582 31.832 35.6957 31.255 36.2062 30.7141Z" stroke="#6E7992" stroke-width="0.5" stroke-miterlimit="10"/>
<path d="M38.7944 30.6781C39.3413 31.4354 39.9976 32.0485 39.8518 33.0222C39.159 33.0222 38.4663 33.0222 37.737 33.0222C37.7006 32.0845 38.284 31.4354 38.7944 30.6781Z" stroke="#6E7992" stroke-width="0.5" stroke-miterlimit="10"/>
<path d="M29.2051 45.1391C28.5852 44.7063 28.2206 44.2375 27.9654 43.6245C27.929 43.5523 27.929 43.4441 27.929 43.372C28.1477 42.759 28.4029 42.182 28.6582 41.5328C28.804 41.5689 28.9863 41.605 29.2051 41.641C29.2051 42.8311 29.2051 43.9129 29.2051 45.1391Z" stroke="#6E7992" stroke-width="0.5" stroke-miterlimit="10"/>
<path d="M27.783 48.7093C28.0017 47.4832 28.257 46.3652 28.4757 45.2473C29.2414 45.5358 29.3872 45.8964 29.2049 47.6635C29.0956 48.3847 28.2934 48.3487 27.783 48.7093Z" stroke="#6E7992" stroke-width="0.5" stroke-miterlimit="10"/>
<path d="M50.4979 15.4598C49.8052 16.0729 46.8154 16.0729 46.1956 15.4598C46.8519 14.8467 49.9146 14.8467 50.4979 15.4598Z" stroke="#6E7992" stroke-width="0.5" stroke-miterlimit="10"/>
<path d="M24.5385 15.4598C25.1219 14.8467 28.2211 14.8467 28.8044 15.4598C28.1846 16.0729 25.1219 16.0729 24.5385 15.4598Z" stroke="#6E7992" stroke-width="0.5" stroke-miterlimit="10"/>
<path d="M46.5604 45.2112C46.7792 46.3652 46.998 47.4831 47.2167 48.601C47.1803 48.6371 47.1438 48.6732 47.1074 48.7453C46.6698 48.4207 46.2688 48.0962 45.8312 47.7716C46.0135 46.8701 45.3208 45.7882 46.5604 45.2112Z" stroke="#6E7992" stroke-width="0.5" stroke-miterlimit="10"/>
<path d="M28.6582 20.9412C29.0228 21.0855 29.4239 21.2297 29.8614 21.41C29.7885 21.0855 29.752 20.797 29.6791 20.4724C30.0073 20.6167 30.3354 20.7609 30.5906 20.9052C30.7 20.9773 30.8094 21.1937 30.8094 21.3018C30.8094 21.8788 30.7365 22.4919 30.7 23.2132C29.752 22.6001 29.1322 21.8428 28.5488 21.0133C28.6217 21.0133 28.6582 20.9773 28.6582 20.9412Z" stroke="#6E7992" stroke-width="0.5" stroke-miterlimit="10"/>
<path d="M45.868 41.6772C46.0503 41.6411 46.2326 41.605 46.3785 41.569C46.6337 42.182 46.8525 42.759 47.0713 43.336C47.1077 43.4442 47.1077 43.5885 47.0713 43.6606C46.7431 44.1655 46.3785 44.6343 46.0139 45.1031C45.9774 45.067 45.9045 45.031 45.868 45.031C45.868 43.9491 45.868 42.8312 45.868 41.6772Z" stroke="#6E7992" stroke-width="0.5" stroke-miterlimit="10"/>
<path d="M44.3365 23.105C44.3 22.8165 44.2636 22.528 44.2271 22.2395C44.0448 20.9773 44.0448 20.9773 45.3209 20.4724C45.248 20.7609 45.2115 21.0133 45.1386 21.374C45.3939 21.3018 45.6126 21.2297 45.7949 21.1576C46.0137 21.0855 46.196 20.9773 46.4148 20.9052C46.4512 20.9412 46.4877 20.9773 46.5241 21.0494C45.8314 21.7707 45.1751 22.4919 44.4823 23.2132C44.4459 23.1771 44.3729 23.141 44.3365 23.105Z" stroke="#6E7992" stroke-width="0.5" stroke-miterlimit="10"/>
<path d="M41.8932 22.564C41.5286 21.1215 41.7109 20.6527 42.7683 20.1478C42.7683 20.2921 42.7683 20.4003 42.7683 20.6166C43.1694 20.4724 43.4975 20.3642 43.9715 20.22C43.5704 21.3018 42.5495 21.6985 41.8932 22.564Z" stroke="#6E7992" stroke-width="0.5" stroke-miterlimit="10"/>
<path d="M31.0278 20.1839C31.5018 20.3643 31.83 20.4724 32.1946 20.5806C32.231 20.4003 32.2675 20.2921 32.2675 20.1118C33.3249 20.6528 33.5436 21.2658 33.1061 22.528C32.4863 21.6986 31.4289 21.3379 31.0278 20.1839Z" stroke="#6E7992" stroke-width="0.5" stroke-miterlimit="10"/>
<path d="M46.0502 22.4198C46.0137 23.6459 45.5397 24.6196 44.6282 25.413C44.0813 24.1508 44.5918 23.2853 46.0502 22.4198Z" stroke="#6E7992" stroke-width="0.5" stroke-miterlimit="10"/>
<path d="M28.9865 22.4198C30.372 23.105 30.8095 23.9705 30.4813 25.449C29.4969 24.6557 29.0229 23.682 28.9865 22.4198Z" stroke="#6E7992" stroke-width="0.5" stroke-miterlimit="10"/>
<path d="M33.7626 50.0436C33.0698 50.1518 32.45 50.0075 32.0489 49.4305C31.6479 48.9256 31.7208 48.3486 32.0125 47.8077C32.1583 47.5192 32.2677 47.1946 32.4136 46.7258C32.4136 47.0865 32.45 47.3389 32.4136 47.5553C32.1583 48.7453 32.3042 48.9617 33.5438 49.0338C33.6168 49.3944 33.6897 49.6829 33.7626 50.0436Z" fill="#6E7992"/>
<path d="M35.5493 46.0046C35.7316 45.7161 35.9139 45.4998 35.9503 45.2834C36.0962 44.3818 36.2056 44.2736 37.1171 44.4179C37.19 44.4179 37.2629 44.4539 37.3723 44.49C37.2629 44.9949 37.0077 45.3555 36.6066 45.6079C36.1691 45.8964 36.1691 46.1849 36.3879 46.5816C36.5337 46.8341 36.6431 47.1226 36.8254 47.4832C35.9139 47.2668 36.0597 46.3292 35.5493 46.0046Z" fill="#6E7992"/>
<path d="M58.5928 53.6138C58.3375 53.5417 58.1188 53.5056 57.8271 53.3975C57.9 53.686 57.9729 53.9023 58.0459 54.1548C57.7542 54.1548 57.4989 54.1548 57.2073 54.1548C57.2802 53.9384 57.3166 53.722 57.426 53.3975C57.1708 53.4696 56.9156 53.5056 56.6603 53.5778C56.6603 53.3253 56.6603 53.0729 56.6603 52.7844C56.9156 52.8565 57.1343 52.8926 57.426 52.9647C57.3531 52.6762 57.2802 52.4598 57.2073 52.2074C57.4989 52.2074 57.7542 52.2074 58.0459 52.2074C57.9729 52.4598 57.9 52.6762 57.8271 52.9647C58.1188 52.8926 58.3375 52.8565 58.5928 52.7844C58.5928 53.109 58.5928 53.3253 58.5928 53.6138Z" fill="#6E7992"/>
<path d="M37.1172 0.710205C37.3359 0.710205 37.4818 0.710205 37.6276 0.710205C37.7005 0.710205 37.8099 0.746267 37.9193 0.746267C37.8828 0.890517 37.8464 0.998704 37.8099 1.10689C37.7734 1.21508 37.737 1.32327 37.7005 1.50358C37.9922 1.43145 38.211 1.35933 38.4662 1.32327C38.4662 1.61176 38.4662 1.8642 38.4662 2.1527C38.211 2.08058 37.9922 2.00845 37.7005 1.93633C37.7734 2.22482 37.8099 2.4412 37.8828 2.7297C37.6276 2.7297 37.3724 2.7297 37.0807 2.7297C37.1536 2.47726 37.1901 2.26089 37.2995 1.97239C37.0078 2.04451 36.7525 2.11664 36.4973 2.18876C36.4973 1.90026 36.4973 1.64783 36.4973 1.35933C36.7525 1.43145 36.9713 1.50358 37.263 1.5757C37.2265 1.21508 37.1536 0.962642 37.1172 0.710205Z" stroke="#6E7992" stroke-width="0.5" stroke-miterlimit="10"/>
<path d="M37.4819 4.64108C37.0808 4.64108 36.7527 4.31652 36.7527 3.88377C36.7527 3.45103 37.0808 3.12646 37.5184 3.16253C37.9194 3.19859 38.2476 3.52315 38.2476 3.91984C38.2476 4.31652 37.883 4.64108 37.4819 4.64108Z" stroke="#6E7992" stroke-width="0.5" stroke-miterlimit="10"/>
<path d="M20.9285 59.4198C21.0743 59.4919 21.2566 59.564 21.3295 59.6362C21.5118 59.8165 21.6577 60.0329 21.84 60.2492C22.2046 60.718 22.0952 61.2229 21.5483 61.3672C21.3295 61.4393 21.0014 61.2229 20.8191 61.1508C20.8556 60.5738 20.892 60.0689 20.9285 59.4198Z" fill="#6E7992"/>
<path d="M51.4829 16.7581C51.811 16.9384 51.811 17.2269 51.7017 17.5514C51.4464 18.2366 50.7172 19.03 49.8422 19.5349C50.3526 18.6333 50.8995 17.7317 51.4829 16.7581Z" stroke="#6E7992" stroke-width="0.5" stroke-miterlimit="10"/>
<path d="M17.5377 57.6527C18.1576 56.9315 18.1576 56.9315 18.8503 57.4003C19.142 57.6167 19.4337 57.8331 19.7254 58.0855C19.7618 58.1216 19.7983 58.1937 19.8348 58.1937C19.2514 58.1937 18.668 58.2298 18.0846 58.1576C17.9023 58.1576 17.72 57.8331 17.5377 57.6527Z" fill="#6E7992"/>
<path d="M23.5535 16.7581C24.1004 17.6957 24.6109 18.5612 25.1578 19.5349C24.3192 18.9939 23.6264 18.4169 23.2983 17.5154C23.1889 17.1908 23.2254 16.9023 23.5535 16.7581Z" stroke="#6E7992" stroke-width="0.5" stroke-miterlimit="10"/>
<path d="M58.3013 60.1411C58.4472 60.5017 58.6659 60.8984 58.7389 61.2951C58.7753 61.4754 58.5566 61.7639 58.3743 61.9082C58.3013 61.9803 57.9003 61.8721 57.9003 61.8C57.8274 61.5475 57.7909 61.223 57.8274 60.9705C57.9003 60.7181 58.119 60.4657 58.3013 60.1411Z" fill="#6E7992"/>
<path d="M19.5791 58.951C19.8343 58.7346 20.0166 58.4461 20.3083 58.3379C20.5635 58.2297 20.9282 58.2658 21.1834 58.3379C21.2928 58.374 21.3657 58.8789 21.2928 58.9149C21.0375 59.0592 20.7459 59.1674 20.4542 59.1674C20.1989 59.1674 19.9072 59.0231 19.5791 58.951Z" fill="#6E7992"/>
<path d="M19.9442 59.2395C19.7984 59.5641 19.7255 59.8886 19.5067 60.105C19.3244 60.2853 19.0327 60.4295 18.7775 60.5017C18.6681 60.5377 18.3764 60.2132 18.4129 60.105C18.5222 59.8526 18.6681 59.5641 18.8869 59.4559C19.1785 59.3116 19.5796 59.3116 19.9442 59.2395Z" fill="#6E7992"/>
<path d="M19.5067 58.41C19.2515 58.6985 19.1056 58.8788 18.9233 59.0591C18.8504 59.1313 18.741 59.2755 18.6317 59.2755C18.4494 59.3116 18.2306 59.3116 18.0483 59.2395C17.9389 59.2034 17.8295 58.951 17.866 58.8788C17.9754 58.6985 18.1577 58.4821 18.34 58.4461C18.7046 58.374 19.0692 58.41 19.5067 58.41Z" fill="#6E7992"/>
<path d="M39.2323 42.9753C39.0864 43.0474 38.9406 43.0835 38.8312 43.1196C38.6489 42.218 38.4301 41.3164 38.2478 40.4509C38.7218 40.9558 39.0499 41.7852 39.2323 42.9753Z" fill="#6E7992"/>
<path d="M59.7227 59.7083C60.0144 59.9607 60.3425 60.141 60.5248 60.4295C60.6342 60.5737 60.5248 60.8983 60.4155 61.1147C60.379 61.1868 60.0144 61.2229 59.9779 61.1507C59.8321 60.9704 59.7227 60.718 59.6862 60.4656C59.6498 60.2853 59.6862 60.0689 59.7227 59.7083Z" fill="#6E7992"/>
<path d="M56.2595 60.1771C56.2595 60.4656 56.296 60.7541 56.2595 60.9705C56.1866 61.1869 56.0408 61.4393 55.8585 61.5836C55.7855 61.6196 55.3845 61.4393 55.3845 61.3311C55.3845 61.0787 55.4209 60.7902 55.5668 60.5738C55.7126 60.3935 56.0043 60.3214 56.2595 60.1771Z" fill="#6E7992"/>
<path d="M20.5643 59.5641C20.6007 59.8887 20.6737 60.1772 20.6007 60.4296C20.5278 60.646 20.309 60.8263 20.0903 60.9345C20.0174 60.9705 19.6892 60.8263 19.6892 60.7542C19.6892 60.5017 19.7257 60.2493 19.8715 60.069C20.0538 59.8526 20.309 59.7805 20.5643 59.5641Z" fill="#6E7992"/>
<path d="M48.4926 7.74247C48.7113 7.70641 48.8572 7.67035 49.003 7.63429C49.003 7.8146 49.003 7.95885 49.003 8.13916C48.8207 8.1031 48.6749 8.06704 48.4926 8.03097C48.529 8.17522 48.529 8.35553 48.5655 8.49978C48.3832 8.49978 48.2373 8.49978 48.055 8.49978C48.0915 8.35553 48.0915 8.21128 48.1279 8.03097C47.9456 8.06704 47.7998 8.06704 47.6175 8.06704C47.6175 7.92279 47.6175 7.77854 47.6175 7.59822C47.7633 7.63429 47.9092 7.63429 48.0915 7.67035C48.055 7.49004 48.055 7.38185 48.0186 7.20154C48.2009 7.20154 48.3467 7.20154 48.4926 7.20154C48.5655 7.41791 48.529 7.56216 48.4926 7.74247Z" fill="#6E7992"/>
<path d="M27.309 8.10304C27.1632 8.06698 27.0173 8.06698 26.835 8.03091C26.8715 8.17516 26.8715 8.31941 26.908 8.49972C26.7621 8.49972 26.6163 8.49972 26.434 8.53579C26.4704 8.35547 26.4704 8.24729 26.5069 8.06698C26.3246 8.06698 26.2152 8.10304 26.0329 8.10304C26.0329 7.95879 26.0329 7.8506 26.0329 7.67029C26.1787 7.67029 26.3246 7.67029 26.5069 7.67029C26.5069 7.52604 26.4704 7.38179 26.4704 7.2736C26.908 7.23754 26.908 7.23754 26.908 7.70635C27.0538 7.70635 27.1632 7.67029 27.3455 7.67029C27.309 7.81454 27.309 7.95879 27.309 8.10304Z" fill="#6E7992"/>
<path d="M27.3456 9.36517C27.054 9.58155 26.8717 9.87005 26.7258 9.83398C26.5435 9.79792 26.3612 9.54548 26.1789 9.36517C26.3612 9.18486 26.507 8.93242 26.6893 8.89636C26.8352 8.89636 27.054 9.1488 27.3456 9.36517Z" fill="#6E7992"/>
<path d="M48.3476 8.71606C48.5663 9.00456 48.8216 9.22094 48.7851 9.36519C48.7486 9.5455 48.4934 9.72581 48.3476 9.90612C48.1653 9.72581 47.9101 9.58156 47.8736 9.40125C47.8736 9.22094 48.1288 9.00456 48.3476 8.71606Z" fill="#6E7992"/>
<path d="M57.0614 58.1937C56.8061 58.374 56.6603 58.5543 56.5144 58.5543C56.3686 58.5543 56.2227 58.3379 56.1863 58.1937C56.1498 58.1216 56.3686 57.9052 56.5144 57.9052C56.6238 57.8691 56.8061 58.0494 57.0614 58.1937Z" fill="#6E7992"/>
<path d="M59.2853 58.1937C59.0301 58.374 58.8843 58.5904 58.7384 58.5543C58.5926 58.5543 58.4467 58.338 58.4103 58.1937C58.3738 58.1216 58.5926 57.9052 58.7384 57.8691C58.8478 57.8691 59.0301 58.0495 59.2853 58.1937Z" fill="#6E7992"/>
<path d="M60.9994 58.915C60.8171 58.6626 60.6348 58.5183 60.6348 58.3741C60.6348 58.2659 60.8535 58.0135 60.9265 58.0495C61.0723 58.0856 61.2911 58.2298 61.3275 58.3741C61.3275 58.4462 61.1452 58.6265 60.9994 58.915Z" fill="#6E7992"/>
<path d="M54.2897 57.833C54.472 58.0854 54.6543 58.2297 54.6543 58.3739C54.6543 58.4821 54.4355 58.7346 54.3626 58.6985C54.2168 58.6624 53.998 58.5182 53.9615 58.41C53.9251 58.2658 54.1074 58.0854 54.2897 57.833Z" fill="#6E7992"/>
<path d="M60.3793 58.2297C60.1241 58.41 59.9782 58.5903 59.8689 58.5903C59.7595 58.5903 59.5042 58.41 59.5407 58.3018C59.5772 58.1576 59.723 57.9412 59.8324 57.9052C59.9418 57.9052 60.1241 58.0855 60.3793 58.2297Z" fill="#6E7992"/>
<path d="M55.3841 57.7249C55.5665 57.9773 55.7488 58.1215 55.7488 58.2658C55.7488 58.41 55.53 58.5543 55.3841 58.5903C55.3112 58.6264 55.0925 58.41 55.0925 58.3018C55.0925 58.1576 55.2383 58.0133 55.3841 57.7249Z" fill="#6E7992"/>
<path d="M58.155 54.9841C57.8998 55.1644 57.7539 55.3447 57.6446 55.3447C57.5352 55.3447 57.3164 55.1644 57.3164 55.0562C57.3529 54.912 57.4987 54.6956 57.6081 54.6595C57.7175 54.6235 57.8998 54.8038 58.155 54.9841Z" fill="#6E7992"/>
<path d="M58.1548 56.102C57.8631 56.2463 57.7173 56.3905 57.6079 56.3905C57.4985 56.3905 57.2797 56.1381 57.3162 56.066C57.3526 55.9217 57.535 55.7414 57.6443 55.7414C57.7537 55.7053 57.8996 55.9217 58.1548 56.102Z" fill="#6E7992"/>
<path d="M22.7515 61.5836C22.9338 61.8361 23.0797 61.9442 23.0797 62.0885C23.0797 62.1967 22.8974 62.3049 22.788 62.4491C22.6786 62.3409 22.4963 62.2327 22.4598 62.0885C22.3869 62.0164 22.5692 61.8361 22.7515 61.5836Z" fill="#6E7992"/>
<path d="M58.155 57.1478C57.8998 57.292 57.7539 57.4724 57.6446 57.4724C57.4987 57.4363 57.3529 57.256 57.3164 57.1117C57.3164 57.0396 57.5352 56.8232 57.6446 56.8232C57.7539 56.7872 57.8998 56.9675 58.155 57.1478Z" fill="#6E7992"/>
<path d="M57.608 57.7249C57.7538 57.9052 57.9726 58.0494 57.9361 58.1576C57.8997 58.3019 57.7174 58.41 57.608 58.5543C57.4986 58.4461 57.3163 58.3379 57.2798 58.1937C57.2798 58.0855 57.4621 57.9412 57.608 57.7249Z" fill="#6E7992"/>
<path d="M22.5698 61.4032C22.3511 61.5835 22.1687 61.7277 21.9864 61.8359L21.8041 61.6556C21.95 61.5114 22.0958 61.331 22.2781 61.2229C22.3511 61.1868 22.4604 61.331 22.5698 61.4032Z" fill="#6E7992"/>
<path d="M44.9558 33.8156H29.7151V49.6469C29.7151 49.6469 29.4964 51.8107 31.9392 51.8107H33.7258C34.929 51.8107 36.0593 52.3156 36.825 53.1811L37.4448 53.8662L37.6271 53.6138C38.3928 52.5319 39.6689 51.8828 41.018 51.8828H43.2786C43.2786 51.8828 44.9193 51.5943 44.9193 49.7912C44.9193 47.9881 44.9558 33.8156 44.9558 33.8156Z" fill="#6E7992"/>
</g>
<defs>
<clipPath id="clip0">
<rect width="75" height="74" fill="white" transform="translate(0 0.602051)"/>
</clipPath>
</defs>
</svg>
