<svg width="47" height="59" viewBox="0 0 47 59" fill="none" xmlns="http://www.w3.org/2000/svg">
<g clip-path="url(#clip0)">
<path d="M20.6 38.6001C17.3 38.6001 14.1 37.7001 11.2 36.0001L10.8 35.8001C5.6 32.5001 2.5 26.8001 2.5 20.6001C2.5 10.7001 10.6 2.6001 20.5 2.6001C30.4 2.6001 38.5 10.7001 38.5 20.6001C38.5 26.8001 35.4 32.4001 30.2 35.8001L29.9 36.0001C27.1 37.7001 23.9 38.6001 20.6 38.6001ZM12.3 34.9001C14.8 36.3001 17.6 37.1001 20.5 37.1001C23.4 37.1001 26.3 36.3001 28.8 34.9001L29.1 34.7001C34.1 31.7001 37 26.4001 37 20.6001C37.1 11.4001 29.7 4.0001 20.6 4.0001C11.4 4.0001 4 11.4001 4 20.6001C4 26.4001 7 31.7001 11.9 34.7001L12.3 34.9001Z" fill="#349C54"/>
<path d="M20.6 38.6001C17.3 38.6001 14.1 37.7001 11.2 36.0001L10.8 35.8001C5.6 32.5001 2.5 26.8001 2.5 20.6001C2.5 10.7001 10.6 2.6001 20.5 2.6001C30.4 2.6001 38.5 10.7001 38.5 20.6001C38.5 26.8001 35.4 32.4001 30.2 35.8001L29.9 36.0001C27.1 37.7001 23.9 38.6001 20.6 38.6001ZM12.3 34.9001C14.8 36.3001 17.6 37.1001 20.5 37.1001C23.4 37.1001 26.3 36.3001 28.8 34.9001L29.1 34.7001C34.1 31.7001 37 26.4001 37 20.6001C37.1 11.4001 29.7 4.0001 20.6 4.0001C11.4 4.0001 4 11.4001 4 20.6001C4 26.4001 7 31.7001 11.9 34.7001L12.3 34.9001Z" fill="#349C54"/>
<path d="M20.6 38.6C19.4 38.6 18.1 38.5 16.9 38.2H16.8L16.6 38.1C14.7 37.7 12.9 37 11.1 35.9L10.7 35.7C9.80002 35.1 9.00002 34.5 8.20002 33.8C4.50002 30.4 2.40002 25.6 2.40002 20.5C2.40002 10.6 10.5 2.5 20.4 2.5C30.3 2.5 38.4 10.6 38.4 20.5C38.4 25.5 36.3 30.4 32.6 33.8C31.8 34.5 31 35.1 30.1 35.7L29.9 36C28.2 37 26.4 37.8 24.5 38.2H24.3C23.1 38.4 21.8 38.6 20.6 38.6ZM17.1 36.7C19.3 37.2 21.7 37.2 23.9 36.7H24C25.7 36.3 27.3 35.7 28.8 34.8L29.1 34.6C30 34 30.9 33.4 31.7 32.6C35.1 29.5 37 25.1 37 20.4C37.1 11.4 29.7 4 20.6 4C11.4 4 4.00002 11.4 4.00002 20.6C4.00002 25.2 5.90002 29.6 9.30002 32.8C10.1 33.5 11 34.2 11.9 34.8L12.3 35C13.8 35.7 15.4 36.3 17.1 36.7Z" fill="#349C54"/>
<path d="M20.6 41.1C16.8 41.1 13.1 40.1 9.9 38.1L9.5 37.9C3.5 34.1 0 27.6 0 20.6C0 9.2 9.2 0 20.6 0C31.9 0 41.1 9.2 41.1 20.6C41.1 27.7 37.6 34.1 31.6 37.9L31.2 38.1C28 40.1 24.3 41.1 20.6 41.1ZM11 37.1C13.9 38.8 17.2 39.7 20.5 39.7C23.9 39.7 27.2 38.8 30.1 37.1L30.4 36.9C36.1 33.4 39.6 27.3 39.6 20.6C39.6 10.1 31.1 1.5 20.6 1.5C10 1.5 1.5 10 1.5 20.6C1.5 27.3 4.9 33.4 10.7 36.9L11 37.1Z" fill="#349C54"/>
<path d="M44.5 58.3001C43.7 58.3001 43 57.9001 42.5 57.3001L31.8 42.8001C31 41.7001 31.2 40.1001 32.3 39.3001C33.4 38.5001 35 38.7001 35.8 39.8001L46.5 54.3001C47.3 55.4001 47.1 57.0001 46 57.8001C45.5 58.1001 45 58.3001 44.5 58.3001ZM33.8 40.3001C33.6 40.3001 33.4 40.4001 33.2 40.5001C32.8 40.8001 32.7 41.5001 33 41.9001L43.7 56.4001C44 56.8001 44.7 56.9001 45.1 56.6001C45.5 56.3001 45.6 55.6001 45.3 55.2001L34.6 40.7001C34.4 40.5001 34.1 40.3001 33.8 40.3001Z" fill="#349C54"/>
<path d="M31.4616 36.9822L30.2559 37.8745L32.3975 40.7682L33.6032 39.8758L31.4616 36.9822Z" fill="#349C54"/>
<path d="M20.6 25.6C16.3 25.6 12.9 22.1 12.9 17.9C12.9 13.6 16.4 10.2 20.6 10.2C24.8 10.2 28.3 13.7 28.3 17.9C28.3 22.1 24.8 25.6 20.6 25.6ZM20.6 11.6C17.2 11.6 14.4 14.4 14.4 17.8C14.4 21.2 17.2 24 20.6 24C24 24 26.8 21.2 26.8 17.8C26.8 14.4 24 11.6 20.6 11.6Z" fill="#349C54"/>
<path d="M20.6 38.5C19.4 38.5 18.1 38.4 17 38.2H16.9L16.7 38.0999C14.8 37.6999 13 37 11.2 35.9L10.8 35.7C9.90005 35.1 9.10005 34.4999 8.30005 33.7999L7.80005 33.4L8.10005 32.9C9.80005 30.4 12.1 28.3999 14.9 27.2999L15.3 27.2L15.6 27.4C18.4 29.4 22.3 29.4 25.1 27.4L25.4 27.2L25.8 27.4C28.6 28.5 31 30.4 32.6 33L33 33.5L32.5 33.9C31.7001 34.6 30.9 35.1999 30 35.7999L29.9 36C28.2 37 26.4 37.8 24.5 38.2H24.3C23.1 38.4 21.8 38.5 20.6 38.5ZM17.1 36.7C19.3 37 21.7 37 23.9 36.7H24C25.7001 36.3 27.3 35.6999 28.8 34.7999L29.1 34.5999C29.8 34.1999 30.5 33.5999 31.2001 33.0999C29.8001 31.1999 28 29.6999 25.8 28.7999C22.7 30.7999 18.4 30.8999 15.2 28.7999C13 29.6999 11.2 31.1999 9.80005 33.0999C10.4 33.6999 11.2 34.1999 11.9 34.5999L12.3 34.7999C13.8 35.6999 15.4 36.3 17.1 36.7Z" fill="#349C54"/>
</g>
<defs>
<clipPath id="clip0">
<rect width="47" height="58.3" fill="white"/>
</clipPath>
</defs>
</svg>
