<svg width="25" height="35" viewBox="0 0 25 35" fill="none" xmlns="http://www.w3.org/2000/svg">
<path d="M18.1891 35H6.73073C6.00958 35 5.52881 34.4531 5.52881 33.8281V1.17188C5.52881 0.546875 6.08971 0 6.73073 0H18.1089C18.8301 0 19.3109 0.546875 19.3109 1.17188V33.9062C19.391 34.5312 18.8301 35 18.1891 35ZM6.73073 0.78125C6.49035 0.78125 6.33009 0.9375 6.33009 1.17188V33.9062C6.33009 34.1406 6.49035 34.2969 6.73073 34.2969H18.1089C18.3493 34.2969 18.5096 34.1406 18.5096 33.9062V1.17188C18.5897 0.9375 18.4295 0.78125 18.1891 0.78125H6.73073Z" fill="#349C54"/>
<path d="M5.92951 10.9375H4.00643C3.44554 10.9375 2.96477 10.625 2.72438 10.1562L0.16028 4.84375C-0.0801046 4.45312 2.35969e-05 3.98437 0.240408 3.59375C0.480793 3.20312 0.961562 2.96875 1.44233 2.96875H5.92951V3.75H1.44233C1.20195 3.75 0.961562 3.82812 0.881434 4.0625C0.801306 4.14062 0.801306 4.375 0.881434 4.53125L3.44554 9.84375C3.52567 10 3.76605 10.1562 4.00643 10.1562H5.92951V10.9375Z" fill="#349C54"/>
<path d="M5.9295 21.4844H4.00643C3.44553 21.4844 2.96476 21.1719 2.72438 20.7031L0.160273 15.3906C1.64323e-05 15 1.64323e-05 14.5313 0.240401 14.1406C0.480786 13.75 0.961555 13.5156 1.44232 13.5156H5.9295V14.2969H1.44232C1.20194 14.2969 0.961555 14.375 0.881427 14.6094C0.801298 14.7656 0.801298 14.9219 0.881427 15.1562L3.44553 20.4687C3.52566 20.7031 3.76604 20.7812 4.00643 20.7812H5.9295V21.4844Z" fill="#349C54"/>
<path d="M5.92951 31.9531H4.00643C3.44554 31.9531 2.96477 31.6406 2.72438 31.1719L0.16028 25.8594C-0.0801046 25.4687 2.35969e-05 25 0.240408 24.6875C0.480793 24.2969 0.961562 24.0625 1.44233 24.0625H5.92951V24.8438H1.44233C1.20195 24.8438 0.961562 24.9219 0.881434 25.1563C0.801306 25.3125 0.801306 25.4688 0.881434 25.7031L3.44554 31.0156C3.52567 31.25 3.76605 31.3281 4.00643 31.3281H5.92951V31.9531Z" fill="#349C54"/>
<path d="M20.9936 10.9375H19.0706V10.1562H20.9936C21.234 10.1562 21.4744 10 21.5545 9.84375L24.1186 4.53125C24.1988 4.375 24.1988 4.14062 24.1186 3.98437C24.0385 3.82812 23.7981 3.67187 23.5577 3.67187H19.0706V2.89062H23.5577C24.0385 2.89062 24.5193 3.125 24.7597 3.51562C25 3.90625 25 4.375 24.8398 4.76562L22.2757 10.1562C22.0353 10.625 21.5545 10.9375 20.9936 10.9375Z" fill="#349C54"/>
<path d="M20.9936 21.4844H19.0706V20.7031H20.9936C21.234 20.7031 21.4744 20.5469 21.5545 20.3906L24.1186 15.0781C24.1988 14.9219 24.1988 14.6875 24.1186 14.5312C24.0385 14.375 23.7981 14.2187 23.5577 14.2187H19.0706V13.4375H23.5577C24.0385 13.4375 24.5193 13.6719 24.7597 14.0625C25 14.4531 25 14.9219 24.8398 15.3125L22.2757 20.625C22.0353 21.1719 21.5545 21.4844 20.9936 21.4844Z" fill="#349C54"/>
<path d="M20.9936 31.9531H19.0706V31.1719H20.9936C21.234 31.1719 21.4744 31.0156 21.5545 30.8594L24.1186 25.5469C24.1988 25.3906 24.1988 25.1562 24.1186 25C24.0385 24.8437 23.7981 24.6875 23.5577 24.6875H19.0706V23.9062H23.5577C24.0385 23.9062 24.5193 24.1406 24.7597 24.5312C25 24.9219 25 25.3906 24.8398 25.7812L22.2757 31.0937C22.0353 31.6406 21.5545 31.9531 20.9936 31.9531Z" fill="#349C54"/>
<path d="M12.5 11.0156C10.2565 11.0156 8.33337 9.21875 8.33337 6.95312C8.33337 4.76562 10.1763 2.89062 12.5 2.89062C14.8238 2.89062 16.6667 4.6875 16.6667 6.95312C16.5866 9.21875 14.7436 11.0156 12.5 11.0156ZM12.5 3.75C10.6571 3.75 9.13466 5.23438 9.13466 7.03125C9.13466 8.82812 10.6571 10.3125 12.5 10.3125C14.343 10.3125 15.8654 8.82812 15.8654 7.03125C15.8654 5.23438 14.2629 3.75 12.5 3.75Z" fill="#349C54"/>
<path d="M12.5 9.54522C10.9983 9.54522 9.78259 8.35901 9.78259 6.8937C9.78259 5.42839 10.9983 4.24219 12.5 4.24219C14.0017 4.24219 15.2174 5.42839 15.2174 6.8937C15.2174 8.35901 13.9302 9.54522 12.5 9.54522ZM12.5 5.00973C11.4273 5.00973 10.4977 5.84705 10.4977 6.96348C10.4977 8.07991 11.3558 8.91723 12.5 8.91723C13.6441 8.91723 14.5023 8.07991 14.5023 6.96348C14.5023 5.84705 13.5726 5.00973 12.5 5.00973Z" fill="#349C54"/>
<path d="M12.5 21.5625C10.2565 21.5625 8.33337 19.7656 8.33337 17.5C8.33337 15.2344 10.1763 13.4375 12.5 13.4375C14.8238 13.4375 16.6667 15.2344 16.6667 17.5C16.6667 19.7656 14.7436 21.5625 12.5 21.5625ZM12.5 14.2969C10.6571 14.2969 9.13466 15.7812 9.13466 17.5781C9.13466 19.375 10.6571 20.8594 12.5 20.8594C14.343 20.8594 15.8654 19.375 15.8654 17.5781C15.8654 15.7812 14.343 14.2969 12.5 14.2969Z" fill="#349C54"/>
<path d="M12.5 32.0312C10.2565 32.0312 8.33337 30.2344 8.33337 27.9687C8.33337 25.7031 10.1763 23.9062 12.5 23.9062C14.8238 23.9062 16.6667 25.7031 16.6667 27.9687C16.6667 30.2344 14.7436 32.0312 12.5 32.0312ZM12.5 24.7656C10.6571 24.7656 9.13466 26.25 9.13466 28.0469C9.13466 29.8437 10.6571 31.3281 12.5 31.3281C14.343 31.3281 15.8654 29.8437 15.8654 28.0469C15.8654 26.25 14.343 24.7656 12.5 24.7656Z" fill="#349C54"/>
</svg>
