<svg width="51" height="49" viewBox="0 0 51 49" fill="none" xmlns="http://www.w3.org/2000/svg">
<path d="M6.11646 16.9688H26.703" stroke="#009935" stroke-width="1.5" stroke-miterlimit="10"/>
<path d="M6.1442 20.7866H23.5944" stroke="#009935" stroke-width="1.5" stroke-miterlimit="10"/>
<path d="M16.5132 36.9175H26.4962" stroke="#009935" stroke-width="1.5" stroke-miterlimit="10"/>
<path d="M16.5132 40.5405H26.4962" stroke="#009935" stroke-width="1.5" stroke-miterlimit="10"/>
<path d="M6.1442 24.7866H22.676" stroke="#009935" stroke-width="1.5" stroke-miterlimit="10"/>
<path d="M13.7666 38.7287C13.7666 40.9772 12.1068 42.6888 10.1907 42.6888C8.27452 42.6888 6.61472 40.9772 6.61472 38.7287C6.61472 36.4802 8.27452 34.7686 10.1907 34.7686C12.1068 34.7686 13.7666 36.4802 13.7666 38.7287Z" stroke="#009935" stroke-width="1.5"/>
<path d="M41.2131 25.7866C41.2131 31.5089 36.9669 36.0366 31.8603 36.0366C26.7537 36.0366 22.5076 31.5089 22.5076 25.7866C22.5076 20.0644 26.7537 15.5366 31.8603 15.5366C36.9669 15.5366 41.2131 20.0644 41.2131 25.7866Z" stroke="#009935" stroke-width="1.5"/>
<path d="M39.2078 32.2866L50.229 44.2866" stroke="#009935" stroke-width="1.5"/>
<path fill-rule="evenodd" clip-rule="evenodd" d="M0.75 0H0V0.75V47.7867V48.5367H0.75H31.3157H32.0657V47.7867V36.7844C31.9974 36.7859 31.929 36.7866 31.8604 36.7866C31.4217 36.7866 30.9896 36.7562 30.5657 36.6971V47.0367H1.5V1.5H30.5657V14.8761C30.9896 14.8171 31.4217 14.7866 31.8604 14.7866C31.929 14.7866 31.9974 14.7874 32.0657 14.7888V0.75V0H31.3157H0.75Z" fill="#009935"/>
</svg>
