<svg width="38" height="30" viewBox="0 0 38 30" fill="none" xmlns="http://www.w3.org/2000/svg">
<g clip-path="url(#clip0)">
<path d="M34.1136 29.7884H22.2386C21.375 29.7178 20.6553 29.012 20.6553 28.1649V20.1884C20.6553 19.412 21.303 18.7061 22.1666 18.7061C22.2386 18.7061 22.3106 18.7061 22.3825 18.7061C22.7424 18.3531 23.1022 18.0708 23.3901 17.7884C23.606 17.5767 23.8219 17.3649 23.9659 17.2237C26.5568 14.7531 27.2045 13.6943 27.4204 13.412C27.5644 13.1296 27.7803 12.8472 27.8522 12.6355L27.9962 11.7884C28.0682 11.3649 28.2841 10.9414 28.6439 10.659C29.0038 10.3767 29.4356 10.2355 29.9394 10.3061H30.1553C31.0909 10.4473 31.7386 11.2943 31.5947 12.212L31.2348 14.6825V14.7531C31.0189 15.1061 30.875 15.459 30.731 15.7414C30.5871 15.9531 30.4432 16.1649 30.3712 16.3767L30.2992 16.4472C30.0833 16.8708 29.9394 17.0825 30.0113 17.3649C30.0113 17.4355 30.0833 17.5061 30.1553 17.5767L36.3447 17.5061C37.2803 17.5061 38 18.212 38 19.1296C38 19.9061 37.5681 20.612 36.9204 20.9649C37.2083 21.1767 37.3522 21.5296 37.3522 21.8825V22.0943C37.3522 22.9414 36.8484 23.7178 36.0568 24.0002C36.2727 24.212 36.4166 24.4943 36.4166 24.8472V24.9884C36.4166 25.7649 35.9848 26.4708 35.2651 26.8237C35.553 27.0355 35.7689 27.3884 35.7689 27.812V28.0237C35.7689 29.012 35.0492 29.7884 34.1136 29.7884ZM22.1666 19.3414C21.6628 19.3414 21.303 19.7649 21.303 20.1884V28.0943C21.303 28.659 21.7348 29.0825 22.3106 29.1531H22.3825H34.1856C34.7613 29.1531 35.2651 28.659 35.2651 28.0943V27.8825C35.2651 27.5296 35.0492 27.3178 34.6894 27.2472C34.6174 27.2472 34.5454 27.1767 34.4735 27.1061C34.4015 27.0355 34.4015 26.9649 34.4015 26.8943V26.7531C34.4015 26.612 34.5454 26.5414 34.6174 26.5414C35.3371 26.4002 35.8409 25.7649 35.8409 25.059V24.9178C35.8409 24.6355 35.625 24.3531 35.2651 24.3531C35.1931 24.3531 35.1212 24.2825 35.0492 24.212C34.9772 24.1414 34.9772 24.0708 34.9772 24.0002V23.859C34.9772 23.7178 35.1212 23.6472 35.2651 23.6472C36.0568 23.5767 36.7045 22.9414 36.7045 22.1649V21.9531C36.7045 21.6002 36.4166 21.3178 36.1288 21.3178C35.9848 21.3178 35.7689 21.1767 35.7689 21.0355V20.9649C35.7689 20.8237 35.9128 20.6825 36.0568 20.6825C36.8484 20.612 37.4242 19.9767 37.4242 19.2002H37.7121H37.4242C37.4242 18.6355 36.9204 18.1414 36.3447 18.1414L30.0833 18.212C30.0113 18.212 29.9394 18.212 29.8674 18.1414C29.6515 18.0002 29.5075 17.7884 29.4356 17.5767C29.2916 17.0825 29.5075 16.659 29.7954 16.2355L29.8674 16.1649C29.9394 15.9531 30.0833 15.812 30.2272 15.5296C30.3712 15.2473 30.5151 14.9649 30.731 14.612L31.0189 12.212C31.0909 11.6472 30.6591 11.0825 30.0833 11.012H29.8674C29.5795 10.9414 29.2916 11.0825 29.0757 11.2237C28.8598 11.4355 28.7159 11.6472 28.6439 11.9296L28.5 12.8473C28.5 12.9178 28.5 12.9178 28.5 12.9178C28.356 13.2002 28.2121 13.4825 27.9962 13.7649C27.7803 14.1178 27.0606 15.1767 24.4697 17.7178C24.3257 17.859 24.1098 18.0708 23.8939 18.2825C23.5341 18.5649 23.1742 18.9178 22.7424 19.3414C22.6704 19.412 22.5265 19.412 22.4545 19.412C22.3106 19.3414 22.2386 19.3414 22.1666 19.3414Z" fill="#349C54"/>
<path d="M22.1666 29.7882C21.375 29.7882 20.6553 29.1529 20.6553 28.3059V28.1647C20.6553 28.0235 20.7992 27.8823 20.9432 27.8823C21.0871 27.8823 21.231 28.0235 21.231 28.1647C21.231 28.7294 21.6628 29.1529 22.2386 29.2235C22.3825 29.2235 22.5265 29.3647 22.5265 29.5059C22.5265 29.647 22.4545 29.7882 22.2386 29.7882H22.1666Z" fill="#349C54"/>
<path d="M19.5758 30H15.6175C15.4735 30 15.3296 29.8589 15.3296 29.7177V19.2706C15.3296 19.1295 15.4735 18.9883 15.6175 18.9883H19.5038C19.6478 18.9883 19.7917 19.1295 19.7917 19.2706V20.3295V29.7177C19.8637 29.8589 19.7917 30 19.5758 30ZM15.9773 29.3648H19.2879V19.4824H15.9773V29.3648Z" fill="#349C54"/>
<path d="M17.7765 28.447C17.2727 28.447 16.9128 28.0235 16.9128 27.6C16.9128 27.1765 17.2727 26.7529 17.7765 26.7529C18.2803 26.7529 18.6401 27.1765 18.6401 27.6C18.6401 28.0235 18.2803 28.447 17.7765 28.447ZM17.7765 27.3176C17.6325 27.3176 17.4886 27.4588 17.4886 27.6C17.4886 27.7412 17.6325 27.8823 17.7765 27.8823C17.9204 27.8823 18.0644 27.7412 18.0644 27.6C18.0644 27.4588 17.9204 27.3176 17.7765 27.3176Z" fill="#349C54"/>
<path d="M5.90152 18.8471C5.82955 18.8471 5.82955 18.8471 5.75758 18.8471C5.61364 18.7765 5.54167 18.6353 5.54167 18.4941V15.3882H5.39773C2.44697 15.3882 0 13.2706 0 10.7294V4.65882C0 2.11765 2.375 0 5.39773 0H21.375C24.3258 0 26.7727 2.11765 26.7727 4.65882V10.6588C26.7727 13.2706 24.3977 15.3176 21.375 15.3176H10.0758L6.04545 18.7059C6.04545 18.7765 5.97348 18.8471 5.90152 18.8471ZM5.39773 0.705882C2.80682 0.705882 0.719697 2.47059 0.719697 4.65882V10.6588C0.719697 12.8471 2.80682 14.6118 5.39773 14.6118H5.90152C6.11742 14.6118 6.26136 14.7529 6.26136 14.9647V17.6471L9.78788 14.6824C9.85985 14.6118 9.93182 14.6118 10.0038 14.6118H21.375C23.9659 14.6118 26.053 12.8471 26.053 10.6588V4.65882C26.053 2.47059 23.9659 0.705882 21.375 0.705882H5.39773Z" fill="#349C54"/>
<path d="M4.31818 10.5883C4.24621 10.5883 4.17424 10.5883 4.10227 10.5177C3.95833 10.4471 3.95833 10.3059 3.95833 10.1647L4.24621 8.5412L3.02272 7.41179C2.87878 7.27061 2.87878 7.12943 2.87878 7.05885C2.95075 6.91767 3.02272 6.84708 3.16666 6.84708L4.82197 6.63532L5.54166 5.15296C5.6856 4.9412 6.04545 4.9412 6.18939 5.15296L6.90909 6.63532L8.56439 6.84708C8.70833 6.84708 8.7803 6.98826 8.85227 7.05885C8.92424 7.20002 8.85227 7.3412 8.7803 7.41179L7.55681 8.5412L7.84469 10.1647C7.84469 10.3059 7.84469 10.4471 7.70075 10.5177C7.55681 10.5883 7.41287 10.5883 7.3409 10.5177L5.82954 9.7412L4.46212 10.5883C4.39015 10.5883 4.31818 10.5883 4.31818 10.5883ZM5.97348 9.03532C6.04545 9.03532 6.11742 9.03532 6.11742 9.10591L7.12499 9.60002L6.98106 8.47061C6.98106 8.32943 6.98106 8.25885 7.05303 8.18826L7.91666 7.41179L6.76515 7.27061C6.62121 7.27061 6.54924 7.20002 6.47727 7.05885L5.97348 6.00002L5.46969 7.05885C5.39772 7.12943 5.32575 7.20002 5.18181 7.27061L4.0303 7.41179L4.89394 8.18826C4.9659 8.25885 5.03787 8.40002 4.9659 8.47061L4.75 9.60002L5.75757 9.10591C5.82954 9.03532 5.90151 9.03532 5.97348 9.03532Z" fill="#349C54"/>
<path d="M14.9697 10.6588C14.8977 10.6588 14.8257 10.6588 14.8257 10.5883L13.3144 9.81178L11.803 10.5883C11.6591 10.6588 11.5151 10.6588 11.4432 10.5883C11.2992 10.5177 11.2992 10.3765 11.2992 10.2353L11.5871 8.61178L10.3636 7.48237C10.2917 7.41178 10.2197 7.27061 10.2917 7.12943C10.3636 6.98825 10.4356 6.91766 10.5795 6.91766L12.2348 6.56472L12.9545 5.08237C13.0265 4.94119 13.1704 4.87061 13.2424 4.87061C13.3863 4.87061 13.5303 4.94119 13.5303 5.08237L14.25 6.56472L15.9053 6.77649C16.0492 6.77649 16.1212 6.91766 16.1932 6.98825C16.2651 7.12943 16.1932 7.27061 16.1212 7.34119L14.8977 8.47061L15.1856 10.0941C15.1856 10.2353 15.1856 10.3765 15.0417 10.4471C15.1136 10.5883 15.0417 10.6588 14.9697 10.6588ZM11.3712 7.41178L12.2348 8.18825C12.3068 8.25884 12.3788 8.40002 12.3068 8.47061L12.0909 9.60002L13.0985 9.1059C13.1704 9.03531 13.3144 9.03531 13.4583 9.1059L14.4659 9.60002L14.25 8.47061C14.25 8.32943 14.25 8.25884 14.322 8.18825L15.1856 7.41178L14.0341 7.27061C13.8901 7.27061 13.8182 7.20002 13.7462 7.05884L13.2424 6.07061L12.7386 7.05884C12.6667 7.12943 12.5947 7.20002 12.4507 7.27061L11.3712 7.41178Z" fill="#349C54"/>
<path d="M21.8789 10.5885C21.8069 10.5885 21.7349 10.5885 21.7349 10.5179L20.2236 9.74141L18.7122 10.5885C18.5683 10.6591 18.4243 10.6591 18.3523 10.5885C18.2084 10.5179 18.2084 10.3767 18.2084 10.2355L18.4963 8.61199L17.2728 7.41199C17.2008 7.34141 17.1289 7.20023 17.2008 7.05905C17.2728 6.91788 17.3448 6.84729 17.4887 6.84729L19.144 6.63552L19.8637 5.15317C19.9357 5.01199 20.0796 4.94141 20.1516 4.94141C20.2955 4.94141 20.4395 5.01199 20.4395 5.15317L21.1592 6.63552L22.8145 6.84729C22.9584 6.84729 23.0304 6.98847 23.1023 7.05905C23.1743 7.20023 23.1023 7.34141 23.0304 7.41199L21.8069 8.54141L22.0948 10.1649C22.0948 10.3061 22.0948 10.4473 21.9508 10.5179C22.0228 10.5885 21.9508 10.5885 21.8789 10.5885ZM18.2804 7.41199L19.144 8.18847C19.216 8.25905 19.288 8.40023 19.216 8.47082L19.0001 9.60023L20.0076 9.10611C20.0796 9.03552 20.2236 9.03552 20.3675 9.10611L21.3751 9.60023L21.1592 8.47082C21.1592 8.32964 21.1592 8.25905 21.2311 8.18847L22.0948 7.41199L20.9433 7.27082C20.7993 7.27082 20.7273 7.20023 20.6554 7.05905L20.1516 6.07082L19.6478 7.05905C19.5758 7.12964 19.5039 7.20023 19.3599 7.27082L18.2804 7.41199Z" fill="#349C54"/>
</g>
<defs>
<clipPath id="clip0">
<rect width="38" height="30" fill="white"/>
</clipPath>
</defs>
</svg>
