<svg width="26" height="32" viewBox="0 0 26 32" fill="none" xmlns="http://www.w3.org/2000/svg">
<g clip-path="url(#clip0)">
<path d="M23 32H0.416667C0.166667 32 0 31.832 0 31.5801V7.13911C0 7.05512 0 6.88714 0.0833333 6.88714L6.41667 0.167979C6.58333 0.0839895 6.66667 0 6.75 0H23C23.25 0 23.4167 0.167979 23.4167 0.419948V12.5984C23.4167 12.8504 23.25 13.0184 23 13.0184H9.75V21.5853H23C23.25 21.5853 23.4167 21.7533 23.4167 22.0053V31.5801C23.4167 31.832 23.25 32 23 32ZM0.833333 31.1601H22.5833V22.4252H9.33333C9.08333 22.4252 8.91667 22.2572 8.91667 22.0053V12.5984C8.91667 12.3465 9.08333 12.1785 9.33333 12.1785H22.5833V0.839895H6.91667L0.833333 7.30709V31.1601Z" fill="#349C54"/>
<path d="M25.5833 22.4249H9.33329C9.08329 22.4249 8.91663 22.257 8.91663 22.005V12.5982C8.91663 12.3462 9.08329 12.1782 9.33329 12.1782H25.5833C25.8333 12.1782 26 12.3462 26 12.5982V22.005C26 22.257 25.8333 22.4249 25.5833 22.4249ZM9.74996 21.585H25.1666V13.0181H9.74996V21.585Z" fill="#349C54"/>
<path d="M0.416667 7.55906C0.25 7.55906 0.0833333 7.47507 0 7.30709C0 7.13911 0 6.97113 0.0833333 6.88714L6.41667 0.167979C6.58333 0 6.75 0 6.91667 0C7.08333 0.0839895 7.16667 0.251969 7.16667 0.419948V7.13911C7.16667 7.39108 7 7.55906 6.75 7.55906C4.66667 7.55906 2.5 7.55906 0.416667 7.55906ZM6.33333 1.51181L1.41667 6.71916C3.08333 6.71916 4.75 6.71916 6.41667 6.71916V1.51181H6.33333Z" fill="#349C54"/>
<path d="M15.4167 1.76367H13.8334V3.35947H15.4167V1.76367Z" fill="#349C54"/>
<path d="M18.25 1.76367H16.6666V3.35947H18.25V1.76367Z" fill="#349C54"/>
<path d="M21 1.76367H19.4166V3.35947H21V1.76367Z" fill="#349C54"/>
</g>
<defs>
<clipPath id="clip0">
<rect width="26" height="32" fill="white"/>
</clipPath>
</defs>
</svg>
