<svg width="34" height="37" viewBox="0 0 34 37" fill="none" xmlns="http://www.w3.org/2000/svg">
<g clip-path="url(#clip0)">
<path d="M18.2235 27.7818H4.63635V2.86082C4.63635 1.27148 5.92423 0 7.53408 0H26.8523C27.0454 0 27.2386 0 27.4318 0.0635739C27.4962 0.0635739 27.625 0.127148 27.6894 0.127148C27.7538 0.127148 27.8182 0.190722 27.8826 0.190722C27.947 0.190722 28.0114 0.254296 28.0757 0.254296C28.2689 0.317869 28.3977 0.445017 28.5909 0.572165C28.6553 0.572165 28.6553 0.635739 28.7197 0.635739C28.7841 0.699313 28.8485 0.762887 28.9129 0.82646L28.5265 1.33505C28.0757 1.08076 27.5606 1.01718 27.2386 1.33505C26.8523 1.58935 26.8523 2.09794 26.8523 2.16151V2.28866V18.4364H19.1894C18.6742 18.4364 18.2235 18.8814 18.2235 19.39V27.7818ZM5.28029 27.146H17.5795V19.4536C17.5795 18.5636 18.2879 17.8643 19.1894 17.8643H26.1439V2.16151C26.1439 2.03436 26.2083 1.33505 26.7879 0.82646C26.8523 0.762887 26.9811 0.699313 27.0454 0.635739C26.9811 0.635739 26.8523 0.635739 26.7879 0.635739H7.46969C6.3106 0.635739 5.28029 1.65292 5.28029 2.86082V27.146Z" fill="#349C54"/>
<path d="M27.303 0.699279C27.1742 0.635705 26.981 0.635705 26.8522 0.635705H26.4659L26.4015 -3.40231e-05C26.7235 -0.0636079 27.0454 -3.40212e-05 27.3674 0.0635399L27.303 0.699279Z" fill="#349C54"/>
<path d="M18.2235 32.4862H2.89773C1.28788 32.4862 0 31.2147 0 29.6254V27.146H18.2235V32.4862ZM0.643939 27.7817V29.6254C0.643939 30.8333 1.67424 31.8505 2.89773 31.8505H17.5795V27.7817H0.643939Z" fill="#349C54"/>
<path d="M11.2045 10.7442C8.95073 10.7442 7.14771 8.96413 7.14771 6.73904C7.14771 4.51396 8.95073 2.73389 11.2045 2.73389C13.4583 2.73389 15.2613 4.51396 15.2613 6.73904C15.2613 8.96413 13.4583 10.7442 11.2045 10.7442ZM11.2045 3.30605C9.3371 3.30605 7.79164 4.83182 7.79164 6.67547C7.79164 8.51911 9.3371 10.0449 11.2045 10.0449C13.0719 10.0449 14.6174 8.51911 14.6174 6.67547C14.6174 4.83182 13.0719 3.30605 11.2045 3.30605Z" fill="#349C54"/>
<path d="M10.8181 9.66335H10.1742V4.06885H10.8181V9.66335Z" fill="#349C54"/>
<path d="M10.7537 7.56541C10.6893 7.56541 10.5606 7.56541 10.4962 7.56541C10.303 7.56541 10.1742 7.43826 10.1742 7.24754V4.06885C10.1742 3.87812 10.303 3.75098 10.4962 3.75098C10.5606 3.75098 10.625 3.75098 10.7537 3.75098C12.1704 3.75098 13.3939 4.57744 13.3939 5.65819C13.3939 6.73895 12.1704 7.56541 10.7537 7.56541ZM10.8181 4.38672V6.92967C11.8484 6.8661 12.6856 6.35751 12.6856 5.65819C12.6856 4.95888 11.8484 4.45029 10.8181 4.38672Z" fill="#349C54"/>
<path d="M11.5909 8.1377H9.65906V8.77343H11.5909V8.1377Z" fill="#349C54"/>
<path d="M23.5274 10.1453L18.4192 15.4385L18.8854 15.877L23.9936 10.5838L23.5274 10.1453Z" fill="#349C54"/>
<path d="M19.5758 12.5873C19.5114 12.5873 19.5114 12.5873 19.447 12.5873C18.7387 12.5237 18.2235 11.888 18.2879 11.2522C18.3523 10.5529 18.9962 10.0443 19.6402 10.1079C20.3485 10.1715 20.8637 10.8072 20.7993 11.443C20.7993 12.0787 20.2197 12.5873 19.5758 12.5873ZM19.5758 10.7436C19.2538 10.7436 18.9962 10.9979 18.9318 11.3158C18.9318 11.6337 19.125 11.9515 19.5114 12.0151C19.8334 12.0151 20.1553 11.8244 20.2197 11.443C20.2197 11.0615 19.9621 10.7436 19.5758 10.7436C19.6402 10.7436 19.5758 10.7436 19.5758 10.7436Z" fill="#349C54"/>
<path d="M22.6666 15.9569C22.6022 15.9569 22.6022 15.9569 22.5378 15.9569C22.2159 15.9569 21.8939 15.7662 21.7007 15.5119C21.5075 15.2576 21.3787 14.9397 21.4431 14.6219C21.5075 13.9225 22.1515 13.414 22.7954 13.4775C23.1174 13.4775 23.4394 13.6683 23.6325 13.9225C23.8257 14.1768 23.9545 14.4947 23.8901 14.8126C23.8901 15.5119 23.3106 15.9569 22.6666 15.9569ZM22.6666 14.1133C22.3447 14.1133 22.0871 14.3676 22.0227 14.6854C22.0227 14.8762 22.0871 15.0033 22.1515 15.1305C22.2159 15.2576 22.4091 15.3212 22.6022 15.3212C22.7954 15.3212 22.9242 15.2576 23.053 15.194C23.1818 15.0669 23.2462 14.9397 23.2462 14.749C23.2462 14.5583 23.1818 14.4311 23.1174 14.304C23.053 14.1768 22.9242 14.1133 22.6666 14.1133C22.731 14.1133 22.6666 14.1133 22.6666 14.1133Z" fill="#349C54"/>
<path d="M22.6667 3.36963H15.7122V4.00537H22.6667V3.36963Z" fill="#349C54"/>
<path d="M24.1478 5.40381H16.0985V6.03955H24.1478V5.40381Z" fill="#349C54"/>
<path d="M23.9545 7.31104H15.9053V7.94677H23.9545V7.31104Z" fill="#349C54"/>
<path d="M15.0682 12.4604H7.01892V13.0962H15.0682V12.4604Z" fill="#349C54"/>
<path d="M15.0682 14.4312H7.01892V15.0669H15.0682V14.4312Z" fill="#349C54"/>
<path d="M15.0682 16.4023H7.01892V17.0381H15.0682V16.4023Z" fill="#349C54"/>
<path d="M13.9091 18.1821H7.01892V18.8179H13.9091V18.1821Z" fill="#349C54"/>
<path d="M17.9015 20.2803H7.01892V20.916H17.9015V20.2803Z" fill="#349C54"/>
<path d="M17.9015 22.1235H7.01892V22.7593H17.9015V22.1235Z" fill="#349C54"/>
<path d="M15.0682 24.0308H7.01892V24.6665H15.0682V24.0308Z" fill="#349C54"/>
<path d="M32.3901 37H19.1893C18.2878 37 17.5795 36.3007 17.5795 35.4107V19.4536C17.5795 18.5636 18.2878 17.8643 19.1893 17.8643H32.3901C33.2916 17.8643 33.9999 18.5636 33.9999 19.4536V35.4107C33.9999 36.2371 33.2916 37 32.3901 37ZM19.1893 18.4364C18.6742 18.4364 18.2234 18.8814 18.2234 19.39V35.3471C18.2234 35.8557 18.6742 36.3007 19.1893 36.3007H32.3901C32.9052 36.3007 33.356 35.8557 33.356 35.3471V19.4536C33.356 18.945 32.9052 18.5 32.3901 18.5H19.1893V18.4364Z" fill="#349C54"/>
<path d="M31.1667 23.3951H20.1553C19.5758 23.3951 19.125 22.9501 19.125 22.3779V20.5343C19.125 19.9621 19.5758 19.5171 20.1553 19.5171H31.2311C31.8106 19.5171 32.2614 19.9621 32.2614 20.5343V22.3779C32.197 22.9501 31.7462 23.3951 31.1667 23.3951ZM20.1553 20.1528C19.9621 20.1528 19.7689 20.3435 19.7689 20.5343V22.3779C19.7689 22.5686 19.9621 22.7594 20.1553 22.7594H31.2311C31.4242 22.7594 31.6174 22.5686 31.6174 22.3779V20.5343C31.6174 20.3435 31.4242 20.1528 31.2311 20.1528H20.1553Z" fill="#349C54"/>
<path d="M20.7348 29.8162C20.0909 29.8162 19.5114 29.3076 19.5114 28.6083C19.5114 27.909 20.0265 27.4004 20.7348 27.4004C21.4432 27.4004 21.9583 27.909 21.9583 28.6083C21.9583 29.3076 21.4432 29.8162 20.7348 29.8162ZM20.7348 28.0997C20.4129 28.0997 20.1553 28.354 20.1553 28.6719C20.1553 28.9897 20.4129 29.244 20.7348 29.244C21.0568 29.244 21.3144 28.9897 21.3144 28.6719C21.3144 28.354 21.0568 28.0997 20.7348 28.0997Z" fill="#349C54"/>
<path d="M20.7348 32.6136C20.0909 32.6136 19.5114 32.105 19.5114 31.4057C19.5114 30.7063 20.0265 30.1978 20.7348 30.1978C21.4432 30.1978 21.9583 30.7063 21.9583 31.4057C21.9583 32.105 21.4432 32.6136 20.7348 32.6136ZM20.7348 30.8971C20.4129 30.8971 20.1553 31.1514 20.1553 31.4692C20.1553 31.7871 20.4129 32.0414 20.7348 32.0414C21.0568 32.0414 21.3144 31.7871 21.3144 31.4692C21.3144 31.1514 21.0568 30.8971 20.7348 30.8971Z" fill="#349C54"/>
<path d="M20.7348 35.156C20.0909 35.156 19.5114 34.6475 19.5114 33.9481C19.5114 33.2488 20.0265 32.7402 20.7348 32.7402C21.4432 32.7402 21.9583 33.2488 21.9583 33.9481C21.9583 34.6475 21.4432 35.156 20.7348 35.156ZM20.7348 33.376C20.4129 33.376 20.1553 33.6303 20.1553 33.9481C20.1553 34.266 20.4129 34.5203 20.7348 34.5203C21.0568 34.5203 21.3144 34.266 21.3144 33.9481C21.3144 33.6303 21.0568 33.376 20.7348 33.376Z" fill="#349C54"/>
<path d="M24.2121 29.8162C23.5682 29.8162 22.9886 29.3076 22.9886 28.6083C22.9886 27.909 23.5038 27.4004 24.2121 27.4004C24.9205 27.4004 25.4356 27.909 25.4356 28.6083C25.4356 29.3076 24.9205 29.8162 24.2121 29.8162ZM24.2121 28.0997C23.8902 28.0997 23.6326 28.354 23.6326 28.6719C23.6326 28.9897 23.8902 29.244 24.2121 29.244C24.5341 29.244 24.7917 28.9897 24.7917 28.6719C24.7917 28.354 24.5341 28.0997 24.2121 28.0997Z" fill="#349C54"/>
<path d="M27.6894 29.8162C27.0455 29.8162 26.4659 29.3076 26.4659 28.6083C26.4659 27.909 26.9811 27.4004 27.6894 27.4004C28.3978 27.4004 28.9129 27.909 28.9129 28.6083C28.9129 29.3076 28.3334 29.8162 27.6894 29.8162ZM27.6894 28.0997C27.3675 28.0997 27.1099 28.354 27.1099 28.6719C27.1099 28.9897 27.3675 29.244 27.6894 29.244C28.0114 29.244 28.269 28.9897 28.269 28.6719C28.269 28.354 28.0114 28.0997 27.6894 28.0997Z" fill="#349C54"/>
<path d="M27.6894 32.6136C27.0455 32.6136 26.4659 32.105 26.4659 31.4057C26.4659 30.7063 26.9811 30.1978 27.6894 30.1978C28.3978 30.1978 28.9129 30.7063 28.9129 31.4057C28.9129 32.105 28.3334 32.6136 27.6894 32.6136ZM27.6894 30.8971C27.3675 30.8971 27.1099 31.1514 27.1099 31.4692C27.1099 31.7871 27.3675 32.0414 27.6894 32.0414C28.0114 32.0414 28.269 31.7871 28.269 31.4692C28.269 31.1514 28.0114 30.8971 27.6894 30.8971Z" fill="#349C54"/>
<path d="M24.2121 32.6136C23.5682 32.6136 22.9886 32.105 22.9886 31.4057C22.9886 30.7063 23.5038 30.1978 24.2121 30.1978C24.9205 30.1978 25.4356 30.7063 25.4356 31.4057C25.4356 32.105 24.9205 32.6136 24.2121 32.6136ZM24.2121 30.8971C23.8902 30.8971 23.6326 31.1514 23.6326 31.4692C23.6326 31.7871 23.8902 32.0414 24.2121 32.0414C24.5341 32.0414 24.7917 31.7871 24.7917 31.4692C24.7917 31.1514 24.5341 30.8971 24.2121 30.8971Z" fill="#349C54"/>
<path d="M24.2121 35.156C23.5682 35.156 22.9886 34.6475 22.9886 33.9481C22.9886 33.2488 23.5038 32.7402 24.2121 32.7402C24.9205 32.7402 25.4356 33.2488 25.4356 33.9481C25.4356 34.6475 24.9205 35.156 24.2121 35.156ZM24.2121 33.376C23.8902 33.376 23.6326 33.6303 23.6326 33.9481C23.6326 34.266 23.8902 34.5203 24.2121 34.5203C24.5341 34.5203 24.7917 34.266 24.7917 33.9481C24.7917 33.6303 24.5341 33.376 24.2121 33.376Z" fill="#349C54"/>
<path d="M27.6894 35.156C27.0455 35.156 26.4659 34.6475 26.4659 33.9481C26.4659 33.2488 26.9811 32.7402 27.6894 32.7402C28.3978 32.7402 28.9129 33.2488 28.9129 33.9481C28.9129 34.6475 28.3334 35.156 27.6894 35.156ZM27.6894 33.376C27.3675 33.376 27.1099 33.6303 27.1099 33.9481C27.1099 34.266 27.3675 34.5203 27.6894 34.5203C28.0114 34.5203 28.269 34.266 28.269 33.9481C28.269 33.6303 28.0114 33.376 27.6894 33.376Z" fill="#349C54"/>
<path d="M30.8447 29.8162C30.2008 29.8162 29.6212 29.3076 29.6212 28.6083C29.6212 27.909 30.1364 27.4004 30.8447 27.4004C31.553 27.4004 32.0682 27.909 32.0682 28.6083C32.0682 29.3076 31.4886 29.8162 30.8447 29.8162ZM30.8447 28.0997C30.5227 28.0997 30.2652 28.354 30.2652 28.6719C30.2652 28.9897 30.5227 29.244 30.8447 29.244C31.1667 29.244 31.4242 28.9897 31.4242 28.6719C31.4242 28.354 31.1667 28.0997 30.8447 28.0997Z" fill="#349C54"/>
<path d="M30.8447 32.6136C30.2008 32.6136 29.6212 32.105 29.6212 31.4057C29.6212 30.7063 30.1364 30.1978 30.8447 30.1978C31.553 30.1978 32.0682 30.7063 32.0682 31.4057C32.0682 32.105 31.4886 32.6136 30.8447 32.6136ZM30.8447 30.8971C30.5227 30.8971 30.2652 31.1514 30.2652 31.4692C30.2652 31.7871 30.5227 32.0414 30.8447 32.0414C31.1667 32.0414 31.4242 31.7871 31.4242 31.4692C31.4242 31.1514 31.1667 30.8971 30.8447 30.8971Z" fill="#349C54"/>
<path d="M30.8447 35.156C30.2008 35.156 29.6212 34.6475 29.6212 33.9481C29.6212 33.2488 30.1364 32.7402 30.8447 32.7402C31.553 32.7402 32.0682 33.2488 32.0682 33.9481C32.0682 34.6475 31.4886 35.156 30.8447 35.156ZM30.8447 33.376C30.5227 33.376 30.2652 33.6303 30.2652 33.9481C30.2652 34.266 30.5227 34.5203 30.8447 34.5203C31.1667 34.5203 31.4242 34.266 31.4242 33.9481C31.4242 33.6303 31.1667 33.376 30.8447 33.376Z" fill="#349C54"/>
<path d="M21.8295 26.5736H20.606C20.0265 26.5736 19.5114 26.1286 19.5114 25.4929C19.5114 24.8571 19.9621 24.4121 20.606 24.4121H21.8295C22.4091 24.4121 22.9242 24.8571 22.9242 25.4929C22.9242 26.1286 22.4091 26.5736 21.8295 26.5736ZM20.606 25.1114C20.3485 25.1114 20.1553 25.3021 20.1553 25.5564C20.1553 25.8107 20.3485 26.0015 20.606 26.0015H21.8295C22.0871 26.0015 22.2803 25.8107 22.2803 25.5564C22.2803 25.3021 22.0871 25.1114 21.8295 25.1114H20.606Z" fill="#349C54"/>
<path d="M26.4659 26.5736H25.2424C24.6629 26.5736 24.1477 26.1286 24.1477 25.4929C24.1477 24.8571 24.5985 24.4121 25.2424 24.4121H26.4659C27.0454 24.4121 27.5606 24.8571 27.5606 25.4929C27.5606 26.1286 27.0454 26.5736 26.4659 26.5736ZM25.2424 25.1114C24.9848 25.1114 24.7916 25.3021 24.7916 25.5564C24.7916 25.8107 24.9848 26.0015 25.2424 26.0015H26.4659C26.7235 26.0015 26.9166 25.8107 26.9166 25.5564C26.9166 25.3021 26.7235 25.1114 26.4659 25.1114H25.2424Z" fill="#349C54"/>
<path d="M31.1022 26.5736H29.8788C29.2992 26.5736 28.7841 26.1286 28.7841 25.4929C28.7841 24.8571 29.2348 24.4121 29.8788 24.4121H31.1022C31.6818 24.4121 32.1969 24.8571 32.1969 25.4929C32.1969 26.1286 31.6818 26.5736 31.1022 26.5736ZM29.8788 25.1114C29.6212 25.1114 29.428 25.3021 29.428 25.5564C29.428 25.8107 29.6212 26.0015 29.8788 26.0015H31.1022C31.3598 26.0015 31.553 25.8107 31.553 25.5564C31.553 25.3021 31.3598 25.1114 31.1022 25.1114H29.8788Z" fill="#349C54"/>
<path d="M28.3977 1.14435C28.3333 1.14435 28.2689 1.14435 28.2045 1.08077C28.0757 0.953625 27.9469 0.890051 27.8181 0.826477C27.6893 0.762903 27.5605 0.572181 27.6893 0.38146C27.7537 0.254312 27.9469 0.127164 28.1401 0.190738C28.3333 0.254312 28.5265 0.38146 28.6552 0.508607C28.784 0.635755 28.784 0.826477 28.7196 0.953625C28.5908 1.14435 28.5265 1.14435 28.3977 1.14435Z" fill="#349C54"/>
<path d="M29.428 6.42094H26.4659C26.2727 6.42094 26.1439 6.29379 26.1439 6.10307V2.16149C26.1439 2.03434 26.2083 1.33503 26.7879 0.826439C27.3674 0.381421 28.2045 0.381421 28.8485 0.826439C28.8485 0.826439 28.9129 0.826439 28.9129 0.890013C29.428 1.3986 29.75 2.16149 29.75 2.92438V6.16665C29.75 6.29379 29.6212 6.42094 29.428 6.42094ZM26.7879 5.7852H29.106V2.8608C29.106 2.28864 28.9129 1.71647 28.4621 1.33503C28.0757 1.08073 27.5606 1.08073 27.1742 1.33503C26.7879 1.58933 26.7879 2.09792 26.7879 2.16149V5.7852Z" fill="#349C54"/>
</g>
<defs>
<clipPath id="clip0">
<rect width="34" height="37" fill="white"/>
</clipPath>
</defs>
</svg>
