<svg width="45" height="29" viewBox="0 0 45 29" fill="none" xmlns="http://www.w3.org/2000/svg">
<g clip-path="url(#clip0)">
<path d="M43.1004 20.0515C42.9039 20.0515 42.7074 20.0515 42.5109 19.9862L21.6157 13.1281L20.8297 15.6754C20.6987 16.1326 20.3057 16.5245 19.8472 16.6551C20.0437 17.047 20.1092 17.5042 19.9782 17.9614L19.7162 18.7452C19.4542 19.5943 18.5371 20.0515 17.6856 19.7903L9.82533 17.243C8.9738 16.9817 8.51529 16.0673 8.77729 15.2182L9.0393 14.4344C9.23581 13.8466 9.75983 13.4547 10.3493 13.3241C10.2183 12.9975 10.2183 12.6056 10.2838 12.279L12.9039 4.31054C13.1004 3.85334 13.3624 3.52676 13.7555 3.39613C13.4279 3.00424 13.3624 2.4164 13.4935 1.95919L13.7555 1.11009C14.0175 0.260994 14.9345 -0.196213 15.786 0.065048L23.6463 2.61235C24.0393 2.74298 24.3668 3.00424 24.5633 3.39613C24.7598 3.78802 24.8253 4.24523 24.6288 4.63712L24.3668 5.4209C24.2358 6.00874 23.8428 6.33532 23.3188 6.53126C23.5153 6.85784 23.5153 7.31505 23.3843 7.70694L22.7948 9.47045L43.6245 16.2632C44.607 16.5898 45.1965 17.7002 44.869 18.6799C44.6725 19.529 43.8865 20.0515 43.1004 20.0515ZM21.6812 12.4096L42.7074 19.2678C43.3624 19.4637 44.083 19.1371 44.2795 18.484C44.476 17.8308 44.1485 17.1123 43.4935 16.9164L22.3362 9.99298L22.0087 9.92766L22.7948 7.51099C22.9258 7.18442 22.7948 6.79253 22.4672 6.53126L21.4847 5.8128L22.7293 5.94343C23.1878 6.00874 23.6463 5.74748 23.7773 5.29027L24.0393 4.50649C24.1048 4.24523 24.1048 3.98397 23.9738 3.78802C23.8428 3.52676 23.6463 3.39613 23.3843 3.33081L15.5895 0.718201C15.0655 0.522255 14.5415 0.783517 14.4105 1.30604L14.1485 2.08982C14.0175 2.54703 14.214 3.00424 14.607 3.20018L15.7205 3.78802H14.476C14.083 3.78802 13.7555 4.04928 13.6245 4.37586L11.0044 12.3443C10.8734 12.6709 11.0044 13.0628 11.3319 13.3241L13.0349 14.6304L11.0044 13.9119C10.4804 13.7159 9.89083 14.0425 9.75983 14.4997L9.49782 15.2835C9.30131 15.806 9.62882 16.3286 10.0873 16.5245L17.8821 19.0718C18.4061 19.2678 18.9301 18.9412 19.1266 18.484L19.3886 17.7002C19.5197 17.3083 19.3886 16.8511 18.9956 16.5898L17.8166 15.7407L19.2576 16.002C19.6507 16.0673 20.1092 15.806 20.2402 15.4141L21.2882 12.279L21.6157 12.4096V12.7362L21.6812 12.4096Z" fill="#349C54"/>
<path d="M22.4017 26.0607H7.07422V25.7341C7.07422 24.2318 8.25326 23.0562 9.75981 23.0562H19.6506C21.1572 23.0562 22.3362 24.2318 22.3362 25.7341V26.0607H22.4017ZM7.79474 25.4075H21.6812C21.5502 24.4278 20.6987 23.7093 19.6506 23.7093H9.75981C8.77728 23.7093 7.92575 24.4931 7.79474 25.4075Z" fill="#349C54"/>
<path d="M25.4803 28.9997H3.86462V28.6731C3.86462 26.9096 5.30567 25.4727 7.07423 25.4727H22.2707C24.0393 25.4727 25.4803 26.9096 25.4803 28.6731V28.9997ZM4.51965 28.3465H24.7598C24.6288 27.1055 23.5808 26.1258 22.2707 26.1258H7.07423C5.76419 26.1258 4.71615 27.1055 4.51965 28.3465Z" fill="#349C54"/>
<path d="M5.62918 11.3351L5.021 11.5776L6.57796 15.4589L7.18614 15.2164L5.62918 11.3351Z" fill="#349C54"/>
<path d="M3.93013 17.4388C3.79913 17.3735 0.393013 16.4591 0 16.3284L0.196507 15.6753C0.524018 15.8059 3.0786 16.5244 4.06114 16.7857L3.93013 17.4388Z" fill="#349C54"/>
<path d="M1.24458 23.0559V22.7293L1.17908 22.4028C1.37558 22.3374 2.94764 21.619 4.25768 20.9658L4.58519 21.5537C1.57209 23.0559 1.31008 23.0559 1.24458 23.0559Z" fill="#349C54"/>
<path d="M12.7274 14.0503L12.5264 14.6719L17.3888 16.2354L17.5898 15.6138L12.7274 14.0503Z" fill="#349C54"/>
<path d="M16.0475 3.72654L15.8464 4.34814L20.7088 5.91167L20.9099 5.29007L16.0475 3.72654Z" fill="#349C54"/>
</g>
<defs>
<clipPath id="clip0">
<rect width="45" height="29" fill="white"/>
</clipPath>
</defs>
</svg>
