<svg width="37" height="37" viewBox="0 0 37 37" fill="none" xmlns="http://www.w3.org/2000/svg">
<g clip-path="url(#clip0)">
<path d="M18.5322 25.3125C15.1744 25.3125 12.4624 22.6004 12.4624 19.2427C12.4624 15.8849 15.1744 13.1729 18.5322 13.1729C21.89 13.1729 24.602 15.8849 24.602 19.2427C24.602 22.6004 21.89 25.3125 18.5322 25.3125ZM18.5322 13.8186C15.5619 13.8186 13.1081 16.2723 13.1081 19.2427C13.1081 22.213 15.5619 24.6667 18.5322 24.6667C21.5025 24.6667 23.9563 22.213 23.9563 19.2427C23.9563 16.2078 21.5025 13.8186 18.5322 13.8186Z" fill="#349C54"/>
<path d="M20.3403 23.4401C20.2757 23.4401 20.2757 23.4401 20.2111 23.4401C19.9529 23.3755 19.7591 23.2464 19.5654 23.0526L19.0488 22.4069C18.726 22.4715 18.3385 22.4715 18.0157 22.4069L17.4991 23.0526C17.37 23.2464 17.1117 23.3755 16.8534 23.4401C16.5951 23.5046 16.3368 23.3755 16.1431 23.2464L15.3036 22.6006C15.1099 22.4715 14.9808 22.2132 14.9162 21.9549C14.8516 21.6966 14.9162 21.4383 15.1099 21.2446L15.6265 20.5343C15.5619 20.3406 15.4974 20.2115 15.4974 20.0177L14.6579 19.7594C14.1413 19.5657 13.8831 19.0492 14.0768 18.5326L14.4642 17.4348C14.6579 16.9183 15.1745 16.66 15.6911 16.8537L16.5305 17.112C16.6597 16.9828 16.8534 16.8537 16.9825 16.7891V16.1434C16.9825 15.6268 17.4345 15.1748 17.9511 15.1748H19.0488C19.5654 15.1748 20.0174 15.6268 20.0174 16.1434V16.66C20.2112 16.7891 20.4049 16.9183 20.5986 17.0474L21.438 16.7891C21.9546 16.5954 22.4712 16.9183 22.6649 17.3703L23.0523 18.468C23.2461 18.9846 22.9232 19.5012 22.4712 19.6949L21.5026 20.0177C21.5026 20.1469 21.438 20.276 21.3735 20.4697L22.0192 21.3092C22.1483 21.5029 22.2129 21.7612 22.2129 22.0195C22.1483 22.2778 22.0192 22.4715 21.8255 22.6652L20.9214 23.2464C20.7923 23.3755 20.5986 23.4401 20.3403 23.4401ZM15.3036 17.4348C15.1745 17.4348 15.0454 17.4994 14.9808 17.6286L14.6579 18.7263C14.5933 18.92 14.7225 19.0492 14.8516 19.1137L16.0785 19.5012V19.6949C16.0785 19.9532 16.2077 20.2115 16.2722 20.4052L16.3368 20.5989L15.5619 21.632C15.4974 21.6966 15.4974 21.7612 15.4974 21.8903C15.4974 21.9549 15.5619 22.0195 15.6265 22.0841L16.5305 22.7298C16.5951 22.7944 16.6597 22.7944 16.7888 22.7944C16.8534 22.7944 16.918 22.7298 16.9825 22.6652L17.6928 21.6966L17.8865 21.7612C18.274 21.8258 18.6614 21.8258 19.0488 21.7612L19.2426 21.6966L20.0174 22.6652C20.082 22.7298 20.1466 22.7944 20.2111 22.7944C20.2757 22.7944 20.4049 22.7944 20.4694 22.7298L21.3735 22.0195C21.438 21.9549 21.5026 21.8903 21.5026 21.8258C21.5026 21.7612 21.5026 21.632 21.438 21.5675L20.6632 20.5343V20.3406C20.7277 20.1469 20.7923 19.9532 20.8569 19.6949V19.5012L22.0838 19.1137C22.2775 19.0492 22.342 18.8554 22.2775 18.7263L21.89 17.6286C21.8255 17.4348 21.6317 17.3703 21.5026 17.4348L20.2757 17.8223L20.1466 17.6931C19.9529 17.4994 19.6946 17.3057 19.4363 17.1766L19.3717 17.112V16.1434C19.3717 15.9497 19.2426 15.8205 19.0488 15.8205H17.9511C17.7574 15.8205 17.6283 15.9497 17.6283 16.1434V17.112L17.4345 17.2411C17.1762 17.3703 16.9825 17.4994 16.7888 17.6931L16.6597 17.8223L15.4328 17.4348C15.3682 17.4348 15.3682 17.4348 15.3036 17.4348Z" fill="#349C54"/>
<path d="M18.5322 10.8482C17.4345 10.8482 16.4013 10.5253 15.5619 9.94415C14.0122 8.97557 13.1082 7.23211 13.1082 5.42408C13.1082 2.45375 15.4973 0 18.5322 0C21.5026 0 23.9563 2.45375 23.9563 5.42408C23.9563 7.29668 23.0523 8.97557 21.5026 9.94415C20.5986 10.5253 19.5654 10.8482 18.5322 10.8482ZM18.5322 0.645724C15.8848 0.645724 13.7539 2.77661 13.7539 5.42408C13.7539 7.03839 14.5933 8.52356 15.8848 9.42757C17.4345 10.4607 19.5654 10.4607 21.1151 9.42757C22.4712 8.52356 23.3106 7.03839 23.3106 5.42408C23.3106 2.77661 21.1797 0.645724 18.5322 0.645724Z" fill="#349C54"/>
<path d="M18.5323 7.29647C17.4991 7.29647 16.6597 6.45703 16.6597 5.42387C16.6597 4.39071 17.4991 3.55127 18.5323 3.55127C19.5654 3.55127 20.4049 4.39071 20.4049 5.42387C20.4049 6.45703 19.5654 7.29647 18.5323 7.29647ZM18.5323 4.19699C17.822 4.19699 17.3054 4.77815 17.3054 5.42387C17.3054 6.06959 17.8865 6.65075 18.5323 6.65075C19.178 6.65075 19.7591 6.06959 19.7591 5.42387C19.7591 4.77815 19.178 4.19699 18.5323 4.19699Z" fill="#349C54"/>
<path d="M18.5322 10.8482C17.4345 10.8482 16.4013 10.5254 15.5619 9.94422L15.3682 9.81508L15.4327 9.62136C15.6265 8.65278 16.3368 7.81334 17.2408 7.4259L17.3699 7.36133L17.4991 7.4259C18.0802 7.81334 18.9196 7.81334 19.5008 7.4259L19.6299 7.36133L19.7591 7.4259C20.6631 7.81334 21.3734 8.65278 21.5671 9.62136L21.6317 9.81508L21.438 9.94422C20.5985 10.5254 19.5654 10.8482 18.5322 10.8482ZM16.0785 9.55679C17.4991 10.3962 19.5008 10.3962 20.9214 9.55679C20.7277 8.91107 20.2757 8.39449 19.6945 8.07162C18.9842 8.45906 18.0156 8.45906 17.3053 8.07162C16.7242 8.39449 16.2722 8.91107 16.0785 9.55679Z" fill="#349C54"/>
<path d="M31.5759 20.9859C30.4782 20.9859 29.445 20.663 28.6056 20.0819C27.0559 19.1133 26.1519 17.3698 26.1519 15.5618C26.1519 12.5914 28.6056 10.1377 31.5759 10.1377C34.5463 10.1377 37 12.5914 37 15.5618C37 17.4344 36.096 19.1133 34.5463 20.0819C33.7068 20.663 32.6737 20.9859 31.5759 20.9859ZM31.5759 10.7834C28.9285 10.7834 26.7976 12.9143 26.7976 15.5618C26.7976 17.1761 27.637 18.6613 28.9285 19.5653C30.4782 20.5984 32.6091 20.5984 34.1588 19.5653C35.5149 18.6613 36.3543 17.1761 36.3543 15.5618C36.3543 12.9143 34.2234 10.7834 31.5759 10.7834Z" fill="#349C54"/>
<path d="M31.576 17.4347C30.5428 17.4347 29.7034 16.5952 29.7034 15.5621C29.7034 14.5289 30.5428 13.6895 31.576 13.6895C32.6091 13.6895 33.4486 14.5289 33.4486 15.5621C33.5131 16.5952 32.6091 17.4347 31.576 17.4347ZM31.576 14.3352C30.8657 14.3352 30.3491 14.9163 30.3491 15.5621C30.3491 16.2078 30.9302 16.7889 31.576 16.7889C32.2217 16.7889 32.8028 16.2078 32.8028 15.5621C32.8028 14.9163 32.2863 14.3352 31.576 14.3352Z" fill="#349C54"/>
<path d="M31.5759 20.9859C30.4782 20.9859 29.445 20.6631 28.6056 20.0819L28.4119 19.9528L28.4764 19.7591C28.6702 18.7905 29.3805 17.951 30.2845 17.5636L30.4136 17.499L30.5428 17.5636C31.1239 17.951 31.9634 17.951 32.5445 17.5636L32.6736 17.499L32.8028 17.5636C33.7068 17.951 34.4171 18.7905 34.6108 19.7591L34.6754 19.9528L34.4817 20.0819C33.7068 20.6631 32.6736 20.9859 31.5759 20.9859ZM29.1867 19.6299C30.6073 20.4694 32.6091 20.4694 34.0297 19.6299C33.836 18.9842 33.3839 18.4676 32.8028 18.1447C32.0925 18.5322 31.1239 18.5322 30.4136 18.1447C29.8325 18.4676 29.3805 19.0488 29.1867 19.6299Z" fill="#349C54"/>
<path d="M5.42408 22.084C4.32635 22.084 3.29319 21.7611 2.45375 21.18C0.904014 20.2114 0 18.468 0 16.6599C0 13.6896 2.45375 11.2358 5.42408 11.2358C8.39441 11.2358 10.8482 13.6896 10.8482 16.6599C10.8482 18.5325 9.94415 20.2114 8.39441 21.18C7.55497 21.7611 6.52181 22.084 5.42408 22.084ZM5.42408 11.817C2.77661 11.817 0.645724 13.9479 0.645724 16.5954C0.645724 18.2097 1.48517 19.6948 2.77661 20.5988C4.32635 21.632 6.45724 21.632 8.00698 20.5988C9.363 19.6948 10.2024 18.2097 10.2024 16.5954C10.2024 14.0125 8.07155 11.817 5.42408 11.817Z" fill="#349C54"/>
<path d="M5.42411 18.5323C4.39095 18.5323 3.55151 17.6929 3.55151 16.6597C3.55151 15.6266 4.39095 14.7871 5.42411 14.7871C6.45727 14.7871 7.29671 15.6266 7.29671 16.6597C7.29671 17.6929 6.45727 18.5323 5.42411 18.5323ZM5.42411 15.3683C4.71382 15.3683 4.19724 15.9494 4.19724 16.5951C4.19724 17.2409 4.77839 17.822 5.42411 17.822C6.06984 17.822 6.65099 17.2409 6.65099 16.5951C6.65099 15.9494 6.13441 15.3683 5.42411 15.3683Z" fill="#349C54"/>
<path d="M5.42406 22.0841C4.32633 22.0841 3.29317 21.7612 2.45373 21.1801L2.26001 21.0509L2.32458 20.8572C2.5183 19.8886 3.2286 19.0492 4.13261 18.6617L4.26176 18.5972L4.3909 18.6617C4.97205 19.0492 5.81149 19.0492 6.39265 18.6617L6.52179 18.5972L6.65094 18.6617C7.55495 19.0492 8.26525 19.8886 8.45896 20.8572L8.52354 21.0509L8.39439 21.1801C7.55495 21.7612 6.52179 22.0841 5.42406 22.0841ZM3.03488 20.7281C4.45547 21.5675 6.45722 21.5675 7.87781 20.7281C7.68409 20.0823 7.23209 19.5658 6.65094 19.2429C5.94064 19.6303 4.97205 19.6303 4.26176 19.2429C3.61603 19.5658 3.2286 20.1469 3.03488 20.7281Z" fill="#349C54"/>
<path d="M10.2024 36.0313C9.10467 36.0313 8.07151 35.7084 7.23207 35.1273C5.68233 34.1587 4.77832 32.4152 4.77832 30.6072C4.77832 27.6369 7.23207 25.1831 10.2024 25.1831C13.1727 25.1831 15.6265 27.6369 15.6265 30.6072C15.6265 32.4798 14.7225 34.1587 13.1727 35.1273C12.3333 35.773 11.3001 36.0313 10.2024 36.0313ZM10.2024 25.8288C7.55493 25.8288 5.42404 27.9597 5.42404 30.6072C5.42404 32.2215 6.26349 33.7067 7.55493 34.6107C9.10467 35.6438 11.2356 35.6438 12.7853 34.6107C14.1413 33.7067 14.9808 32.2215 14.9808 30.6072C14.9808 28.0243 12.8499 25.8288 10.2024 25.8288Z" fill="#349C54"/>
<path d="M10.2024 32.5445C9.16928 32.5445 8.32983 31.7051 8.32983 30.6719C8.32983 29.6388 9.16928 28.7993 10.2024 28.7993C11.2356 28.7993 12.075 29.6388 12.075 30.6719C12.075 31.7051 11.2356 32.5445 10.2024 32.5445ZM10.2024 29.3805C9.49214 29.3805 8.97556 29.9616 8.97556 30.6073C8.97556 31.2531 9.55671 31.8342 10.2024 31.8342C10.8482 31.8342 11.4293 31.2531 11.4293 30.6073C11.4293 29.9616 10.9127 29.3805 10.2024 29.3805Z" fill="#349C54"/>
<path d="M10.2024 36.0313C9.10465 36.0313 8.07149 35.7085 7.23205 35.1273L7.03833 34.9982L7.1029 34.8045C7.29662 33.8359 8.00692 32.9964 8.91093 32.609L9.04008 32.5444L9.16922 32.609C9.75037 32.9964 10.5898 32.9964 11.171 32.609L11.3001 32.5444L11.4293 32.609C12.3333 32.9964 13.0436 33.8359 13.2373 34.8045L13.3019 34.9982L13.1081 35.1273C12.3333 35.7731 11.3001 36.0313 10.2024 36.0313ZM7.8132 34.7399C9.23379 35.5793 11.2355 35.5793 12.6561 34.7399C12.4624 34.0942 12.0104 33.5776 11.4293 33.2547C10.719 33.6422 9.75037 33.6422 9.04008 33.2547C8.39435 33.5776 8.00692 34.0942 7.8132 34.7399Z" fill="#349C54"/>
<path d="M26.1519 37C25.0541 37 24.021 36.6772 23.1815 36.096C21.6318 35.1274 20.7278 33.384 20.7278 31.5759C20.7278 28.6056 23.1815 26.1519 26.1519 26.1519C29.1222 26.1519 31.576 28.6056 31.576 31.5759C31.576 33.4485 30.6719 35.1274 29.1222 36.096C28.2828 36.6772 27.2496 37 26.1519 37ZM26.1519 26.7976C23.5044 26.7976 21.3735 28.9285 21.3735 31.5759C21.3735 33.1903 22.213 34.6754 23.5044 35.5794C25.0541 36.6126 27.185 36.6126 28.7348 35.5794C30.0908 34.6754 30.9302 33.1903 30.9302 31.5759C30.9302 28.9285 28.7993 26.7976 26.1519 26.7976Z" fill="#349C54"/>
<path d="M26.1519 33.4483C25.1187 33.4483 24.2793 32.6089 24.2793 31.5757C24.2793 30.5426 25.1187 29.7031 26.1519 29.7031C27.1851 29.7031 28.0245 30.5426 28.0245 31.5757C28.0245 32.6089 27.1851 33.4483 26.1519 33.4483ZM26.1519 30.3488C25.4416 30.3488 24.925 30.93 24.925 31.5757C24.925 32.2215 25.5062 32.8026 26.1519 32.8026C26.7976 32.8026 27.3788 32.2215 27.3788 31.5757C27.3788 30.93 26.8622 30.3488 26.1519 30.3488Z" fill="#349C54"/>
<path d="M26.1518 37.0001C25.0541 37.0001 24.021 36.6772 23.1815 36.0961L22.9878 35.9669L23.0524 35.7732C23.2461 34.8046 23.9564 33.9652 24.8604 33.5778L24.9895 33.5132L25.1187 33.5778C25.6998 33.9652 26.5393 33.9652 27.1204 33.5778L27.2496 33.5132L27.3787 33.5778C28.2827 33.9652 28.993 34.8046 29.1867 35.7732L29.2513 35.9669L29.0576 36.0961C28.2827 36.6772 27.2496 37.0001 26.1518 37.0001ZM23.6981 35.7086C25.1187 36.5481 27.1204 36.5481 28.541 35.7086C28.3473 35.0629 27.8953 34.5463 27.3141 34.2235C26.6038 34.6109 25.6353 34.6109 24.925 34.2235C24.3438 34.5463 23.8918 35.0629 23.6981 35.7086Z" fill="#349C54"/>
<path d="M18.853 10.5249L18.2073 10.5259L18.2116 13.4316L18.8574 13.4307L18.853 10.5249Z" fill="#349C54"/>
<path d="M18.5323 20.9862C17.6928 20.9862 16.9825 20.2759 16.9825 19.4365C16.9825 18.597 17.6928 17.8867 18.5323 17.8867C19.3717 17.8867 20.082 18.597 20.082 19.4365C20.082 20.3405 19.3717 20.9862 18.5323 20.9862ZM18.5323 18.597C18.0157 18.597 17.6283 18.9844 17.6283 19.501C17.6283 20.0176 18.0157 20.405 18.5323 20.405C19.0489 20.405 19.4363 20.0176 19.4363 19.501C19.4363 18.9844 18.9843 18.597 18.5323 18.597Z" fill="#349C54"/>
<path d="M10.6191 17.5031L10.5134 18.1401L12.8067 18.5204L12.9123 17.8834L10.6191 17.5031Z" fill="#349C54"/>
<path d="M14.8742 23.7214L12.905 26.2798L13.4167 26.6736L15.3858 24.1153L14.8742 23.7214Z" fill="#349C54"/>
<path d="M22.108 23.7131L21.5669 24.0654L23.575 27.1498L24.1162 26.7975L22.108 23.7131Z" fill="#349C54"/>
<path d="M26.5701 16.5593L23.9272 17.1685L24.0723 17.7977L26.7152 17.1886L26.5701 16.5593Z" fill="#349C54"/>
</g>
<defs>
<clipPath id="clip0">
<rect width="37" height="37" fill="white"/>
</clipPath>
</defs>
</svg>
