<svg width="75" height="77" viewBox="0 0 75 77" fill="none" xmlns="http://www.w3.org/2000/svg">
<path d="M2.02168 75.7249H6.10845H11.2169V52.1419C11.2169 51.5743 10.7572 51.1099 10.1952 51.1099H2.02168C1.45975 51.1099 0.999989 51.5743 0.999989 52.1419V74.6929C0.999989 75.2605 1.45975 75.7249 2.02168 75.7249Z" stroke="#009935" stroke-width="1.5" stroke-miterlimit="10"/>
<path d="M11.2169 55.2036H14.7588L20.0035 43.8336H27.9897V56.5281L40.829 63.4086L58.3681 46.8782C58.3681 46.8782 63.9874 41.9242 66.3713 44.3324C70.0324 48.0307 67.1376 51.1097 67.1376 51.1097L40.2841 75.7248H6.09141" stroke="#009935" stroke-width="1.5" stroke-miterlimit="10"/>
<path d="M39.4838 62.6861L47.3679 51.0924C48.628 48.8735 47.8787 46.0181 45.6821 44.7452L45.035 44.3667C42.8384 43.0938 40.0117 43.8507 38.7516 46.0697L31.6508 58.489" stroke="#009935" stroke-width="1.5" stroke-miterlimit="10"/>
<path d="M16.4276 43.7646H70.8498C72.4845 43.7646 73.8297 42.4057 73.8297 40.7544C73.8297 39.103 72.4845 37.7441 70.8498 37.7441H16.4276C14.7929 37.7441 13.4476 39.103 13.4476 40.7544C13.4476 42.4057 14.7929 43.7646 16.4276 43.7646Z" stroke="#009935" stroke-width="1.5" stroke-miterlimit="10"/>
<path d="M43.6387 2L38.4962 12.5272L27.0192 14.2129L35.3289 22.3835L33.3707 33.9428L43.6387 28.49L53.9067 33.9428L51.9485 22.3835L60.2582 14.2129L48.7812 12.5272L43.6387 2Z" stroke="#009935" stroke-width="1.5" stroke-miterlimit="10"/>
</svg>
