<svg width="58" height="45" viewBox="0 0 58 45" fill="none" xmlns="http://www.w3.org/2000/svg">
<path d="M26.3225 15.6875C26.3225 28.54 17.1197 41.985 2.67715 45L0.350448 39.685C5.5879 37.5975 10.194 30.33 10.7071 25.32C4.81706 24.34 0.312613 18.9525 0.312612 12.4475C0.312611 4.4925 6.42257 -2.37125e-06 12.6058 -3.01329e-06C19.7349 -3.75355e-06 26.3225 5.7625 26.3225 15.6875ZM57.0615 15.6875C57.0615 28.54 47.8587 41.985 33.4161 45L31.0894 39.685C36.3269 37.5975 40.933 30.33 41.4461 25.32C35.556 24.34 31.0516 18.9525 31.0516 12.4475C31.0516 4.4925 37.1616 -5.56306e-06 43.3448 -6.20511e-06C50.4739 -6.94536e-06 57.0615 5.76249 57.0615 15.6875Z" fill="#CCEBD7"/>
</svg>
