<svg width="158" height="22" viewBox="0 0 158 22" fill="none" xmlns="http://www.w3.org/2000/svg">
<path d="M27.2073 0.00292969C24.2832 0.00386741 21.3823 0.523143 18.6395 1.53665C18.5573 1.57436 18.4888 1.63666 18.4434 1.71495C18.3981 1.79324 18.3782 1.88367 18.3864 1.97376L18.8466 5.04119C18.8525 5.07499 18.8651 5.1073 18.8835 5.13625C18.9019 5.1652 18.9259 5.19023 18.954 5.2099C18.9851 5.22486 19.0192 5.23262 19.0537 5.23262C19.0882 5.23262 19.1223 5.22486 19.1534 5.2099C20.4154 4.8466 21.6956 4.54967 22.9886 4.32034C26.0568 3.79888 27.7596 3.93692 28.6187 4.74979C28.866 5.01175 29.044 5.33135 29.1364 5.67954C29.2288 6.02774 29.2328 6.39351 29.1479 6.74362L29.0712 7.32643C29.0712 7.32643 25.3511 7.82489 22.9349 8.27734C21.1209 8.51104 19.3715 9.10275 17.7881 10.0181C15.2722 11.6592 14.6509 14.8647 15.1342 17.1499C15.556 19.1514 17.3202 21.544 23.3415 21.544H23.7787C32.9831 21.544 34.1874 19.9719 34.5939 16.6438L35.1385 12.2113L35.8595 6.36786C36.0819 4.56574 35.7521 3.18539 34.8317 2.16547C33.5277 0.70844 31.0348 0.00292969 27.2073 0.00292969ZM28.565 11.3064C28.565 11.3064 28.3809 13.0395 28.3809 13.0625L27.8363 17.4413H27.7596C26.9027 17.675 26.0166 17.7835 25.1287 17.7634C24.137 17.8541 23.1484 17.5604 22.3673 16.9428C22.1201 16.6757 21.9295 16.3614 21.8069 16.0188C21.6843 15.6761 21.6323 15.3123 21.654 14.949C21.654 13.2006 22.6971 12.104 24.8295 11.7052C26.9619 11.3064 28.6647 11.1224 28.6647 11.1224L28.565 11.3064Z" fill="#F1361D"/>
<path d="M110.614 0.0175781H109.939C105.061 0.0175781 101.747 1.4286 100.098 4.18929C98.7711 6.39017 98.1345 13.8517 98.1268 13.9284C97.9826 15.1119 98.1084 16.3127 98.495 17.4406C99.868 21.0909 104.631 21.5893 107.37 21.5586C112.286 21.5586 115.608 20.1553 117.226 17.4636C117.725 16.6354 118.453 14.3195 119.128 8.03892V7.81653C119.289 6.68765 119.208 5.5376 118.89 4.44235C117.832 0.937809 113.805 0.109601 110.614 0.0175781ZM111.742 13.637V13.7444C111.68 14.7668 111.287 15.7415 110.622 16.5204C109.974 17.1131 109.13 17.4438 108.252 17.4483C107.495 17.5394 106.729 17.4032 106.05 17.0572C105.669 16.8174 105.349 16.491 105.117 16.1047C104.885 15.7183 104.748 15.2827 104.716 14.8333C104.67 14.2428 105.199 10.5926 105.483 8.6294L105.613 7.72451C105.719 6.62969 106.241 5.61709 107.07 4.8948C107.73 4.38934 108.54 4.11936 109.372 4.12794C110.079 4.08222 110.784 4.24772 111.397 4.60339C111.749 4.85931 112.034 5.1966 112.228 5.58651C112.421 5.97642 112.518 6.40738 112.509 6.84262C112.524 7.22605 112.263 9.59564 111.742 13.637Z" fill="#F1361D"/>
<path d="M97.458 0.163767H94.5356C93.751 0.142709 92.9741 0.322598 92.2787 0.686338C91.5832 1.05008 90.9924 1.58558 90.5623 2.24195L83.1527 11.4443L83.3522 10.8998L84.6561 0.455173C84.6624 0.420637 84.66 0.385104 84.6493 0.351682C84.6386 0.31826 84.6199 0.287968 84.5948 0.263459C84.5726 0.236293 84.5444 0.214568 84.5125 0.199948C84.4806 0.185327 84.4458 0.178197 84.4107 0.179104H78.3204C78.2376 0.18283 78.1585 0.214385 78.0958 0.268661C78.0332 0.322937 77.9907 0.396759 77.9752 0.478179L75.4287 20.8229C75.4244 20.8557 75.4269 20.8889 75.4361 20.9206C75.4454 20.9523 75.4611 20.9817 75.4824 21.007C75.5323 21.0473 75.5946 21.069 75.6588 21.0683H78.842C79.6236 21.0772 80.3948 20.8886 81.0841 20.5199C81.7733 20.1513 82.3582 19.6145 82.7846 18.9595L90.0254 9.55012L89.7876 10.1329L88.4683 20.7923C88.461 20.8607 88.4802 20.9293 88.522 20.984C88.5476 21.0111 88.5785 21.0326 88.6128 21.0472C88.6472 21.0617 88.6842 21.0689 88.7214 21.0683H94.804C94.8879 21.0642 94.9679 21.0316 95.0307 20.9758C95.0935 20.92 95.1353 20.8444 95.1492 20.7616L97.6804 0.393825C97.6873 0.362885 97.6868 0.330744 97.6788 0.30007C97.6708 0.269396 97.6555 0.241071 97.6344 0.217447C97.5844 0.178012 97.5214 0.158846 97.458 0.163767Z" fill="#F1361D"/>
<path d="M141.258 0.0102818L135.052 0.77714C134.963 0.791505 134.881 0.83313 134.816 0.896297C134.752 0.959463 134.708 1.04107 134.692 1.1299L133.81 8.25401L133.764 8.54542H127.835L128.862 0.240339C128.867 0.207616 128.864 0.174352 128.855 0.142665C128.846 0.110978 128.83 0.0815633 128.809 0.0562933C128.784 0.0370128 128.756 0.0229861 128.725 0.0150739C128.695 0.00716167 128.663 0.005531 128.632 0.0102818L122.427 0.77714C122.338 0.791505 122.255 0.83313 122.191 0.896297C122.126 0.959463 122.083 1.04107 122.067 1.1299L119.658 20.7922C119.654 20.8266 119.658 20.8615 119.668 20.8946C119.679 20.9276 119.696 20.9581 119.719 20.9839C119.742 21.011 119.77 21.0328 119.802 21.0474C119.834 21.062 119.868 21.0691 119.904 21.0682H125.994C126.08 21.0655 126.163 21.0326 126.227 20.9751C126.292 20.9176 126.334 20.8393 126.347 20.7538L127.328 12.8858V12.8245H133.265L132.276 20.7922C132.272 20.8266 132.275 20.8615 132.286 20.8946C132.297 20.9276 132.314 20.9581 132.337 20.9839C132.359 21.011 132.388 21.0328 132.419 21.0474C132.451 21.062 132.486 21.0691 132.521 21.0682H134.055C136.863 21.0682 138.926 20.7308 139.363 17.487L141.519 0.240339C141.526 0.208187 141.525 0.17487 141.517 0.142959C141.509 0.111049 141.494 0.0813972 141.473 0.0562933C141.444 0.0306975 141.409 0.0130016 141.371 0.00493649C141.334 -0.00312863 141.295 -0.00128676 141.258 0.0102818Z" fill="#F1361D"/>
<path d="M75.6687 4.64208L76.1903 0.424361C76.1947 0.389863 76.1915 0.354815 76.1809 0.32169C76.1703 0.288564 76.1525 0.258168 76.1289 0.232646C76.1051 0.205311 76.0756 0.183571 76.0425 0.168987C76.0093 0.154403 75.9733 0.147335 75.9371 0.148291H52.857C52.4355 0.167574 52.0387 0.352185 51.7525 0.662087L45.3017 8.5684H44.3813L45.4168 0.270989C45.4227 0.23944 45.4209 0.20693 45.4115 0.176223C45.4022 0.145516 45.3855 0.117519 45.3631 0.0946114C45.3398 0.0726475 45.3118 0.0563703 45.2812 0.0470567C45.2505 0.0377432 45.2182 0.0356465 45.1866 0.0409313L38.9813 0.80779C38.8917 0.821064 38.8086 0.86233 38.7438 0.925687C38.6791 0.989045 38.636 1.07125 38.6208 1.16054L36.174 20.7998C36.1661 20.8337 36.1669 20.869 36.1762 20.9025C36.1856 20.936 36.2033 20.9666 36.2277 20.9915C36.2517 21.0184 36.2813 21.0399 36.3144 21.0545C36.3475 21.069 36.3833 21.0763 36.4194 21.0759H42.5557C42.6392 21.0704 42.7185 21.0373 42.781 20.9817C42.8435 20.9262 42.8857 20.8514 42.9009 20.7691L43.8904 12.8398H44.8415L49.2673 20.7768C49.3216 20.8618 49.3949 20.9331 49.4814 20.985C49.5679 21.0369 49.6653 21.068 49.7658 21.0759H56.37C56.4774 21.0759 56.5848 21.0222 56.4928 20.8381L50.4485 10.7616L55.4649 4.9565H62.7134L60.7421 20.7998C60.7343 20.8337 60.735 20.869 60.7444 20.9025C60.7538 20.936 60.7715 20.9666 60.7958 20.9915C60.8199 21.0184 60.8495 21.0399 60.8826 21.0545C60.9156 21.069 60.9515 21.0763 60.9876 21.0759H67.0779C67.1622 21.0732 67.2429 21.0411 67.306 20.985C67.3691 20.929 67.4105 20.8526 67.423 20.7691L69.3636 4.9565H75.3158C75.4022 4.95381 75.4849 4.92085 75.5494 4.86337C75.6139 4.80589 75.6561 4.72755 75.6687 4.64208Z" fill="#F1361D"/>
<path d="M14.3905 0.155273H8.56865C8.16605 0.171091 7.78583 0.344629 7.51014 0.638394L0.238637 9.47261C0.105681 9.62292 0.0236919 9.81143 0.00440347 10.0112C-0.0148849 10.2109 0.0295158 10.4116 0.131251 10.5846L5.78431 20.5537C5.88074 20.7106 6.01463 20.841 6.17394 20.9334C6.33326 21.0257 6.51301 21.0771 6.69708 21.0828H11.7365C12.097 21.0828 12.2734 20.8528 12.097 20.5691L6.42862 10.5999L14.6359 0.630726C14.8507 0.354657 14.7433 0.155273 14.3905 0.155273Z" fill="#F1361D"/>
<path d="M157.129 10.677L151.476 0.707844C151.378 0.551912 151.244 0.422178 151.085 0.32995C150.926 0.237722 150.747 0.1858 150.563 0.178711H145.516C145.163 0.178711 144.987 0.408769 145.155 0.692506L150.831 10.6617L142.624 20.6462C142.402 20.8916 142.509 21.0986 142.87 21.0986H148.691C149.091 21.0808 149.468 20.9074 149.742 20.6155L157.021 11.7813C157.151 11.6305 157.23 11.4437 157.249 11.2461C157.269 11.0485 157.226 10.8498 157.129 10.677Z" fill="#F1361D"/>
</svg>
