<svg width="170" height="14" viewBox="0 0 170 14" fill="none" xmlns="http://www.w3.org/2000/svg">
<path fill-rule="evenodd" clip-rule="evenodd" d="M13.4133 5.92878C13.4133 5.92878 13.3268 6.77578 13.3268 6.78678L13.0712 8.92678H13.0346C12.6329 9.04078 12.2167 9.09478 11.7996 9.08478C11.3344 9.12878 10.8702 8.98478 10.503 8.68278C10.2685 8.41978 10.1474 8.06778 10.1685 7.70878C10.1685 6.85478 10.6577 6.31878 11.6593 6.12378C12.6608 5.92878 13.4604 5.83878 13.4604 5.83878L13.4133 5.92878ZM12.776 0.405762C11.4026 0.405762 10.0406 0.659762 8.75271 1.15476C8.67294 1.19276 8.62584 1.27876 8.63353 1.36776L8.84978 2.86676C8.85555 2.90076 8.87381 2.92976 8.90073 2.94976C8.92956 2.96476 8.96416 2.96476 8.99396 2.94976C9.58698 2.77276 10.1877 2.62676 10.7951 2.51476C12.2359 2.26076 13.0346 2.32776 13.4383 2.72476C13.6747 2.98476 13.7679 3.35176 13.6872 3.69976L13.6516 3.98376C13.6516 3.98376 11.9043 4.22776 10.7701 4.44876C9.91761 4.56276 9.09584 4.85176 8.35288 5.29976C7.17164 6.10176 6.87945 7.66776 7.10628 8.78476C7.30524 9.76276 8.13278 10.9318 10.9604 10.9318H11.1661C15.4884 10.9318 16.0535 10.1638 16.2448 8.53676L16.4995 6.37076L16.8388 3.51576C16.9426 2.63476 16.7878 1.96076 16.3563 1.46176C15.744 0.749762 14.5734 0.405762 12.776 0.405762Z" fill="#F1361D"/>
<path fill-rule="evenodd" clip-rule="evenodd" d="M52.4711 7.06811V7.12011C52.4423 7.62011 52.2578 8.09611 51.9454 8.47711C51.6407 8.76611 51.2447 8.92811 50.8324 8.93011C50.4768 8.97511 50.1173 8.90811 49.7982 8.73911C49.4349 8.50211 49.2023 8.09811 49.1716 7.65211C49.1504 7.36411 49.3984 5.58011 49.532 4.62111L49.5935 4.17811C49.6435 3.64411 49.8876 3.14911 50.2778 2.79611C50.5873 2.54911 50.9679 2.41711 51.3581 2.42111C51.6907 2.39911 52.0213 2.48011 52.3087 2.65311C52.6451 2.90711 52.8393 3.31611 52.8316 3.74811C52.8383 3.93511 52.7162 5.09311 52.4711 7.06811ZM51.9416 0.412109H51.6244C49.334 0.412109 47.7779 1.10211 47.0042 2.45111C46.3804 3.52611 46.0815 7.17211 46.0777 7.21011C46.0104 7.78911 46.069 8.37511 46.2507 8.92611C46.8956 10.7101 49.1322 10.9541 50.4182 10.9391C52.7268 10.9391 54.2868 10.2531 55.0461 8.93811C55.2806 8.53311 55.6227 7.40111 55.9399 4.33211V4.22311C56.0149 3.67211 55.9764 3.11011 55.8284 2.57511C55.3315 0.862109 53.44 0.457109 51.9416 0.412109Z" fill="#F1361D"/>
<path fill-rule="evenodd" clip-rule="evenodd" d="M45.7644 0.483729H44.3919C43.6432 0.462729 42.9377 0.846729 42.5263 1.49973L39.047 5.99673L39.1412 5.73073L39.7535 0.626729C39.7592 0.591729 39.7487 0.556729 39.7246 0.532729C39.7035 0.505729 39.6718 0.490729 39.6381 0.490729H36.7778C36.698 0.494729 36.6317 0.555729 36.6163 0.637729L35.4207 10.5797C35.4158 10.6117 35.4255 10.6447 35.4456 10.6697C35.4687 10.6887 35.4985 10.6997 35.5283 10.6987H37.0229C37.7687 10.7087 38.4675 10.3187 38.875 9.66873L42.2745 5.07073L42.163 5.35573L41.5431 10.5647C41.5393 10.5977 41.5489 10.6307 41.5681 10.6577C41.5931 10.6847 41.6267 10.6997 41.6623 10.6987H44.5188C44.5995 10.6947 44.6668 10.6327 44.6803 10.5487L45.8692 0.595729C45.8759 0.565729 45.8673 0.533729 45.8471 0.509729C45.824 0.490729 45.7942 0.481729 45.7644 0.483729Z" fill="#F1361D"/>
<path fill-rule="evenodd" clip-rule="evenodd" d="M66.3308 0.409074L63.4166 0.784074C63.331 0.798074 63.2638 0.867074 63.2474 0.956074L62.8332 4.43707L62.812 4.58007H60.0276L60.5101 0.521074C60.5139 0.489074 60.5053 0.456074 60.4851 0.431074C60.462 0.412074 60.4313 0.404074 60.4025 0.409074L57.4883 0.784074C57.4027 0.798074 57.3345 0.867074 57.3191 0.956074L56.1879 10.5641C56.184 10.5981 56.1956 10.6331 56.2167 10.6581C56.2388 10.6851 56.2705 10.7001 56.3032 10.6991H59.1626C59.2472 10.6971 59.3164 10.6321 59.3289 10.5461L59.7902 6.70107V6.67107H62.5775L62.1133 10.5641C62.1094 10.5981 62.12 10.6331 62.1421 10.6581C62.1633 10.6851 62.195 10.7001 62.2286 10.6991H62.9485C64.2672 10.6991 65.236 10.5341 65.4407 8.94907L66.4528 0.521074C66.4595 0.490074 66.4519 0.456074 66.4317 0.431074C66.4038 0.406074 66.3663 0.397074 66.3308 0.409074Z" fill="#F1361D"/>
<path fill-rule="evenodd" clip-rule="evenodd" d="M35.5318 2.67229L35.7759 0.611286C35.7808 0.577286 35.7702 0.543286 35.7481 0.517286C35.725 0.490286 35.6923 0.475286 35.6577 0.476286H24.8199C24.6219 0.485286 24.4355 0.576286 24.3009 0.727286L21.2724 4.59129H20.8399L21.3262 0.536286C21.332 0.505286 21.3224 0.473286 21.3012 0.450286C21.2791 0.428286 21.2483 0.419286 21.2176 0.423286L18.3044 0.798286C18.2179 0.812286 18.1496 0.881286 18.1352 0.971286L16.9867 10.5683C16.978 10.6023 16.9886 10.6373 17.0107 10.6623C17.0338 10.6883 17.0674 10.7033 17.101 10.7033H19.9825C20.0633 10.6973 20.1305 10.6353 20.145 10.5533L20.6092 6.67829H21.0561L23.1341 10.5573C23.186 10.6413 23.2725 10.6953 23.3686 10.7033H26.4692C26.5202 10.7033 26.5702 10.6763 26.5269 10.5873L23.6887 5.66329L26.0444 2.82629H29.4478L28.5232 10.5683C28.5155 10.6023 28.5242 10.6373 28.5472 10.6623C28.5703 10.6883 28.6039 10.7033 28.6376 10.7033H31.4979C31.5796 10.7003 31.6469 10.6373 31.6594 10.5533L32.5705 2.82629H35.3665C35.4501 2.82329 35.5193 2.75829 35.5318 2.67229Z" fill="#F1361D"/>
<path fill-rule="evenodd" clip-rule="evenodd" d="M6.75704 0.47998H4.02356C3.83422 0.48798 3.65544 0.57298 3.52665 0.71598L0.111728 5.03298C-0.0161031 5.18398 -0.036287 5.40298 0.0617491 5.57698L2.71545 10.448C2.80772 10.604 2.96919 10.701 3.14508 10.707H5.5114C5.68056 10.707 5.76322 10.595 5.68056 10.456L3.01821 5.58398L6.87237 0.71198C6.97329 0.57798 6.92235 0.47998 6.75704 0.47998Z" fill="#F1361D"/>
<path fill-rule="evenodd" clip-rule="evenodd" d="M73.7831 5.6217L71.1284 0.749699C71.0362 0.595699 70.8756 0.498699 70.6998 0.491699H68.3306C68.1643 0.491699 68.0816 0.603699 68.1604 0.742699L70.8257 5.6147L66.9725 10.4937C66.8677 10.6137 66.9177 10.7147 67.0878 10.7147H69.8213C70.0087 10.7057 70.1856 10.6217 70.3143 10.4787L73.7331 6.1617C73.8571 6.0107 73.8773 5.7947 73.7831 5.6217Z" fill="#F1361D"/>
<path fill-rule="evenodd" clip-rule="evenodd" d="M84.837 7.54051C85.0494 5.78651 84.1161 5.46851 82.5466 5.46851H79.8487L79.3585 9.63151H82.0564C83.6307 9.63151 84.6419 9.29751 84.837 7.54051ZM77.8418 10.5685L79.0634 0.232502C79.0865 0.098502 79.198 0.000502043 79.3296 0.000502043H85.554C85.6405 -0.00649796 85.7174 0.060502 85.7241 0.151502C85.7251 0.165502 85.7251 0.178502 85.7231 0.191502L85.6222 0.963502C85.6145 1.0785 85.5232 1.1675 85.4136 1.1695H80.3706L80.0111 4.2835H82.9349C85.208 4.2835 86.3315 4.9995 86.3315 6.8695C86.3325 7.0935 86.319 7.3175 86.2921 7.5405C86.0115 9.9235 84.7034 10.8005 82.1746 10.8005H78.0657C77.9485 10.8075 77.8485 10.7135 77.8418 10.5915V10.5685Z" fill="black"/>
<path fill-rule="evenodd" clip-rule="evenodd" d="M87.9197 13.8662C87.567 13.8672 87.2142 13.8442 86.8644 13.7952C86.7827 13.7932 86.7183 13.7232 86.7192 13.6382C86.7192 13.6262 86.7212 13.6152 86.7241 13.6032L86.8067 12.9182C86.8067 12.8132 86.8932 12.7572 87.0191 12.7572H87.8188C88.5396 12.7572 88.9577 12.5952 89.2595 11.8042L89.6844 10.8012H89.025C88.8953 10.8052 88.7828 10.7032 88.7703 10.5682L87.343 3.37323C87.3257 3.25723 87.4017 3.14723 87.5141 3.12823C87.5266 3.12623 87.5391 3.12523 87.5526 3.12623H88.5358C88.6502 3.10923 88.7559 3.19223 88.7722 3.31023C88.7722 3.31623 88.7732 3.32223 88.7732 3.32823L89.8545 9.84823H90.2139L92.6745 3.32823C92.7081 3.20523 92.8177 3.12223 92.9407 3.12623H93.9528C94.0364 3.12623 94.1046 3.19623 94.1046 3.28323V3.28723C94.1037 3.32723 94.095 3.36623 94.0787 3.40323L90.5532 11.8652C89.9987 13.2442 89.4902 13.8662 87.9197 13.8662Z" fill="black"/>
<path fill-rule="evenodd" clip-rule="evenodd" d="M100.886 10.4931C100.942 10.5791 100.921 10.6951 100.838 10.7531C100.811 10.7731 100.778 10.7841 100.746 10.7851H99.7047C99.623 10.7921 99.5451 10.7461 99.5105 10.6691L97.8391 7.61508L95.5622 10.6541C95.5112 10.7381 95.4209 10.7881 95.3248 10.7851H94.2012C94.0609 10.7851 94.0465 10.5981 94.1291 10.4931L97.1077 6.82508L95.1556 3.37708C95.1133 3.28508 95.1498 3.17608 95.2383 3.13208C95.2565 3.12208 95.2758 3.11708 95.2959 3.11508H96.3474C96.4666 3.10908 96.5752 3.18508 96.6146 3.30208L98.0554 6.00808L100.036 3.30208C100.103 3.18208 100.227 3.11008 100.36 3.11508H101.44C101.581 3.11508 101.625 3.30208 101.538 3.40708L98.757 6.78008L100.886 10.4931Z" fill="black"/>
<path fill-rule="evenodd" clip-rule="evenodd" d="M102.075 8.88549C102.075 7.19149 103.126 6.54749 104.909 6.29949C105.655 6.19849 106.822 6.06749 106.822 5.04449C106.822 4.17849 106.062 4.00649 105.191 4.00649C104.506 4.02249 103.823 4.11049 103.155 4.26849C103.069 4.26849 103.001 4.26849 103.001 4.16749L102.972 3.41749C102.976 3.31149 103.054 3.22449 103.155 3.21149C103.915 3.02549 104.692 2.93649 105.472 2.94949C106.721 2.94949 108.115 3.34349 108.115 5.02549C108.115 6.64849 106.934 7.20249 105.472 7.44949C104.559 7.59649 103.378 7.61149 103.378 8.84049C103.378 9.74749 104.196 9.93449 105.01 9.93449C105.778 9.91349 106.539 9.78149 107.273 9.54149C107.3 9.53549 107.328 9.53549 107.355 9.54149C107.427 9.53449 107.489 9.59049 107.496 9.66449V9.67249L107.564 10.4215C107.564 10.5235 107.496 10.5825 107.424 10.6135C106.687 10.8805 105.916 11.0235 105.136 11.0365C103.8 10.9915 102.075 10.7445 102.075 8.88549Z" fill="black"/>
<path fill-rule="evenodd" clip-rule="evenodd" d="M110.463 7.87008C110.317 8.16308 110.245 8.49108 110.255 8.82208C110.24 9.14308 110.374 9.45208 110.615 9.65408C110.974 9.96108 111.544 9.99108 112.056 9.99108C112.65 9.99908 113.242 9.91508 113.813 9.74408L114.173 6.84708L111.63 7.27008C111.125 7.33808 110.719 7.40908 110.463 7.87008ZM115.618 5.46808L115.168 9.28308C115.041 10.3211 114.775 10.5531 113.777 10.7821C113.163 10.9201 112.537 10.9891 111.908 10.9881C111.195 11.0361 110.481 10.9211 109.816 10.6511C109.211 10.3471 108.846 9.69108 108.893 8.99408C108.893 8.49708 108.988 8.00508 109.174 7.54808C109.62 6.55508 110.507 6.42408 111.573 6.26308L114.27 5.80908C114.323 5.47008 114.357 5.12908 114.371 4.78608C114.384 4.50808 114.216 4.25608 113.961 4.17108C113.57 4.04908 113.161 3.99908 112.754 4.02508C111.896 4.06408 111.045 4.20008 110.215 4.43008C110.163 4.44408 110.113 4.45308 110.061 4.46008C109.993 4.46208 109.938 4.40908 109.934 4.34008L109.876 3.59008C109.866 3.48808 109.934 3.39408 110.031 3.37308C111.021 3.09108 112.042 2.94308 113.067 2.93408C114.08 2.93408 114.71 3.08108 115.103 3.32808C115.488 3.55708 115.716 3.99208 115.693 4.45308C115.689 4.72208 115.635 5.24708 115.618 5.46808Z" fill="black"/>
<path fill-rule="evenodd" clip-rule="evenodd" d="M116.41 10.8007C116.255 10.8007 116.158 10.6987 116.172 10.5687L116.255 9.89368C116.267 9.75868 116.377 9.65668 116.508 9.66168C117.76 9.57468 117.844 8.73968 118.042 7.06068L118.473 3.34668C118.487 3.21968 118.593 3.12468 118.715 3.12968H123.758C123.851 3.12068 123.934 3.19168 123.941 3.28868C123.943 3.30768 123.942 3.32768 123.938 3.34668L123.084 10.5827C123.078 10.7077 122.977 10.8047 122.857 10.8007H121.985C121.845 10.8007 121.762 10.7147 121.777 10.5827L122.552 4.12268H119.641L119.306 7.04568C119.025 9.44368 118.56 10.8007 116.41 10.8007Z" fill="black"/>
<path fill-rule="evenodd" clip-rule="evenodd" d="M137.012 5.17584L136.367 10.5828C136.363 10.7078 136.264 10.8048 136.144 10.8008H135.258C135.163 10.8088 135.079 10.7358 135.071 10.6368C135.07 10.6188 135.071 10.6008 135.075 10.5828L135.694 5.27684C135.71 5.14084 135.719 5.00484 135.722 4.86884C135.736 4.65184 135.67 4.43784 135.539 4.26884C135.273 4.03884 134.928 3.93284 134.584 3.97684C133.753 4.00084 132.927 4.12684 132.125 4.35084L131.404 10.5948C131.398 10.7208 131.295 10.8188 131.174 10.8128C131.171 10.8128 131.169 10.8118 131.167 10.8118H130.295C130.201 10.8268 130.112 10.7588 130.098 10.6608C130.095 10.6388 130.096 10.6158 130.101 10.5948L130.72 5.24684C130.736 5.13984 130.746 5.03284 130.748 4.92484C130.773 4.67284 130.69 4.42284 130.522 4.23884C130.258 4.04084 129.933 3.95284 129.611 3.99184C128.775 4.01684 127.947 4.14284 127.139 4.36584L126.42 10.6098C126.412 10.7378 126.306 10.8348 126.182 10.8268C126.181 10.8268 126.179 10.8268 126.178 10.8268H125.31C125.213 10.8418 125.124 10.7718 125.11 10.6708C125.108 10.6508 125.108 10.6298 125.111 10.6098L125.832 4.48684C125.901 3.90184 126.016 3.66584 126.758 3.41784C127.753 3.13484 128.777 2.98284 129.808 2.96484C130.691 2.96484 131.282 3.15584 131.635 3.50484C132.658 3.17384 133.721 2.99184 134.793 2.96484C135.694 2.96484 136.324 3.11084 136.692 3.50484C136.951 3.81484 137.08 4.21884 137.052 4.62884C137.048 4.81184 137.034 4.99384 137.012 5.17584Z" fill="black"/>
<path fill-rule="evenodd" clip-rule="evenodd" d="M143.768 5.45298C143.797 4.44498 143.308 3.97598 142.084 3.97598C140.314 3.97598 139.879 5.02998 139.738 6.85398H141.874C143.178 6.85398 143.74 6.66298 143.768 5.45298ZM139.627 8.16999C139.627 9.49999 140.368 9.95299 141.846 9.95299C142.536 9.93399 143.216 9.78599 143.855 9.51499C143.996 9.45499 144.065 9.51499 144.078 9.64599L144.162 10.306C144.162 10.422 144.136 10.493 143.996 10.553C143.212 10.849 142.384 10.997 141.551 10.992C139.191 10.992 138.309 10.055 138.309 8.06899C138.313 7.70199 138.336 7.33499 138.377 6.97099C138.673 4.44499 139.403 2.93799 142.169 2.93799C144.024 2.93799 145.051 3.68799 145.051 5.29199C145.051 7.56999 143.701 7.80699 141.734 7.80699H139.642C139.629 7.92699 139.624 8.04799 139.627 8.16999Z" fill="black"/>
<path fill-rule="evenodd" clip-rule="evenodd" d="M151.636 4.54653C151.369 4.09253 150.879 4.00653 150.195 4.00653C149.54 4.04353 148.891 4.15053 148.257 4.32553L147.627 9.74353C148.208 9.90353 148.808 9.98253 149.41 9.97653C150.941 9.97653 151.531 9.27553 151.797 6.97853C151.849 6.57153 151.877 6.16253 151.881 5.75353C151.906 5.33553 151.82 4.91853 151.636 4.54653ZM153.145 6.97052C152.825 9.67652 151.982 10.9915 149.424 10.9915C148.727 10.9955 148.033 10.9015 147.361 10.7145L147.414 11.5915L147.19 13.4645C147.177 13.5805 147.09 13.6715 146.979 13.6865L146.038 13.8885C145.912 13.9185 145.84 13.8175 145.854 13.6865L146.935 4.58052C147.004 3.93552 147.115 3.68852 147.833 3.42552C148.741 3.12552 149.688 2.96752 150.642 2.95752C151.596 2.95752 152.216 3.17452 152.623 3.58752C153.087 4.05152 153.242 4.77152 153.242 5.65952C153.236 6.09852 153.203 6.53652 153.145 6.97052Z" fill="black"/>
<path fill-rule="evenodd" clip-rule="evenodd" d="M160.871 7.99349C160.687 9.53049 160.168 10.9915 157.373 10.9915C156.206 10.9915 155.464 10.7595 155.029 10.2755C154.68 9.85549 154.507 9.30749 154.549 8.75449C154.556 8.50349 154.575 8.25349 154.607 8.00449L155.14 3.37249C155.152 3.25849 155.239 3.16749 155.349 3.15549L156.278 2.94949C156.368 2.93149 156.455 2.99149 156.473 3.08449C156.478 3.10849 156.478 3.13249 156.472 3.15549L155.882 8.12449C155.858 8.30349 155.845 8.48349 155.843 8.66449C155.843 9.70249 156.472 9.97949 157.499 9.97949C159.17 9.97949 159.437 9.13249 159.549 8.10649L160.11 3.37249C160.106 3.24449 160.2 3.13549 160.323 3.12549L161.234 2.93449C161.329 2.91849 161.417 2.98549 161.432 3.08349C161.435 3.10249 161.435 3.12149 161.432 3.14049L160.871 7.99349Z" fill="black"/>
<mask id="mask0" mask-type="alpha" maskUnits="userSpaceOnUse" x="162" y="3" width="8" height="8">
<path fill-rule="evenodd" clip-rule="evenodd" d="M162.155 3.14014H169.473V10.8128H162.155V3.14014Z" fill="white"/>
</mask>
<g mask="url(#mask0)">
<path fill-rule="evenodd" clip-rule="evenodd" d="M165.585 4.12247C164.714 4.12247 164.336 4.59147 164.235 5.43747C164.095 6.53647 164.783 6.72347 165.676 6.75347L167.782 6.83947L168.106 4.12247H165.585ZM162.157 10.5825L162.369 9.16348C162.549 7.93748 163.089 7.45448 164.152 7.33748V7.13148C163.212 6.94448 162.858 6.43148 162.858 5.63248C162.862 5.50748 162.871 5.38248 162.887 5.25848C163.071 3.68048 164.041 3.14148 165.542 3.14148H169.285C169.377 3.12948 169.461 3.19948 169.472 3.29548C169.474 3.31648 169.473 3.33748 169.468 3.35848L168.611 10.5945C168.607 10.7185 168.507 10.8155 168.388 10.8115H167.516C167.417 10.8235 167.328 10.7495 167.316 10.6465C167.314 10.6295 167.315 10.6115 167.318 10.5945L167.678 7.70148L165.445 7.77248C164.321 7.81748 163.885 8.18148 163.745 9.23448L163.561 10.5945C163.549 10.7215 163.446 10.8165 163.323 10.8115H162.369C162.228 10.8005 162.141 10.7145 162.157 10.5825Z" fill="black"/>
</g>
</svg>
