<svg width="175" height="26" viewBox="0 0 175 26" fill="none" xmlns="http://www.w3.org/2000/svg">
<rect width="175" height="26" fill="#6E7992"/>
<path d="M44.584 17C46.048 17 46.9 16.124 46.9 14.84C46.9 13.88 46.192 13.004 45.34 12.872C46.072 12.716 46.744 12.044 46.744 11.036C46.744 9.836 45.892 8.996 44.5 8.996H40.936V17H44.584ZM44.332 12.464H41.932V9.884H44.332C45.232 9.884 45.712 10.46 45.712 11.18C45.712 11.912 45.232 12.464 44.332 12.464ZM44.38 16.112H41.932V13.352H44.38C45.364 13.352 45.868 14 45.868 14.732C45.868 15.584 45.316 16.112 44.38 16.112ZM53.2469 17L51.0149 14.024L53.1149 11.204H52.0709L50.4629 13.412L48.8549 11.204H47.8109L49.9109 14.024L47.6909 17H48.7229L50.4629 14.624L52.2029 17H53.2469ZM56.3695 17.144C58.1335 17.144 59.2375 15.776 59.2375 14.096C59.2375 12.416 58.1335 11.06 56.3695 11.06C54.6055 11.06 53.5015 12.416 53.5015 14.096C53.5015 15.776 54.6055 17.144 56.3695 17.144ZM56.3695 16.34C55.1335 16.34 54.4375 15.284 54.4375 14.096C54.4375 12.92 55.1335 11.864 56.3695 11.864C57.6055 11.864 58.2895 12.92 58.2895 14.096C58.2895 15.284 57.6055 16.34 56.3695 16.34ZM60.0207 18.476H60.9207V17H65.3007V18.476H66.2007V16.208H65.5287V11.204H61.4967L61.1247 14.06C60.8967 15.776 60.5607 16.16 60.0207 16.256V18.476ZM62.2887 11.996H64.6287V16.208H61.1847C61.6047 15.872 61.8807 15.26 62.0247 14.168L62.2887 11.996ZM71.389 17L74.449 12.488V17H75.349V11.204H74.461L71.425 15.632V11.204H70.525V17H71.389ZM76.4621 17.144C77.5781 17.144 78.2021 16.328 78.4661 14.168L78.7301 11.996H81.0701V17H81.9701V11.204H77.9381L77.5661 14.06C77.3381 15.776 77.0021 16.4 76.4621 16.4V17.144ZM84.6312 17L87.6912 12.488V17H88.5912V11.204H87.7032L84.6672 15.632V11.204H83.7672V17H84.6312ZM96.338 17.144C97.862 17.144 98.918 15.968 98.918 14.096C98.918 12.212 97.862 11.06 96.338 11.06C95.522 11.06 94.802 11.48 94.382 12.068V11.204H93.482V19.208H94.382V16.124C94.85 16.772 95.546 17.144 96.338 17.144ZM96.11 16.34C95.402 16.34 94.694 15.908 94.382 15.404V12.788C94.694 12.284 95.402 11.864 96.11 11.864C97.274 11.864 97.97 12.812 97.97 14.096C97.97 15.38 97.274 16.34 96.11 16.34ZM102.965 17.144C103.913 17.144 104.693 16.832 105.269 16.256L104.837 15.668C104.381 16.136 103.709 16.4 103.049 16.4C101.801 16.4 101.033 15.488 100.961 14.396H105.653V14.168C105.653 12.428 104.621 11.06 102.869 11.06C101.213 11.06 100.013 12.416 100.013 14.096C100.013 15.908 101.249 17.144 102.965 17.144ZM104.765 13.736H100.961C101.009 12.848 101.621 11.804 102.857 11.804C104.177 11.804 104.753 12.872 104.765 13.736ZM111.167 11.204H107.111V17H108.011V11.996H111.167V11.204ZM113.201 17L116.262 12.488V17H117.162V11.204H116.274L113.238 15.632V11.204H112.338V17H113.201ZM121.515 17.144C122.571 17.144 123.195 16.712 123.639 16.136L123.039 15.584C122.655 16.1 122.163 16.34 121.563 16.34C120.327 16.34 119.559 15.38 119.559 14.096C119.559 12.812 120.327 11.864 121.563 11.864C122.163 11.864 122.655 12.092 123.039 12.62L123.639 12.068C123.195 11.492 122.571 11.06 121.515 11.06C119.787 11.06 118.623 12.38 118.623 14.096C118.623 15.824 119.787 17.144 121.515 17.144ZM126.856 17V11.996H128.548V11.204H124.276V11.996H125.956V17H126.856ZM132.584 17.144C134.108 17.144 135.164 15.968 135.164 14.096C135.164 12.212 134.108 11.06 132.584 11.06C131.768 11.06 131.048 11.48 130.628 12.068V11.204H129.728V19.208H130.628V16.124C131.096 16.772 131.792 17.144 132.584 17.144ZM132.356 16.34C131.648 16.34 130.94 15.908 130.628 15.404V12.788C130.94 12.284 131.648 11.864 132.356 11.864C133.52 11.864 134.216 12.812 134.216 14.096C134.216 15.38 133.52 16.34 132.356 16.34ZM141.119 17V13.016C141.119 11.612 140.099 11.06 138.875 11.06C137.927 11.06 137.183 11.372 136.559 12.02L136.979 12.644C137.495 12.092 138.059 11.84 138.755 11.84C139.595 11.84 140.219 12.284 140.219 13.064V14.108C139.751 13.568 139.091 13.316 138.299 13.316C137.315 13.316 136.271 13.928 136.271 15.224C136.271 16.484 137.315 17.144 138.299 17.144C139.079 17.144 139.739 16.868 140.219 16.34V17H141.119ZM138.623 16.496C137.783 16.496 137.195 15.968 137.195 15.236C137.195 14.492 137.783 13.964 138.623 13.964C139.259 13.964 139.871 14.204 140.219 14.684V15.776C139.871 16.256 139.259 16.496 138.623 16.496ZM147.519 18.476H148.419V16.208H147.747V11.204H146.847V16.208H143.823V11.204H142.923V17H147.519V18.476ZM150.514 17L153.574 12.488V17H154.474V11.204H153.586L150.55 15.632V11.204H149.65V17H150.514ZM157.135 17L158.551 14.756H160.135V17H161.035V11.204H157.975C156.799 11.204 156.139 11.996 156.139 12.98C156.139 13.952 156.763 14.612 157.627 14.72L156.079 17H157.135ZM158.071 13.964C157.411 13.964 157.063 13.556 157.063 12.98C157.063 12.404 157.435 11.996 158.071 11.996H160.135V13.964H158.071Z" fill="#D6D6D6"/>
<path fill-rule="evenodd" clip-rule="evenodd" d="M15.0251 17C14.459 17 13.8973 16.9705 13.3542 16.8051C12.764 16.6249 12.2777 16.3172 12.0952 15.7133C11.8231 14.8071 12.0952 13.5004 13.4208 13.0062C13.9464 12.8236 14.4903 12.6943 15.0437 12.6205C15.5726 12.5383 16.1038 12.4677 16.6338 12.3877C16.6733 12.3817 16.7077 12.3584 16.7267 12.3244C16.747 12.1792 16.7521 12.0323 16.742 11.8861C16.7132 11.6396 16.5305 11.4354 16.2819 11.3718C15.954 11.2601 15.6087 11.2812 15.2699 11.3107C14.6626 11.3733 14.0624 11.4887 13.4766 11.6553C13.329 11.6943 13.317 11.6848 13.2952 11.5352C13.2515 11.2443 13.2077 10.9524 13.1586 10.6626C13.1467 10.6219 13.1528 10.5783 13.1753 10.542C13.1978 10.5057 13.2349 10.48 13.2777 10.4709C13.834 10.2708 14.4134 10.1367 15.0033 10.0715C15.4496 10.0236 15.8984 10 16.3475 10.0009C16.8852 9.99036 17.4203 10.0746 17.9266 10.2496C18.4731 10.4519 18.8512 10.7954 18.9681 11.3697C19.0348 11.6943 18.9823 12.0157 18.943 12.336C18.8701 12.9247 18.7947 13.5131 18.7168 14.1011C18.6479 14.628 18.5845 15.1549 18.5036 15.6817C18.4524 16.1772 18.085 16.5887 17.5846 16.7113C17.1998 16.8176 16.8065 16.8927 16.4087 16.9357C15.9519 16.9747 15.4874 16.9747 15.0251 17ZM16.5628 13.5795C16.0349 13.6722 15.53 13.7396 15.0328 13.8545C14.5782 13.9599 14.2678 14.2381 14.2153 14.7144C14.1629 15.1907 14.3465 15.6301 14.9224 15.7407C15.3532 15.8154 15.7959 15.7953 16.2174 15.6817C16.2657 15.6559 16.2987 15.61 16.307 15.5574C16.3715 15.1085 16.4283 14.6575 16.4863 14.2075C16.5158 14.0094 16.5365 13.8134 16.5628 13.5795Z" fill="#D6D6D6"/>
<path fill-rule="evenodd" clip-rule="evenodd" d="M10.9067 10.0025C11.2143 10.0025 11.5219 10.0025 11.8295 10.0025C11.888 10.0103 11.9453 10.0253 12 10.047C11.982 10.0976 11.9581 10.1461 11.9287 10.1913C11.1315 11.1495 10.3332 12.1062 9.53377 13.0615C9.4357 13.1788 9.34098 13.3004 9.23845 13.4143C9.18526 13.4622 9.1794 13.542 9.22507 13.5967C9.83281 14.6374 10.4383 15.6788 11.0416 16.7209C11.1787 16.9576 11.153 16.9988 10.8711 16.9988C10.3718 16.9988 9.8681 16.9988 9.37329 16.9988C9.18243 17.0123 9.00254 16.9107 8.91972 16.7426C8.30827 15.6744 7.69274 14.6084 7.07311 13.5446C6.9634 13.403 6.97867 13.2041 7.10878 13.08C7.91116 12.1218 8.71355 11.1636 9.51594 10.2055C9.6256 10.0708 9.79426 9.99469 9.97063 10.0003C10.2827 10.0014 10.5947 10.0025 10.9067 10.0025Z" fill="#D6D6D6"/>
<path fill-rule="evenodd" clip-rule="evenodd" d="M20.0813 16.9961C19.7736 16.9961 19.466 16.9961 19.1583 16.9961C19.1039 16.9886 19.0507 16.9743 19 16.9538C19.0151 16.9022 19.0372 16.8529 19.0658 16.8071C19.9576 15.7344 20.8524 14.6635 21.7501 13.5944C21.8081 13.5398 21.8135 13.451 21.7624 13.3901C21.1433 12.3297 20.5265 11.2683 19.9119 10.2057C19.8327 10.0677 19.8706 10.0014 20.0334 10.0004C20.5908 10.0004 21.1482 10.0004 21.7055 10.0004C21.845 9.99427 21.9755 10.0676 22.04 10.1883L23.9418 13.4792C24.0338 13.6163 24.0152 13.7973 23.8972 13.9138C23.0804 14.8779 22.267 15.8463 21.4569 16.8191C21.3519 16.9404 21.1949 17.007 21.0322 16.9994C20.7145 16.9994 20.3979 16.9961 20.0813 16.9961Z" fill="#D6D6D6"/>
</svg>
